999
"DXF R12 Output" (www.mydxf.blogspot.com)
 0 
SECTION
 2 
HEADER
 9 
$ACADVER
 1 
AC1009
 9 
$EXTMIN
 10 
 0 
 20 
 0 
 9 
$EXTMAX
 10 
 8.5 
 20 
 11 
 0 
ENDSEC
 0 
SECTION
 2 
ENTITIES
0
POLYLINE
8
Layer 1
62
7
70
0
10
0.000000
20
0.000000
66
1
0
VERTEX
8
Layer 1
10
0.000000
20
127.000000
70
0
0
VERTEX
8
Layer 1
10
126.999840
20
127.000000
70
0
0
VERTEX
8
Layer 1
10
126.999840
20
0.000160
70
0
0
VERTEX
8
Layer 1
10
0.000000
20
0.000160
70
0
0
VERTEX
8
Layer 1
10
0.000000
20
127.000000
70
0
0
SEQEND
8
Layer 1
0
POLYLINE
8
Layer 1
62
255
70
0
10
0.000000
20
0.000000
66
1
0
VERTEX
8
Layer 1
10
116.416520
20
63.500080
70
0
0
VERTEX
8
Layer 1
10
116.350388
20
61.383980
70
0
0
VERTEX
8
Layer 1
10
116.152157
20
59.271266
70
0
0
VERTEX
8
Layer 1
10
115.822324
20
57.165317
70
0
0
VERTEX
8
Layer 1
10
115.361711
20
55.069502
70
0
0
VERTEX
8
Layer 1
10
114.771471
20
52.987174
70
0
0
VERTEX
8
Layer 1
10
114.053079
20
50.921665
70
0
0
VERTEX
8
Layer 1
10
113.208330
20
48.876279
70
0
0
VERTEX
8
Layer 1
10
112.239336
20
46.854287
70
0
0
VERTEX
8
Layer 1
10
111.148519
20
44.858925
70
0
0
VERTEX
8
Layer 1
10
109.938605
20
42.893385
70
0
0
VERTEX
8
Layer 1
10
108.612619
20
40.960812
70
0
0
VERTEX
8
Layer 1
10
107.173875
20
39.064296
70
0
0
VERTEX
8
Layer 1
10
105.625968
20
37.206872
70
0
0
VERTEX
8
Layer 1
10
103.972768
20
35.391512
70
0
0
VERTEX
8
Layer 1
10
102.218407
20
33.621120
70
0
0
VERTEX
8
Layer 1
10
100.367270
20
31.898528
70
0
0
VERTEX
8
Layer 1
10
98.423984
20
30.226491
70
0
0
VERTEX
8
Layer 1
10
96.393406
20
28.607685
70
0
0
VERTEX
8
Layer 1
10
94.280611
20
27.044699
70
0
0
VERTEX
8
Layer 1
10
92.090881
20
25.540035
70
0
0
VERTEX
8
Layer 1
10
89.829688
20
24.096098
70
0
0
VERTEX
8
Layer 1
10
87.502685
20
22.715199
70
0
0
VERTEX
8
Layer 1
10
85.115687
20
21.399547
70
0
0
VERTEX
8
Layer 1
10
82.674660
20
20.151247
70
0
0
VERTEX
8
Layer 1
10
80.185707
20
18.972296
70
0
0
VERTEX
8
Layer 1
10
77.655049
20
17.864580
70
0
0
VERTEX
8
Layer 1
10
75.089009
20
16.829872
70
0
0
VERTEX
8
Layer 1
10
72.494003
20
15.869825
70
0
0
VERTEX
8
Layer 1
10
69.876517
20
14.985977
70
0
0
VERTEX
8
Layer 1
10
67.243092
20
14.179741
70
0
0
VERTEX
8
Layer 1
10
64.600312
20
13.452406
70
0
0
VERTEX
8
Layer 1
10
61.954781
20
12.805138
70
0
0
VERTEX
8
Layer 1
10
59.313112
20
12.238971
70
0
0
VERTEX
8
Layer 1
10
56.681907
20
11.754810
70
0
0
VERTEX
8
Layer 1
10
54.067745
20
11.353431
70
0
0
VERTEX
8
Layer 1
10
51.477158
20
11.035475
70
0
0
VERTEX
8
Layer 1
10
48.916621
20
10.801452
70
0
0
VERTEX
8
Layer 1
10
46.392535
20
10.651735
70
0
0
VERTEX
8
Layer 1
10
43.911209
20
10.586564
70
0
0
VERTEX
8
Layer 1
10
41.478844
20
10.606043
70
0
0
VERTEX
8
Layer 1
10
39.101521
20
10.710142
70
0
0
VERTEX
8
Layer 1
10
36.785181
20
10.898693
70
0
0
VERTEX
8
Layer 1
10
34.535613
20
11.171396
70
0
0
VERTEX
8
Layer 1
10
32.358442
20
11.527813
70
0
0
VERTEX
8
Layer 1
10
30.259108
20
11.967374
70
0
0
VERTEX
8
Layer 1
10
28.242858
20
12.489377
70
0
0
VERTEX
8
Layer 1
10
26.314733
20
13.092987
70
0
0
VERTEX
8
Layer 1
10
24.479552
20
13.777236
70
0
0
VERTEX
8
Layer 1
10
22.741901
20
14.541032
70
0
0
VERTEX
8
Layer 1
10
21.106124
20
15.383152
70
0
0
VERTEX
8
Layer 1
10
19.576309
20
16.302248
70
0
0
VERTEX
8
Layer 1
10
18.156281
20
17.296851
70
0
0
VERTEX
8
Layer 1
10
16.849588
20
18.365370
70
0
0
VERTEX
8
Layer 1
10
15.659496
20
19.506094
70
0
0
VERTEX
8
Layer 1
10
14.588981
20
20.717199
70
0
0
VERTEX
8
Layer 1
10
13.640717
20
21.996748
70
0
0
VERTEX
8
Layer 1
10
12.817076
20
23.342693
70
0
0
VERTEX
8
Layer 1
10
12.120115
20
24.752882
70
0
0
VERTEX
8
Layer 1
10
11.551577
20
26.225057
70
0
0
VERTEX
8
Layer 1
10
11.112883
20
27.756865
70
0
0
VERTEX
8
Layer 1
10
10.805129
20
29.345854
70
0
0
VERTEX
8
Layer 1
10
10.629085
20
30.989483
70
0
0
VERTEX
8
Layer 1
10
10.585190
20
32.685122
70
0
0
VERTEX
8
Layer 1
10
10.673555
20
34.430058
70
0
0
VERTEX
8
Layer 1
10
10.893958
20
36.221500
70
0
0
VERTEX
8
Layer 1
10
11.245848
20
38.056582
70
0
0
VERTEX
8
Layer 1
10
11.728346
20
39.932368
70
0
0
VERTEX
8
Layer 1
10
12.340247
20
41.845857
70
0
0
VERTEX
8
Layer 1
10
13.080020
20
43.793989
70
0
0
VERTEX
8
Layer 1
10
13.945816
20
45.773646
70
0
0
VERTEX
8
Layer 1
10
14.935472
20
47.781662
70
0
0
VERTEX
8
Layer 1
10
16.046514
20
49.814823
70
0
0
VERTEX
8
Layer 1
10
17.276164
20
51.869879
70
0
0
VERTEX
8
Layer 1
10
18.621350
20
53.943540
70
0
0
VERTEX
8
Layer 1
10
20.078709
20
56.032489
70
0
0
VERTEX
8
Layer 1
10
21.644598
20
58.133385
70
0
0
VERTEX
8
Layer 1
10
23.315104
20
60.242867
70
0
0
VERTEX
8
Layer 1
10
25.086051
20
62.357559
70
0
0
VERTEX
8
Layer 1
10
26.953012
20
64.474079
70
0
0
VERTEX
8
Layer 1
10
28.911322
20
66.589041
70
0
0
VERTEX
8
Layer 1
10
30.956085
20
68.699062
70
0
0
VERTEX
8
Layer 1
10
33.082191
20
70.800765
70
0
0
VERTEX
8
Layer 1
10
35.284326
20
72.890788
70
0
0
VERTEX
8
Layer 1
10
37.556984
20
74.965789
70
0
0
VERTEX
8
Layer 1
10
39.894487
20
77.022446
70
0
0
VERTEX
8
Layer 1
10
42.290991
20
79.057471
70
0
0
VERTEX
8
Layer 1
10
44.740506
20
81.067607
70
0
0
VERTEX
8
Layer 1
10
47.236909
20
83.049639
70
0
0
VERTEX
8
Layer 1
10
49.773962
20
85.000396
70
0
0
VERTEX
8
Layer 1
10
52.345323
20
86.916757
70
0
0
VERTEX
8
Layer 1
10
54.944564
20
88.795657
70
0
0
VERTEX
8
Layer 1
10
57.565190
20
90.634088
70
0
0
VERTEX
8
Layer 1
10
60.200649
20
92.429111
70
0
0
VERTEX
8
Layer 1
10
62.844354
20
94.177854
70
0
0
VERTEX
8
Layer 1
10
65.489698
20
95.877519
70
0
0
VERTEX
8
Layer 1
10
68.130069
20
97.525387
70
0
0
VERTEX
8
Layer 1
10
70.758866
20
99.118822
70
0
0
VERTEX
8
Layer 1
10
73.369520
20
100.655274
70
0
0
VERTEX
8
Layer 1
10
75.955506
20
102.132286
70
0
0
VERTEX
8
Layer 1
10
78.510358
20
103.547495
70
0
0
VERTEX
8
Layer 1
10
81.027693
20
104.898636
70
0
0
VERTEX
8
Layer 1
10
83.501217
20
106.183549
70
0
0
VERTEX
8
Layer 1
10
85.924748
20
107.400177
70
0
0
VERTEX
8
Layer 1
10
88.292229
20
108.546574
70
0
0
VERTEX
8
Layer 1
10
90.597742
20
109.620907
70
0
0
VERTEX
8
Layer 1
10
92.835525
20
110.621456
70
0
0
VERTEX
8
Layer 1
10
94.999984
20
111.546620
70
0
0
VERTEX
8
Layer 1
10
97.085709
20
112.394921
70
0
0
VERTEX
8
Layer 1
10
99.087487
20
113.165000
70
0
0
VERTEX
8
Layer 1
10
101.000315
20
113.855626
70
0
0
VERTEX
8
Layer 1
10
102.819411
20
114.465694
70
0
0
VERTEX
8
Layer 1
10
104.540229
20
114.994228
70
0
0
VERTEX
8
Layer 1
10
106.158468
20
115.440382
70
0
0
VERTEX
8
Layer 1
10
107.670083
20
115.803443
70
0
0
VERTEX
8
Layer 1
10
109.071295
20
116.082829
70
0
0
VERTEX
8
Layer 1
10
110.358602
20
116.278095
70
0
0
VERTEX
8
Layer 1
10
111.528787
20
116.388926
70
0
0
VERTEX
8
Layer 1
10
112.578925
20
116.415147
70
0
0
VERTEX
8
Layer 1
10
113.506391
20
116.356715
70
0
0
VERTEX
8
Layer 1
10
114.308867
20
116.213724
70
0
0
VERTEX
8
Layer 1
10
114.984347
20
115.986402
70
0
0
VERTEX
8
Layer 1
10
115.531143
20
115.675114
70
0
0
VERTEX
8
Layer 1
10
115.947887
20
115.280356
70
0
0
VERTEX
8
Layer 1
10
116.233540
20
114.802761
70
0
0
VERTEX
8
Layer 1
10
116.387385
20
114.243092
70
0
0
VERTEX
8
Layer 1
10
116.409040
20
113.602246
70
0
0
VERTEX
8
Layer 1
10
116.298449
20
112.881247
70
0
0
VERTEX
8
Layer 1
10
116.055889
20
112.081248
70
0
0
VERTEX
8
Layer 1
10
115.681967
20
111.203530
70
0
0
VERTEX
8
Layer 1
10
115.177617
20
110.249497
70
0
0
VERTEX
8
Layer 1
10
114.544099
20
109.220674
70
0
0
VERTEX
8
Layer 1
10
113.782998
20
108.118708
70
0
0
VERTEX
8
Layer 1
10
112.896215
20
106.945362
70
0
0
VERTEX
8
Layer 1
10
111.885967
20
105.702513
70
0
0
VERTEX
8
Layer 1
10
110.754780
20
104.392149
70
0
0
VERTEX
8
Layer 1
10
109.505479
20
103.016367
70
0
0
VERTEX
8
Layer 1
10
108.141189
20
101.577366
70
0
0
VERTEX
8
Layer 1
10
106.665319
20
100.077451
70
0
0
VERTEX
8
Layer 1
10
105.081558
20
98.519019
70
0
0
VERTEX
8
Layer 1
10
103.393864
20
96.904564
70
0
0
VERTEX
8
Layer 1
10
101.606456
20
95.236669
70
0
0
VERTEX
8
Layer 1
10
99.723802
20
93.518003
70
0
0
VERTEX
8
Layer 1
10
97.750607
20
91.751314
70
0
0
VERTEX
8
Layer 1
10
95.691803
20
89.939430
70
0
0
VERTEX
8
Layer 1
10
93.552536
20
88.085248
70
0
0
VERTEX
8
Layer 1
10
91.338154
20
86.191735
70
0
0
VERTEX
8
Layer 1
10
89.054190
20
84.261920
70
0
0
VERTEX
8
Layer 1
10
86.706354
20
82.298891
70
0
0
VERTEX
8
Layer 1
10
84.300513
20
80.305787
70
0
0
VERTEX
8
Layer 1
10
81.842682
20
78.285798
70
0
0
VERTEX
8
Layer 1
10
79.339004
20
76.242155
70
0
0
VERTEX
8
Layer 1
10
76.795737
20
74.178128
70
0
0
VERTEX
8
Layer 1
10
74.219236
20
72.097017
70
0
0
VERTEX
8
Layer 1
10
71.615943
20
70.002154
70
0
0
VERTEX
8
Layer 1
10
68.992364
20
67.896889
70
0
0
VERTEX
8
Layer 1
10
66.355057
20
65.784589
70
0
0
VERTEX
8
Layer 1
10
63.710614
20
63.668635
70
0
0
VERTEX
8
Layer 1
10
61.065644
20
61.552412
70
0
0
VERTEX
8
Layer 1
10
58.426758
20
59.439304
70
0
0
VERTEX
8
Layer 1
10
55.800553
20
57.332692
70
0
0
VERTEX
8
Layer 1
10
53.193592
20
55.235947
70
0
0
VERTEX
8
Layer 1
10
50.612391
20
53.152423
70
0
0
VERTEX
8
Layer 1
10
48.063403
20
51.085453
70
0
0
VERTEX
8
Layer 1
10
45.552998
20
49.038344
70
0
0
VERTEX
8
Layer 1
10
43.087451
20
47.014370
70
0
0
VERTEX
8
Layer 1
10
40.672924
20
45.016770
70
0
0
VERTEX
8
Layer 1
10
38.315453
20
43.048740
70
0
0
VERTEX
8
Layer 1
10
36.020930
20
41.113427
70
0
0
VERTEX
8
Layer 1
10
33.795090
20
39.213928
70
0
0
VERTEX
8
Layer 1
10
31.643497
20
37.353281
70
0
0
VERTEX
8
Layer 1
10
29.571528
20
35.534464
70
0
0
VERTEX
8
Layer 1
10
27.584363
20
33.760386
70
0
0
VERTEX
8
Layer 1
10
25.686967
20
32.033886
70
0
0
VERTEX
8
Layer 1
10
23.884085
20
30.357724
70
0
0
VERTEX
8
Layer 1
10
22.180221
20
28.734583
70
0
0
VERTEX
8
Layer 1
10
20.579635
20
27.167059
70
0
0
VERTEX
8
Layer 1
10
19.086328
20
25.657661
70
0
0
VERTEX
8
Layer 1
10
17.704031
20
24.208802
70
0
0
VERTEX
8
Layer 1
10
16.436200
20
22.822801
70
0
0
VERTEX
8
Layer 1
10
15.286004
20
21.501875
70
0
0
VERTEX
8
Layer 1
10
14.256318
20
20.248137
70
0
0
VERTEX
8
Layer 1
10
13.349715
20
19.063593
70
0
0
VERTEX
8
Layer 1
10
12.568461
20
17.950138
70
0
0
VERTEX
8
Layer 1
10
11.914510
20
16.909553
70
0
0
VERTEX
8
Layer 1
10
11.389495
20
15.943503
70
0
0
VERTEX
8
Layer 1
10
10.994729
20
15.053534
70
0
0
VERTEX
8
Layer 1
10
10.731199
20
14.241068
70
0
0
VERTEX
8
Layer 1
10
10.599563
20
13.507406
70
0
0
VERTEX
8
Layer 1
10
10.600151
20
12.853722
70
0
0
VERTEX
8
Layer 1
10
10.732960
20
12.281062
70
0
0
VERTEX
8
Layer 1
10
10.997659
20
11.790341
70
0
0
VERTEX
8
Layer 1
10
11.393587
20
11.382344
70
0
0
VERTEX
8
Layer 1
10
11.919753
20
11.057725
70
0
0
VERTEX
8
Layer 1
10
12.574843
20
10.817002
70
0
0
VERTEX
8
Layer 1
10
13.357219
20
10.660561
70
0
0
VERTEX
8
Layer 1
10
14.264925
20
10.588652
70
0
0
VERTEX
8
Layer 1
10
15.295694
20
10.601390
70
0
0
VERTEX
8
Layer 1
10
16.446947
20
10.698755
70
0
0
VERTEX
8
Layer 1
10
17.715809
20
10.880590
70
0
0
VERTEX
8
Layer 1
10
19.099108
20
11.146605
70
0
0
VERTEX
8
Layer 1
10
20.593385
20
11.496375
70
0
0
VERTEX
8
Layer 1
10
22.194906
20
11.929340
70
0
0
VERTEX
8
Layer 1
10
23.899668
20
12.444807
70
0
0
VERTEX
8
Layer 1
10
25.703410
20
13.041951
70
0
0
VERTEX
8
Layer 1
10
27.601624
20
13.719817
70
0
0
VERTEX
8
Layer 1
10
29.589565
20
14.477322
70
0
0
VERTEX
8
Layer 1
10
31.662264
20
15.313252
70
0
0
VERTEX
8
Layer 1
10
33.814540
20
16.226271
70
0
0
VERTEX
8
Layer 1
10
36.041015
20
17.214918
70
0
0
VERTEX
8
Layer 1
10
38.336123
20
18.277611
70
0
0
VERTEX
8
Layer 1
10
40.694127
20
19.412651
70
0
0
VERTEX
8
Layer 1
10
43.109133
20
20.618221
70
0
0
VERTEX
8
Layer 1
10
45.575106
20
21.892393
70
0
0
VERTEX
8
Layer 1
10
48.085882
20
23.233129
70
0
0
VERTEX
8
Layer 1
10
50.635184
20
24.638283
70
0
0
VERTEX
8
Layer 1
10
53.216642
20
26.105607
70
0
0
VERTEX
8
Layer 1
10
55.823803
20
27.632755
70
0
0
VERTEX
8
Layer 1
10
58.450150
20
29.217283
70
0
0
VERTEX
8
Layer 1
10
61.089118
20
30.856655
70
0
0
VERTEX
8
Layer 1
10
63.734113
20
32.548251
70
0
0
VERTEX
8
Layer 1
10
66.378522
20
34.289363
70
0
0
VERTEX
8
Layer 1
10
69.015736
20
36.077205
70
0
0
VERTEX
8
Layer 1
10
71.639164
20
37.908919
70
0
0
VERTEX
8
Layer 1
10
74.242247
20
39.781573
70
0
0
VERTEX
8
Layer 1
10
76.818481
20
41.692171
70
0
0
VERTEX
8
Layer 1
10
79.361424
20
43.637657
70
0
0
VERTEX
8
Layer 1
10
81.864723
20
45.614919
70
0
0
VERTEX
8
Layer 1
10
84.322119
20
47.620794
70
0
0
VERTEX
8
Layer 1
10
86.727470
20
49.652072
70
0
0
VERTEX
8
Layer 1
10
89.074765
20
51.705504
70
0
0
VERTEX
8
Layer 1
10
91.358135
20
53.777804
70
0
0
VERTEX
8
Layer 1
10
93.571875
20
55.865658
70
0
0
VERTEX
8
Layer 1
10
95.710450
20
57.965726
70
0
0
VERTEX
8
Layer 1
10
97.768516
20
60.074647
70
0
0
VERTEX
8
Layer 1
10
99.740929
20
62.189049
70
0
0
VERTEX
8
Layer 1
10
101.622757
20
64.305547
70
0
0
VERTEX
8
Layer 1
10
103.409299
20
66.420758
70
0
0
VERTEX
8
Layer 1
10
105.096087
20
68.531295
70
0
0
VERTEX
8
Layer 1
10
106.678907
20
70.633784
70
0
0
VERTEX
8
Layer 1
10
108.153802
20
72.724861
70
0
0
VERTEX
8
Layer 1
10
109.517086
20
74.801179
70
0
0
VERTEX
8
Layer 1
10
110.765351
20
76.859419
70
0
0
VERTEX
8
Layer 1
10
111.895476
20
78.896286
70
0
0
VERTEX
8
Layer 1
10
112.904638
20
80.908523
70
0
0
VERTEX
8
Layer 1
10
113.790314
20
82.892909
70
0
0
VERTEX
8
Layer 1
10
114.550290
20
84.846272
70
0
0
VERTEX
8
Layer 1
10
115.182667
20
86.765485
70
0
0
VERTEX
8
Layer 1
10
115.685864
20
88.647479
70
0
0
VERTEX
8
Layer 1
10
116.058623
20
90.489241
70
0
0
VERTEX
8
Layer 1
10
116.300012
20
92.287828
70
0
0
VERTEX
8
Layer 1
10
116.409429
20
94.040359
70
0
0
VERTEX
8
Layer 1
10
116.386600
20
95.744033
70
0
0
VERTEX
8
Layer 1
10
116.231582
20
97.396124
70
0
0
VERTEX
8
Layer 1
10
115.944762
20
98.993988
70
0
0
VERTEX
8
Layer 1
10
115.526857
20
100.535069
70
0
0
VERTEX
8
Layer 1
10
114.978912
20
102.016902
70
0
0
VERTEX
8
Layer 1
10
114.302296
20
103.437117
70
0
0
VERTEX
8
Layer 1
10
113.498701
20
104.793440
70
0
0
VERTEX
8
Layer 1
10
112.570135
20
106.083704
70
0
0
VERTEX
8
Layer 1
10
111.518918
20
107.305842
70
0
0
VERTEX
8
Layer 1
10
110.347680
20
108.457901
70
0
0
VERTEX
8
Layer 1
10
109.059346
20
109.538036
70
0
0
VERTEX
8
Layer 1
10
107.657138
20
110.544521
70
0
0
VERTEX
8
Layer 1
10
106.144559
20
111.475745
70
0
0
VERTEX
8
Layer 1
10
104.525391
20
112.330218
70
0
0
VERTEX
8
Layer 1
10
102.803681
20
113.106573
70
0
0
VERTEX
8
Layer 1
10
100.983732
20
113.803568
70
0
0
VERTEX
8
Layer 1
10
99.070093
20
114.420089
70
0
0
VERTEX
8
Layer 1
10
97.067546
20
114.955148
70
0
0
VERTEX
8
Layer 1
10
94.981099
20
115.407890
70
0
0
VERTEX
8
Layer 1
10
92.815965
20
115.777591
70
0
0
VERTEX
8
Layer 1
10
90.577555
20
116.063659
70
0
0
VERTEX
8
Layer 1
10
88.271466
20
116.265636
70
0
0
VERTEX
8
Layer 1
10
85.903461
20
116.383200
70
0
0
VERTEX
8
Layer 1
10
83.479459
20
116.416162
70
0
0
VERTEX
8
Layer 1
10
81.005519
20
116.364469
70
0
0
VERTEX
8
Layer 1
10
78.487823
20
116.228205
70
0
0
VERTEX
8
Layer 1
10
75.932666
20
116.007587
70
0
0
VERTEX
8
Layer 1
10
73.346433
20
115.702968
70
0
0
VERTEX
8
Layer 1
10
70.735589
20
115.314836
70
0
0
VERTEX
8
Layer 1
10
68.106659
20
114.843811
70
0
0
VERTEX
8
Layer 1
10
65.466215
20
114.290648
70
0
0
VERTEX
8
Layer 1
10
62.820857
20
113.656230
70
0
0
VERTEX
8
Layer 1
10
60.177196
20
112.941573
70
0
0
VERTEX
8
Layer 1
10
57.541839
20
112.147820
70
0
0
VERTEX
8
Layer 1
10
54.921375
20
111.276241
70
0
0
VERTEX
8
Layer 1
10
52.322353
20
110.328230
70
0
0
VERTEX
8
Layer 1
10
49.751269
20
109.305305
70
0
0
VERTEX
8
Layer 1
10
47.214549
20
108.209101
70
0
0
VERTEX
8
Layer 1
10
44.718535
20
107.041372
70
0
0
VERTEX
8
Layer 1
10
42.269464
20
105.803986
70
0
0
VERTEX
8
Layer 1
10
39.873458
20
104.498923
70
0
0
VERTEX
8
Layer 1
10
37.536506
20
103.128270
70
0
0
VERTEX
8
Layer 1
10
35.264448
20
101.694221
70
0
0
VERTEX
8
Layer 1
10
33.062965
20
100.199070
70
0
0
VERTEX
8
Layer 1
10
30.937559
20
98.645207
70
0
0
VERTEX
8
Layer 1
10
28.893541
20
97.035120
70
0
0
VERTEX
8
Layer 1
10
26.936022
20
95.371385
70
0
0
VERTEX
8
Layer 1
10
25.069893
20
93.656662
70
0
0
VERTEX
8
Layer 1
10
23.299819
20
91.893694
70
0
0
VERTEX
8
Layer 1
10
21.630224
20
90.085304
70
0
0
VERTEX
8
Layer 1
10
20.065282
20
88.234382
70
0
0
VERTEX
8
Layer 1
10
18.608904
20
86.343891
70
0
0
VERTEX
8
Layer 1
10
17.264730
20
84.416854
70
0
0
VERTEX
8
Layer 1
10
16.036119
20
82.456356
70
0
0
VERTEX
8
Layer 1
10
14.926144
20
80.465531
70
0
0
VERTEX
8
Layer 1
10
13.937578
20
78.447565
70
0
0
VERTEX
8
Layer 1
10
13.072892
20
76.405686
70
0
0
VERTEX
8
Layer 1
10
12.334247
20
74.343161
70
0
0
VERTEX
8
Layer 1
10
11.723489
20
72.263290
70
0
0
VERTEX
8
Layer 1
10
11.242146
20
70.169399
70
0
0
VERTEX
8
Layer 1
10
10.891420
20
68.064839
70
0
0
VERTEX
8
Layer 1
10
10.672188
20
65.952976
70
0
0
VERTEX
8
Layer 1
10
10.584998
20
63.837189
70
0
0
VERTEX
8
Layer 1
10
10.630067
20
61.720863
70
0
0
VERTEX
8
Layer 1
10
10.807284
20
59.607383
70
0
0
VERTEX
8
Layer 1
10
11.116204
20
57.500130
70
0
0
VERTEX
8
Layer 1
10
11.556057
20
55.402476
70
0
0
VERTEX
8
Layer 1
10
12.125742
20
53.317777
70
0
0
VERTEX
8
Layer 1
10
12.823836
20
51.249367
70
0
0
VERTEX
8
Layer 1
10
13.648594
20
49.200556
70
0
0
VERTEX
8
Layer 1
10
14.597954
20
47.174621
70
0
0
VERTEX
8
Layer 1
10
15.669544
20
45.174803
70
0
0
VERTEX
8
Layer 1
10
16.860684
20
43.204301
70
0
0
VERTEX
8
Layer 1
10
18.168399
20
41.266269
70
0
0
VERTEX
8
Layer 1
10
19.589419
20
39.363806
70
0
0
VERTEX
8
Layer 1
10
21.120192
20
37.499956
70
0
0
VERTEX
8
Layer 1
10
22.756892
20
35.677700
70
0
0
VERTEX
8
Layer 1
10
24.495428
20
33.899954
70
0
0
VERTEX
8
Layer 1
10
26.331456
20
32.169563
70
0
0
VERTEX
8
Layer 1
10
28.260385
20
30.489293
70
0
0
VERTEX
8
Layer 1
10
30.277395
20
28.861834
70
0
0
VERTEX
8
Layer 1
10
32.377444
20
27.289788
70
0
0
VERTEX
8
Layer 1
10
34.555283
20
25.775671
70
0
0
VERTEX
8
Layer 1
10
36.805468
20
24.321905
70
0
0
VERTEX
8
Layer 1
10
39.122375
20
22.930816
70
0
0
VERTEX
8
Layer 1
10
41.500214
20
21.604629
70
0
0
VERTEX
8
Layer 1
10
43.933041
20
20.345466
70
0
0
VERTEX
8
Layer 1
10
46.414774
20
19.155341
70
0
0
VERTEX
8
Layer 1
10
48.939212
20
18.036158
70
0
0
VERTEX
8
Layer 1
10
51.500043
20
16.989708
70
0
0
VERTEX
8
Layer 1
10
54.090869
20
16.017664
70
0
0
VERTEX
8
Layer 1
10
56.705211
20
15.121582
70
0
0
VERTEX
8
Layer 1
10
59.336537
20
14.302895
70
0
0
VERTEX
8
Layer 1
10
61.978270
20
13.562914
70
0
0
VERTEX
8
Layer 1
10
64.623806
20
12.902821
70
0
0
VERTEX
8
Layer 1
10
67.266532
20
12.323673
70
0
0
VERTEX
8
Layer 1
10
69.899844
20
11.826396
70
0
0
VERTEX
8
Layer 1
10
72.517160
20
11.411786
70
0
0
VERTEX
8
Layer 1
10
75.111937
20
11.080507
70
0
0
VERTEX
8
Layer 1
10
77.677690
20
10.833087
70
0
0
VERTEX
8
Layer 1
10
80.208006
20
10.669924
70
0
0
VERTEX
8
Layer 1
10
82.696561
20
10.591277
70
0
0
VERTEX
8
Layer 1
10
85.137134
20
10.597273
70
0
0
VERTEX
8
Layer 1
10
87.523625
20
10.687903
70
0
0
VERTEX
8
Layer 1
10
89.850069
20
10.863020
70
0
0
VERTEX
8
Layer 1
10
92.110652
20
11.122346
70
0
0
VERTEX
8
Layer 1
10
94.299723
20
11.465465
70
0
0
VERTEX
8
Layer 1
10
96.411810
20
11.891828
70
0
0
VERTEX
8
Layer 1
10
98.441635
20
12.400754
70
0
0
VERTEX
8
Layer 1
10
100.384124
20
12.991427
70
0
0
VERTEX
8
Layer 1
10
102.234421
20
13.662904
70
0
0
VERTEX
8
Layer 1
10
103.987903
20
14.414109
70
0
0
VERTEX
8
Layer 1
10
105.640185
20
15.243841
70
0
0
VERTEX
8
Layer 1
10
107.187139
20
16.150773
70
0
0
VERTEX
8
Layer 1
10
108.624897
20
17.133454
70
0
0
VERTEX
8
Layer 1
10
109.949867
20
18.190312
70
0
0
VERTEX
8
Layer 1
10
111.158736
20
19.319656
70
0
0
VERTEX
8
Layer 1
10
112.248482
20
20.519678
70
0
0
VERTEX
8
Layer 1
10
113.216383
20
21.788461
70
0
0
VERTEX
8
Layer 1
10
114.060018
20
23.123973
70
0
0
VERTEX
8
Layer 1
10
114.777280
20
24.524078
70
0
0
VERTEX
8
Layer 1
10
115.366375
20
25.986536
70
0
0
VERTEX
8
Layer 1
10
115.825830
20
27.509008
70
0
0
VERTEX
8
Layer 1
10
116.154498
20
29.089058
70
0
0
VERTEX
8
Layer 1
10
116.351557
20
30.724159
70
0
0
VERTEX
8
Layer 1
10
116.416515
20
32.411694
70
0
0
VERTEX
8
Layer 1
10
116.349208
20
34.148964
70
0
0
VERTEX
8
Layer 1
10
116.149806
20
35.933189
70
0
0
VERTEX
8
Layer 1
10
115.818807
20
37.761515
70
0
0
VERTEX
8
Layer 1
10
115.357037
20
39.631018
70
0
0
VERTEX
8
Layer 1
10
114.765652
20
41.538706
70
0
0
VERTEX
8
Layer 1
10
114.046129
20
43.481527
70
0
0
VERTEX
8
Layer 1
10
113.200267
20
45.456374
70
0
0
VERTEX
8
Layer 1
10
112.230180
20
47.460087
70
0
0
VERTEX
8
Layer 1
10
111.138293
20
49.489461
70
0
0
VERTEX
8
Layer 1
10
109.927335
20
51.541248
70
0
0
VERTEX
8
Layer 1
10
108.600332
20
53.612167
70
0
0
VERTEX
8
Layer 1
10
107.160602
20
55.698905
70
0
0
VERTEX
8
Layer 1
10
105.611742
20
57.798123
70
0
0
VERTEX
8
Layer 1
10
103.957626
20
59.906463
70
0
0
VERTEX
8
Layer 1
10
102.202385
20
62.020552
70
0
0
VERTEX
8
Layer 1
10
100.350409
20
64.137008
70
0
0
VERTEX
8
Layer 1
10
98.406326
20
66.252444
70
0
0
VERTEX
8
Layer 1
10
96.374995
20
68.363478
70
0
0
VERTEX
8
Layer 1
10
94.261494
20
70.466731
70
0
0
VERTEX
8
Layer 1
10
92.071104
20
72.558839
70
0
0
VERTEX
8
Layer 1
10
89.809302
20
74.636455
70
0
0
VERTEX
8
Layer 1
10
87.481740
20
76.696256
70
0
0
VERTEX
8
Layer 1
10
85.094235
20
78.734945
70
0
0
VERTEX
8
Layer 1
10
82.652756
20
80.749261
70
0
0
VERTEX
8
Layer 1
10
80.163405
20
82.735983
70
0
0
VERTEX
8
Layer 1
10
77.632404
20
84.691931
70
0
0
VERTEX
8
Layer 1
10
75.066079
20
86.613977
70
0
0
VERTEX
8
Layer 1
10
72.470845
20
88.499045
70
0
0
VERTEX
8
Layer 1
10
69.853188
20
90.344121
70
0
0
VERTEX
8
Layer 1
10
67.219652
20
92.146251
70
0
0
VERTEX
8
Layer 1
10
64.576817
20
93.902554
70
0
0
VERTEX
8
Layer 1
10
61.931292
20
95.610220
70
0
0
VERTEX
8
Layer 1
10
59.289687
20
97.266516
70
0
0
VERTEX
8
Layer 1
10
56.658605
20
98.868793
70
0
0
VERTEX
8
Layer 1
10
54.044623
20
100.414488
70
0
0
VERTEX
8
Layer 1
10
51.454274
20
101.901127
70
0
0
VERTEX
8
Layer 1
10
48.894033
20
103.326333
70
0
0
VERTEX
8
Layer 1
10
46.370300
20
104.687826
70
0
0
VERTEX
8
Layer 1
10
43.889381
20
105.983426
70
0
0
VERTEX
8
Layer 1
10
41.457479
20
107.211063
70
0
0
VERTEX
8
Layer 1
10
39.080671
20
108.368771
70
0
0
VERTEX
8
Layer 1
10
36.764899
20
109.454699
70
0
0
VERTEX
8
Layer 1
10
34.515950
20
110.467110
70
0
0
VERTEX
8
Layer 1
10
32.339446
20
111.404383
70
0
0
VERTEX
8
Layer 1
10
30.240827
20
112.265019
70
0
0
VERTEX
8
Layer 1
10
28.225338
20
113.047642
70
0
0
VERTEX
8
Layer 1
10
26.298018
20
113.751000
70
0
0
VERTEX
8
Layer 1
10
24.463683
20
114.373967
70
0
0
VERTEX
8
Layer 1
10
22.726918
20
114.915546
70
0
0
VERTEX
8
Layer 1
10
21.092064
20
115.374871
70
0
0
VERTEX
8
Layer 1
10
19.563208
20
115.751208
70
0
0
VERTEX
8
Layer 1
10
18.144171
20
116.043955
70
0
0
VERTEX
8
Layer 1
10
16.838500
20
116.252642
70
0
0
VERTEX
8
Layer 1
10
15.649458
20
116.376937
70
0
0
VERTEX
8
Layer 1
10
14.580017
20
116.416639
70
0
0
VERTEX
8
Layer 1
10
13.632850
20
116.371687
70
0
0
VERTEX
8
Layer 1
10
12.810325
20
116.242151
70
0
0
VERTEX
8
Layer 1
10
12.114498
20
116.028239
70
0
0
VERTEX
8
Layer 1
10
11.547108
20
115.730294
70
0
0
VERTEX
8
Layer 1
10
11.109572
20
115.348791
70
0
0
VERTEX
8
Layer 1
10
10.802985
20
114.884341
70
0
0
VERTEX
8
Layer 1
10
10.628113
20
114.337688
70
0
0
VERTEX
8
Layer 1
10
10.585393
20
113.709705
70
0
0
VERTEX
8
Layer 1
10
10.674932
20
113.001397
70
0
0
VERTEX
8
Layer 1
10
10.896505
20
112.213898
70
0
0
VERTEX
8
Layer 1
10
11.249560
20
111.348467
70
0
0
VERTEX
8
Layer 1
10
11.733214
20
110.406489
70
0
0
VERTEX
8
Layer 1
10
12.346257
20
109.389471
70
0
0
VERTEX
8
Layer 1
10
13.087158
20
108.299039
70
0
0
VERTEX
8
Layer 1
10
13.954064
20
107.136939
70
0
0
VERTEX
8
Layer 1
10
14.944809
20
105.905029
70
0
0
VERTEX
8
Layer 1
10
16.056917
20
104.605280
70
0
0
VERTEX
8
Layer 1
10
17.287608
20
103.239772
70
0
0
VERTEX
8
Layer 1
10
18.633805
20
101.810688
70
0
0
VERTEX
8
Layer 1
10
20.092144
20
100.320316
70
0
0
VERTEX
8
Layer 1
10
21.658980
20
98.771039
70
0
0
VERTEX
8
Layer 1
10
23.330397
20
97.165337
70
0
0
VERTEX
8
Layer 1
10
25.102216
20
95.505777
70
0
0
VERTEX
8
Layer 1
10
26.970010
20
93.795014
70
0
0
VERTEX
8
Layer 1
10
28.929110
20
92.035787
70
0
0
VERTEX
8
Layer 1
10
30.974618
20
90.230908
70
0
0
VERTEX
8
Layer 1
10
33.101423
20
88.383265
70
0
0
VERTEX
8
Layer 1
10
35.304208
20
86.495815
70
0
0
VERTEX
8
Layer 1
10
37.577468
20
84.571577
70
0
0
VERTEX
8
Layer 1
10
39.915521
20
82.613628
70
0
0
VERTEX
8
Layer 1
10
42.312522
20
80.625102
70
0
0
VERTEX
8
Layer 1
10
44.762480
20
78.609180
70
0
0
VERTEX
8
Layer 1
10
47.259273
20
76.569086
70
0
0
VERTEX
8
Layer 1
10
49.796659
20
74.508085
70
0
0
VERTEX
8
Layer 1
10
52.368295
20
72.429473
70
0
0
VERTEX
8
Layer 1
10
54.967755
20
70.336577
70
0
0
VERTEX
8
Layer 1
10
57.588541
20
68.232743
70
0
0
VERTEX
8
Layer 1
10
60.224102
20
66.121338
70
0
0
VERTEX
8
Layer 1
10
62.867851
20
64.005739
70
0
0
VERTEX
8
Layer 1
10
65.513180
20
61.889332
70
0
0
VERTEX
8
Layer 1
10
68.153477
20
59.775501
70
0
0
VERTEX
8
Layer 1
10
70.782143
20
57.667629
70
0
0
VERTEX
8
Layer 1
10
73.392606
20
55.569088
70
0
0
VERTEX
8
Layer 1
10
75.978343
20
53.483234
70
0
0
VERTEX
8
Layer 1
10
78.532891
20
51.413405
70
0
0
VERTEX
8
Layer 1
10
81.049864
20
49.362913
70
0
0
VERTEX
8
Layer 1
10
83.522971
20
47.335037
70
0
0
VERTEX
8
Layer 1
10
85.946031
20
45.333021
70
0
0
VERTEX
8
Layer 1
10
88.312987
20
43.360069
70
0
0
VERTEX
8
Layer 1
10
90.617924
20
41.419337
70
0
0
VERTEX
8
Layer 1
10
92.855080
20
39.513929
70
0
0
VERTEX
8
Layer 1
10
95.018863
20
37.646894
70
0
0
VERTEX
8
Layer 1
10
97.103865
20
35.821218
70
0
0
VERTEX
8
Layer 1
10
99.104875
20
34.039823
70
0
0
VERTEX
8
Layer 1
10
101.016891
20
32.305558
70
0
0
VERTEX
8
Layer 1
10
102.835134
20
30.621197
70
0
0
VERTEX
8
Layer 1
10
104.555060
20
28.989436
70
0
0
VERTEX
8
Layer 1
10
106.172369
20
27.412884
70
0
0
VERTEX
8
Layer 1
10
107.683019
20
25.894064
70
0
0
VERTEX
8
Layer 1
10
109.083234
20
24.435406
70
0
0
VERTEX
8
Layer 1
10
110.369515
20
23.039243
70
0
0
VERTEX
8
Layer 1
10
111.538647
20
21.707808
70
0
0
VERTEX
8
Layer 1
10
112.587706
20
20.443232
70
0
0
VERTEX
8
Layer 1
10
113.514072
20
19.247538
70
0
0
VERTEX
8
Layer 1
10
114.315428
20
18.122639
70
0
0
VERTEX
8
Layer 1
10
114.989772
20
17.070334
70
0
0
VERTEX
8
Layer 1
10
115.535418
20
16.092306
70
0
0
VERTEX
8
Layer 1
10
115.951003
20
15.190121
70
0
0
VERTEX
8
Layer 1
10
116.235487
20
14.365222
70
0
0
VERTEX
8
Layer 1
10
116.388160
20
13.618928
70
0
0
VERTEX
8
Layer 1
10
116.408639
20
12.952433
70
0
0
VERTEX
8
Layer 1
10
116.296875
20
12.366803
70
0
0
VERTEX
8
Layer 1
10
116.053145
20
11.862976
70
0
0
VERTEX
8
Layer 1
10
115.678060
20
11.441757
70
0
0
VERTEX
8
Layer 1
10
115.172557
20
11.103821
70
0
0
VERTEX
8
Layer 1
10
114.537898
20
10.849707
70
0
0
VERTEX
8
Layer 1
10
113.775672
20
10.679822
70
0
0
VERTEX
8
Layer 1
10
112.887782
20
10.594439
70
0
0
VERTEX
8
Layer 1
10
111.876449
20
10.593693
70
0
0
VERTEX
8
Layer 1
10
110.744199
20
10.677587
70
0
0
VERTEX
8
Layer 1
10
109.493863
20
10.845985
70
0
0
VERTEX
8
Layer 1
10
108.128567
20
11.098618
70
0
0
VERTEX
8
Layer 1
10
106.651722
20
11.435083
70
0
0
VERTEX
8
Layer 1
10
105.067020
20
11.854840
70
0
0
VERTEX
8
Layer 1
10
103.378421
20
12.357219
70
0
0
VERTEX
8
Layer 1
10
101.590148
20
12.941416
70
0
0
VERTEX
8
Layer 1
10
99.706668
20
13.606495
70
0
0
VERTEX
8
Layer 1
10
97.732691
20
14.351394
70
0
0
VERTEX
8
Layer 1
10
95.673149
20
15.174920
70
0
0
VERTEX
8
Layer 1
10
93.533192
20
16.075756
70
0
0
VERTEX
8
Layer 1
10
91.318166
20
17.052461
70
0
0
VERTEX
8
Layer 1
10
89.033610
20
18.103472
70
0
0
VERTEX
8
Layer 1
10
86.685232
20
19.227108
70
0
0
VERTEX
8
Layer 1
10
84.278904
20
20.421572
70
0
0
VERTEX
8
Layer 1
10
81.820638
20
21.684951
70
0
0
VERTEX
8
Layer 1
10
79.316581
20
23.015226
70
0
0
VERTEX
8
Layer 1
10
76.772990
20
24.410269
70
0
0
VERTEX
8
Layer 1
10
74.196223
20
25.867846
70
0
0
VERTEX
8
Layer 1
10
71.592721
20
27.385627
70
0
0
VERTEX
8
Layer 1
10
68.968992
20
28.961184
70
0
0
VERTEX
8
Layer 1
10
66.331592
20
30.591995
70
0
0
VERTEX
8
Layer 1
10
63.687115
20
32.275452
70
0
0
VERTEX
8
Layer 1
10
61.042170
20
34.008862
70
0
0
VERTEX
8
Layer 1
10
58.403368
20
35.789452
70
0
0
VERTEX
8
Layer 1
10
55.777305
20
37.614373
70
0
0
VERTEX
8
Layer 1
10
53.170544
20
39.480705
70
0
0
VERTEX
8
Layer 1
10
50.589601
20
41.385463
70
0
0
VERTEX
8
Layer 1
10
48.040928
20
43.325600
70
0
0
VERTEX
8
Layer 1
10
45.530893
20
45.298012
70
0
0
VERTEX
8
Layer 1
10
43.065772
20
47.299543
70
0
0
VERTEX
8
Layer 1
10
40.651726
20
49.326992
70
0
0
VERTEX
8
Layer 1
10
38.294788
20
51.377114
70
0
0
VERTEX
8
Layer 1
10
36.000850
20
53.446631
70
0
0
VERTEX
8
Layer 1
10
33.775646
20
55.532231
70
0
0
VERTEX
8
Layer 1
10
31.624736
20
57.630578
70
0
0
VERTEX
8
Layer 1
10
29.553498
20
59.738315
70
0
0
VERTEX
8
Layer 1
10
27.567109
20
61.852070
70
0
0
VERTEX
8
Layer 1
10
25.670532
20
63.968461
70
0
0
VERTEX
8
Layer 1
10
23.868510
20
66.084103
70
0
0
VERTEX
8
Layer 1
10
22.165545
20
68.195611
70
0
0
VERTEX
8
Layer 1
10
20.565895
20
70.299608
70
0
0
VERTEX
8
Layer 1
10
19.073557
20
72.392726
70
0
0
VERTEX
8
Layer 1
10
17.692262
20
74.471618
70
0
0
VERTEX
8
Layer 1
10
16.425463
20
76.532958
70
0
0
VERTEX
8
Layer 1
10
15.276325
20
78.573449
70
0
0
VERTEX
8
Layer 1
10
14.247721
20
80.589825
70
0
0
VERTEX
8
Layer 1
10
13.342221
20
82.578861
70
0
0
VERTEX
8
Layer 1
10
12.562090
20
84.537375
70
0
0
VERTEX
8
Layer 1
10
11.909277
20
86.462234
70
0
0
VERTEX
8
Layer 1
10
11.385414
20
88.350358
70
0
0
VERTEX
8
Layer 1
10
10.991810
20
90.198728
70
0
0
VERTEX
8
Layer 1
10
10.729449
20
92.004385
70
0
0
VERTEX
8
Layer 1
10
10.598986
20
93.764441
70
0
0
VERTEX
8
Layer 1
10
10.600748
20
95.476081
70
0
0
VERTEX
8
Layer 1
10
10.734731
20
97.136566
70
0
0
VERTEX
8
Layer 1
10
11.000599
20
98.743240
70
0
0
VERTEX
8
Layer 1
10
11.397688
20
100.293532
70
0
0
VERTEX
8
Layer 1
10
11.925006
20
101.784963
70
0
0
VERTEX
8
Layer 1
10
12.581234
20
103.215146
70
0
0
VERTEX
8
Layer 1
10
13.364732
20
104.581793
70
0
0
VERTEX
8
Layer 1
10
14.273542
20
105.882718
70
0
0
VERTEX
8
Layer 1
10
15.305392
20
107.115840
70
0
0
VERTEX
8
Layer 1
10
16.457704
20
108.279187
70
0
0
VERTEX
8
Layer 1
10
17.727596
20
109.370896
70
0
0
VERTEX
8
Layer 1
10
19.111896
20
110.389222
70
0
0
VERTEX
8
Layer 1
10
20.607142
20
111.332535
70
0
0
VERTEX
8
Layer 1
10
22.209599
20
112.199326
70
0
0
VERTEX
8
Layer 1
10
23.915259
20
112.988209
70
0
0
VERTEX
8
Layer 1
10
25.719860
20
113.697922
70
0
0
VERTEX
8
Layer 1
10
27.618892
20
114.327328
70
0
0
VERTEX
8
Layer 1
10
29.607608
20
114.875422
70
0
0
VERTEX
8
Layer 1
10
31.681037
20
115.341326
70
0
0
VERTEX
8
Layer 1
10
33.833997
20
115.724296
70
0
0
VERTEX
8
Layer 1
10
36.061105
20
116.023718
70
0
0
VERTEX
8
Layer 1
10
38.356797
20
116.239113
70
0
0
VERTEX
8
Layer 1
10
40.715334
20
116.370137
70
0
0
VERTEX
8
Layer 1
10
43.130820
20
116.416580
70
0
0
VERTEX
8
Layer 1
10
45.597218
20
116.378368
70
0
0
VERTEX
8
Layer 1
10
48.108363
20
116.255562
70
0
0
VERTEX
8
Layer 1
10
50.657980
20
116.048359
70
0
0
VERTEX
8
Layer 1
10
53.239694
20
115.757089
70
0
0
VERTEX
8
Layer 1
10
55.847054
20
115.382220
70
0
0
VERTEX
8
Layer 1
10
58.473542
20
114.924350
70
0
0
VERTEX
8
Layer 1
10
61.112593
20
114.384212
70
0
0
VERTEX
8
Layer 1
10
63.757612
20
113.762670
70
0
0
VERTEX
8
Layer 1
10
66.401986
20
113.060719
70
0
0
VERTEX
8
Layer 1
10
69.039107
20
112.279482
70
0
0
VERTEX
8
Layer 1
10
71.662382
20
111.420208
70
0
0
VERTEX
8
Layer 1
10
74.265256
20
110.484272
70
0
0
VERTEX
8
Layer 1
10
76.841222
20
109.473171
70
0
0
VERTEX
8
Layer 1
10
79.383841
20
108.388523
70
0
0
VERTEX
8
Layer 1
10
81.886760
20
107.232064
70
0
0
VERTEX
8
Layer 1
10
84.343720
20
106.005642
70
0
0
VERTEX
8
Layer 1
10
86.748582
20
104.711221
70
0
0
VERTEX
8
Layer 1
10
89.095334
20
103.350870
70
0
0
VERTEX
8
Layer 1
10
91.378112
20
101.926767
70
0
0
VERTEX
8
Layer 1
10
93.591208
20
100.441189
70
0
0
VERTEX
8
Layer 1
10
95.729091
20
98.896513
70
0
0
VERTEX
8
Layer 1
10
97.786419
20
97.295211
70
0
0
VERTEX
8
Layer 1
10
99.758048
20
95.639844
70
0
0
VERTEX
8
Layer 1
10
101.639051
20
93.933059
70
0
0
VERTEX
8
Layer 1
10
103.424726
20
92.177589
70
0
0
VERTEX
8
Layer 1
10
105.110609
20
90.376241
70
0
0
VERTEX
8
Layer 1
10
106.692487
20
88.531896
70
0
0
VERTEX
8
Layer 1
10
108.166407
20
86.647506
70
0
0
VERTEX
8
Layer 1
10
109.528684
20
84.726085
70
0
0
VERTEX
8
Layer 1
10
110.775912
20
82.770707
70
0
0
VERTEX
8
Layer 1
10
111.904975
20
80.784500
70
0
0
VERTEX
8
Layer 1
10
112.913051
20
78.770642
70
0
0
VERTEX
8
Layer 1
10
113.797620
20
76.732354
70
0
0
VERTEX
8
Layer 1
10
114.556471
20
74.672897
70
0
0
VERTEX
8
Layer 1
10
115.187707
20
72.595566
70
0
0
VERTEX
8
Layer 1
10
115.689750
20
70.503685
70
0
0
VERTEX
8
Layer 1
10
116.061346
20
68.400599
70
0
0
VERTEX
8
Layer 1
10
116.301566
20
66.289673
70
0
0
VERTEX
8
Layer 1
10
116.409809
20
64.174284
70
0
0
VERTEX
8
Layer 1
10
116.385805
20
62.057817
70
0
0
VERTEX
8
Layer 1
10
116.229614
20
59.943657
70
0
0
VERTEX
8
Layer 1
10
115.941626
20
57.835187
70
0
0
VERTEX
8
Layer 1
10
115.522561
20
55.735779
70
0
0
VERTEX
8
Layer 1
10
114.973466
20
53.648793
70
0
0
VERTEX
8
Layer 1
10
114.295715
20
51.577566
70
0
0
VERTEX
8
Layer 1
10
113.491000
20
49.525413
70
0
0
VERTEX
8
Layer 1
10
112.561334
20
47.495617
70
0
0
VERTEX
8
Layer 1
10
111.509040
20
45.491424
70
0
0
VERTEX
8
Layer 1
10
110.336748
20
43.516041
70
0
0
VERTEX
8
Layer 1
10
109.047388
20
41.572629
70
0
0
VERTEX
8
Layer 1
10
107.644184
20
39.664295
70
0
0
VERTEX
8
Layer 1
10
106.130642
20
37.794094
70
0
0
VERTEX
8
Layer 1
10
104.510545
20
35.965017
70
0
0
VERTEX
8
Layer 1
10
102.787943
20
34.179990
70
0
0
VERTEX
8
Layer 1
10
100.967141
20
32.441869
70
0
0
VERTEX
8
Layer 1
10
99.052691
20
30.753435
70
0
0
VERTEX
8
Layer 1
10
97.049377
20
29.117388
70
0
0
VERTEX
8
Layer 1
10
94.962207
20
27.536346
70
0
0
VERTEX
8
Layer 1
10
92.796398
20
26.012838
70
0
0
VERTEX
8
Layer 1
10
90.557363
20
24.549303
70
0
0
VERTEX
8
Layer 1
10
88.250699
20
23.148079
70
0
0
VERTEX
8
Layer 1
10
85.882170
20
21.811411
70
0
0
VERTEX
8
Layer 1
10
83.457697
20
20.541436
70
0
0
VERTEX
8
Layer 1
10
80.983341
20
19.340185
70
0
0
VERTEX
8
Layer 1
10
78.465285
20
18.209580
70
0
0
VERTEX
8
Layer 1
10
75.909823
20
17.151431
70
0
0
VERTEX
8
Layer 1
10
73.323343
20
16.167430
70
0
0
VERTEX
8
Layer 1
10
70.712310
20
15.259151
70
0
0
VERTEX
8
Layer 1
10
68.083249
20
14.428047
70
0
0
VERTEX
8
Layer 1
10
65.442732
20
13.675448
70
0
0
VERTEX
8
Layer 1
10
62.797360
20
13.002557
70
0
0
VERTEX
8
Layer 1
10
60.153743
20
12.410452
70
0
0
VERTEX
8
Layer 1
10
57.518490
20
11.900080
70
0
0
VERTEX
8
Layer 1
10
54.898188
20
11.472256
70
0
0
VERTEX
8
Layer 1
10
52.299385
20
11.127666
70
0
0
VERTEX
8
Layer 1
10
49.728578
20
10.866860
70
0
0
VERTEX
8
Layer 1
10
47.192192
20
10.690257
70
0
0
VERTEX
8
Layer 1
10
44.696567
20
10.598138
70
0
0
VERTEX
8
Layer 1
10
42.247941
20
10.590650
70
0
0
VERTEX
8
Layer 1
10
39.852433
20
10.667807
70
0
0
VERTEX
8
Layer 1
10
37.516032
20
10.829484
70
0
0
VERTEX
8
Layer 1
10
35.244577
20
11.075422
70
0
0
VERTEX
8
Layer 1
10
33.043746
20
11.405229
70
0
0
VERTEX
8
Layer 1
10
30.919039
20
11.818377
70
0
0
VERTEX
8
Layer 1
10
28.875767
20
12.314204
70
0
0
VERTEX
8
Layer 1
10
26.919038
20
12.891918
70
0
0
VERTEX
8
Layer 1
10
25.053742
20
13.550593
70
0
0
VERTEX
8
Layer 1
10
23.284541
20
14.289178
70
0
0
VERTEX
8
Layer 1
10
21.615858
20
15.106489
70
0
0
VERTEX
8
Layer 1
10
20.051863
20
16.001220
70
0
0
VERTEX
8
Layer 1
10
18.596466
20
16.971939
70
0
0
VERTEX
8
Layer 1
10
17.253304
20
18.017093
70
0
0
VERTEX
8
Layer 1
10
16.025735
20
19.135010
70
0
0
VERTEX
8
Layer 1
10
14.916826
20
20.323902
70
0
0
VERTEX
8
Layer 1
10
13.929349
20
21.581866
70
0
0
VERTEX
8
Layer 1
10
13.065774
20
22.906891
70
0
0
VERTEX
8
Layer 1
10
12.328257
20
24.296856
70
0
0
VERTEX
8
Layer 1
10
11.718643
20
25.749538
70
0
0
VERTEX
8
Layer 1
10
11.238455
20
27.262612
70
0
0
VERTEX
8
Layer 1
10
10.888893
20
28.833659
70
0
0
VERTEX
8
Layer 1
10
10.670832
20
30.460165
70
0
0
VERTEX
8
Layer 1
10
10.584816
20
32.139527
70
0
0
VERTEX
8
Layer 1
10
10.631060
20
33.869060
70
0
0
VERTEX
8
Layer 1
10
10.809449
20
35.645996
70
0
0
VERTEX
8
Layer 1
10
11.119536
20
37.467493
70
0
0
VERTEX
8
Layer 1
10
11.560547
20
39.330636
70
0
0
VERTEX
8
Layer 1
10
12.131380
20
41.232445
70
0
0
VERTEX
8
Layer 1
10
12.830607
20
43.169878
70
0
0
VERTEX
8
Layer 1
10
13.656481
20
45.139835
70
0
0
VERTEX
8
Layer 1
10
14.606937
20
47.139164
70
0
0
VERTEX
8
Layer 1
10
15.679601
20
49.164667
70
0
0
VERTEX
8
Layer 1
10
16.871791
20
51.213103
70
0
0
VERTEX
8
Layer 1
10
18.180526
20
53.281197
70
0
0
VERTEX
8
Layer 1
10
19.602537
20
55.365638
70
0
0
VERTEX
8
Layer 1
10
21.134268
20
57.463093
70
0
0
VERTEX
8
Layer 1
10
22.771891
20
59.570205
70
0
0
VERTEX
8
Layer 1
10
24.511313
20
61.683605
70
0
0
VERTEX
8
Layer 1
10
26.348186
20
63.799910
70
0
0
VERTEX
8
Layer 1
10
28.277919
20
65.915736
70
0
0
VERTEX
8
Layer 1
10
30.295689
20
68.027697
70
0
0
VERTEX
8
Layer 1
10
32.396452
20
70.132415
70
0
0
VERTEX
8
Layer 1
10
34.574958
20
72.226523
70
0
0
VERTEX
8
Layer 1
10
36.825760
20
74.306670
70
0
0
VERTEX
8
Layer 1
10
39.143235
20
76.369529
70
0
0
VERTEX
8
Layer 1
10
41.521588
20
78.411800
70
0
0
VERTEX
8
Layer 1
10
43.954876
20
80.430215
70
0
0
VERTEX
8
Layer 1
10
46.437016
20
82.421545
70
0
0
VERTEX
8
Layer 1
10
48.961805
20
84.382606
70
0
0
VERTEX
8
Layer 1
10
51.522932
20
86.310258
70
0
0
VERTEX
8
Layer 1
10
54.113994
20
88.201419
70
0
0
VERTEX
8
Layer 1
10
56.728517
20
90.053064
70
0
0
VERTEX
8
Layer 1
10
59.359964
20
91.862229
70
0
0
VERTEX
8
Layer 1
10
62.001759
20
93.626021
70
0
0
VERTEX
8
Layer 1
10
64.647299
20
95.341617
70
0
0
VERTEX
8
Layer 1
10
67.289971
20
97.006275
70
0
0
VERTEX
8
Layer 1
10
69.923170
20
98.617329
70
0
0
VERTEX
8
Layer 1
10
72.540314
20
100.172203
70
0
0
VERTEX
8
Layer 1
10
75.134862
20
101.668410
70
0
0
VERTEX
8
Layer 1
10
77.700328
20
103.103555
70
0
0
VERTEX
8
Layer 1
10
80.230301
20
104.475343
70
0
0
VERTEX
8
Layer 1
10
82.718457
20
105.781580
70
0
0
VERTEX
8
Layer 1
10
85.158576
20
107.020175
70
0
0
VERTEX
8
Layer 1
10
87.544560
20
108.189148
70
0
0
VERTEX
8
Layer 1
10
89.870445
20
109.286627
70
0
0
VERTEX
8
Layer 1
10
92.130417
20
110.310858
70
0
0
VERTEX
8
Layer 1
10
94.318828
20
111.260201
70
0
0
VERTEX
8
Layer 1
10
96.430208
20
112.133139
70
0
0
VERTEX
8
Layer 1
10
98.459279
20
112.928274
70
0
0
VERTEX
8
Layer 1
10
100.400970
20
113.644334
70
0
0
VERTEX
8
Layer 1
10
102.250428
20
114.280174
70
0
0
VERTEX
8
Layer 1
10
104.003029
20
114.834777
70
0
0
VERTEX
8
Layer 1
10
105.654394
20
115.307255
70
0
0
VERTEX
8
Layer 1
10
107.200395
20
115.696853
70
0
0
VERTEX
8
Layer 1
10
108.637167
20
116.002948
70
0
0
VERTEX
8
Layer 1
10
109.961119
20
116.225048
70
0
0
VERTEX
8
Layer 1
10
111.168943
20
116.362801
70
0
0
VERTEX
8
Layer 1
10
112.257619
20
116.415984
70
0
0
VERTEX
8
Layer 1
10
113.224426
20
116.384513
70
0
0
VERTEX
8
Layer 1
10
114.066948
20
116.268438
70
0
0
VERTEX
8
Layer 1
10
114.783078
20
116.067945
70
0
0
VERTEX
8
Layer 1
10
115.371028
20
115.783354
70
0
0
VERTEX
8
Layer 1
10
115.829326
20
115.415122
70
0
0
VERTEX
8
Layer 1
10
116.156829
20
114.963836
70
0
0
VERTEX
8
Layer 1
10
116.352716
20
114.430220
70
0
0
VERTEX
8
Layer 1
10
116.416499
20
113.815126
70
0
0
VERTEX
8
Layer 1
10
116.348018
20
113.119539
70
0
0
VERTEX
8
Layer 1
10
116.147445
20
112.344571
70
0
0
VERTEX
8
Layer 1
10
115.815280
20
111.491462
70
0
0
VERTEX
8
Layer 1
10
115.352354
20
110.561578
70
0
0
VERTEX
8
Layer 1
10
114.759823
20
109.556405
70
0
0
VERTEX
8
Layer 1
10
114.039170
20
108.477552
70
0
0
VERTEX
8
Layer 1
10
113.192195
20
107.326745
70
0
0
VERTEX
8
Layer 1
10
112.221015
20
106.105824
70
0
0
VERTEX
8
Layer 1
10
111.128058
20
104.816743
70
0
0
VERTEX
8
Layer 1
10
109.916055
20
103.461564
70
0
0
VERTEX
8
Layer 1
10
108.588036
20
102.042455
70
0
0
VERTEX
8
Layer 1
10
107.147320
20
100.561687
70
0
0
VERTEX
8
Layer 1
10
105.597509
20
99.021628
70
0
0
VERTEX
8
Layer 1
10
103.942475
20
97.424743
70
0
0
VERTEX
8
Layer 1
10
102.186356
20
95.773585
70
0
0
VERTEX
8
Layer 1
10
100.333541
20
94.070796
70
0
0
VERTEX
8
Layer 1
10
98.388662
20
92.319101
70
0
0
VERTEX
8
Layer 1
10
96.356578
20
90.521301
70
0
0
VERTEX
8
Layer 1
10
94.242370
20
88.680273
70
0
0
VERTEX
8
Layer 1
10
92.051322
20
86.798962
70
0
0
VERTEX
8
Layer 1
10
89.788910
20
84.880378
70
0
0
VERTEX
8
Layer 1
10
87.460790
20
82.927591
70
0
0
VERTEX
8
Layer 1
10
85.072780
20
80.943723
70
0
0
VERTEX
8
Layer 1
10
82.630849
20
78.931949
70
0
0
VERTEX
8
Layer 1
10
80.141100
20
76.895487
70
0
0
VERTEX
8
Layer 1
10
77.609757
20
74.837596
70
0
0
VERTEX
8
Layer 1
10
75.043147
20
72.761567
70
0
0
VERTEX
8
Layer 1
10
72.447685
20
70.670722
70
0
0
VERTEX
8
Layer 1
10
69.829859
20
68.568405
70
0
0
VERTEX
8
Layer 1
10
67.196210
20
66.457980
70
0
0
VERTEX
8
Layer 1
10
64.553323
20
64.342823
70
0
0
VERTEX
8
Layer 1
10
61.907803
20
62.226317
70
0
0
VERTEX
8
Layer 1
10
59.266262
20
60.111850
70
0
0
VERTEX
8
Layer 1
10
56.635304
20
58.002802
70
0
0
VERTEX
8
Layer 1
10
54.021503
20
55.902550
70
0
0
VERTEX
8
Layer 1
10
51.431393
20
53.814452
70
0
0
VERTEX
8
Layer 1
10
48.871449
20
51.741848
70
0
0
VERTEX
8
Layer 1
10
46.348068
20
49.688056
70
0
0
VERTEX
8
Layer 1
10
43.867557
20
47.656359
70
0
0
VERTEX
8
Layer 1
10
41.436118
20
45.650009
70
0
0
VERTEX
8
Layer 1
10
39.059826
20
43.672216
70
0
0
VERTEX
8
Layer 1
10
36.744622
20
41.726143
70
0
0
VERTEX
8
Layer 1
10
34.496292
20
39.814903
70
0
0
VERTEX
8
Layer 1
10
32.320456
20
37.941555
70
0
0
VERTEX
8
Layer 1
10
30.222553
20
36.109095
70
0
0
VERTEX
8
Layer 1
10
28.207825
20
34.320455
70
0
0
VERTEX
8
Layer 1
10
26.281310
20
32.578496
70
0
0
VERTEX
8
Layer 1
10
24.447822
20
30.886005
70
0
0
VERTEX
8
Layer 1
10
22.711943
20
29.245689
70
0
0
VERTEX
8
Layer 1
10
21.078013
20
27.660173
70
0
0
VERTEX
8
Layer 1
10
19.550116
20
26.131993
70
0
0
VERTEX
8
Layer 1
10
18.132071
20
24.663595
70
0
0
VERTEX
8
Layer 1
10
16.827421
20
23.257326
70
0
0
VERTEX
8
Layer 1
10
15.639429
20
21.915437
70
0
0
VERTEX
8
Layer 1
10
14.571063
20
20.640075
70
0
0
VERTEX
8
Layer 1
10
13.624993
20
19.433279
70
0
0
VERTEX
8
Layer 1
10
12.803585
20
18.296981
70
0
0
VERTEX
8
Layer 1
10
12.108891
20
17.232999
70
0
0
VERTEX
8
Layer 1
10
11.542648
20
16.243034
70
0
0
VERTEX
8
Layer 1
10
11.106271
20
15.328670
70
0
0
VERTEX
8
Layer 1
10
10.800851
20
14.491370
70
0
0
VERTEX
8
Layer 1
10
10.627152
20
13.732473
70
0
0
VERTEX
8
Layer 1
10
10.585606
20
13.053194
70
0
0
VERTEX
8
Layer 1
10
10.676319
20
12.454620
70
0
0
VERTEX
8
Layer 1
10
10.899063
20
11.937707
70
0
0
VERTEX
8
Layer 1
10
11.253282
20
11.503283
70
0
0
VERTEX
8
Layer 1
10
11.738091
20
11.152043
70
0
0
VERTEX
8
Layer 1
10
12.352277
20
10.884548
70
0
0
VERTEX
8
Layer 1
10
13.094305
20
10.701227
70
0
0
VERTEX
8
Layer 1
10
13.962322
20
10.602373
70
0
0
VERTEX
8
Layer 1
10
14.954156
20
10.588144
70
0
0
VERTEX
8
Layer 1
10
16.067330
20
10.658563
70
0
0
VERTEX
8
Layer 1
10
17.299060
20
10.813517
70
0
0
VERTEX
8
Layer 1
10
18.646269
20
11.052758
70
0
0
VERTEX
8
Layer 1
10
20.105588
20
11.375904
70
0
0
VERTEX
8
Layer 1
10
21.673371
20
11.782437
70
0
0
VERTEX
8
Layer 1
10
23.345698
20
12.271708
70
0
0
VERTEX
8
Layer 1
10
25.118390
20
12.842933
70
0
0
VERTEX
8
Layer 1
10
26.987015
20
13.495198
70
0
0
VERTEX
8
Layer 1
10
28.946904
20
14.227461
70
0
0
VERTEX
8
Layer 1
10
30.993157
20
15.038550
70
0
0
VERTEX
8
Layer 1
10
33.120661
20
15.927166
70
0
0
VERTEX
8
Layer 1
10
35.324096
20
16.891889
70
0
0
VERTEX
8
Layer 1
10
37.597957
20
17.931175
70
0
0
VERTEX
8
Layer 1
10
39.936559
20
19.043362
70
0
0
VERTEX
8
Layer 1
10
42.334057
20
20.226670
70
0
0
VERTEX
8
Layer 1
10
44.784459
20
21.479206
70
0
0
VERTEX
8
Layer 1
10
47.281639
20
22.798967
70
0
0
VERTEX
8
Layer 1
10
49.819357
20
24.183841
70
0
0
VERTEX
8
Layer 1
10
52.391270
20
25.631612
70
0
0
VERTEX
8
Layer 1
10
54.990948
20
27.139965
70
0
0
VERTEX
8
Layer 1
10
57.611894
20
28.706486
70
0
0
VERTEX
8
Layer 1
10
60.247557
20
30.328670
70
0
0
VERTEX
8
Layer 1
10
62.891349
20
32.003921
70
0
0
VERTEX
8
Layer 1
10
65.536662
20
33.729559
70
0
0
VERTEX
8
Layer 1
10
68.176885
20
35.502823
70
0
0
VERTEX
8
Layer 1
10
70.805417
20
37.320877
70
0
0
VERTEX
8
Layer 1
10
73.415690
20
39.180812
70
0
0
VERTEX
8
Layer 1
10
76.001178
20
41.079653
70
0
0
VERTEX
8
Layer 1
10
78.555420
20
43.014362
70
0
0
VERTEX
8
Layer 1
10
81.072031
20
44.981843
70
0
0
VERTEX
8
Layer 1
10
83.544721
20
46.978950
70
0
0
VERTEX
8
Layer 1
10
85.967309
20
49.002487
70
0
0
VERTEX
8
Layer 1
10
88.333740
20
51.049217
70
0
0
VERTEX
8
Layer 1
10
90.638100
20
53.115866
70
0
0
VERTEX
8
Layer 1
10
92.874629
20
55.199127
70
0
0
VERTEX
8
Layer 1
10
95.037736
20
57.295668
70
0
0
VERTEX
8
Layer 1
10
97.122014
20
59.402135
70
0
0
VERTEX
8
Layer 1
10
99.122255
20
61.515158
70
0
0
VERTEX
8
Layer 1
10
101.033459
20
63.631356
70
0
0
VERTEX
8
Layer 1
10
102.850849
20
65.747344
70
0
0
VERTEX
8
Layer 1
10
104.569882
20
67.859737
70
0
0
VERTEX
8
Layer 1
10
106.186261
20
69.965155
70
0
0
VERTEX
8
Layer 1
10
107.695946
20
72.060231
70
0
0
VERTEX
8
Layer 1
10
109.095165
20
74.141612
70
0
0
VERTEX
8
Layer 1
10
110.380419
20
76.205969
70
0
0
VERTEX
8
Layer 1
10
111.548496
20
78.250000
70
0
0
VERTEX
8
Layer 1
10
112.596477
20
80.270433
70
0
0
VERTEX
8
Layer 1
10
113.521742
20
82.264038
70
0
0
VERTEX
8
Layer 1
10
114.321979
20
84.227624
70
0
0
VERTEX
8
Layer 1
10
114.995187
20
86.158051
70
0
0
VERTEX
8
Layer 1
10
115.539683
20
88.052230
70
0
0
VERTEX
8
Layer 1
10
115.954108
20
89.907130
70
0
0
VERTEX
8
Layer 1
10
116.237424
20
91.719785
70
0
0
VERTEX
8
Layer 1
10
116.388924
20
93.487295
70
0
0
VERTEX
8
Layer 1
10
116.408228
20
95.206831
70
0
0
VERTEX
8
Layer 1
10
116.295290
20
96.875643
70
0
0
VERTEX
8
Layer 1
10
116.050391
20
98.491062
70
0
0
VERTEX
8
Layer 1
10
115.674143
20
100.050502
70
0
0
VERTEX
8
Layer 1
10
115.167486
20
101.551469
70
0
0
VERTEX
8
Layer 1
10
114.531688
20
102.991563
70
0
0
VERTEX
8
Layer 1
10
113.768336
20
104.368478
70
0
0
VERTEX
8
Layer 1
10
112.879340
20
105.680013
70
0
0
VERTEX
8
Layer 1
10
111.866921
20
106.924069
70
0
0
VERTEX
8
Layer 1
10
110.733610
20
108.098655
70
0
0
VERTEX
8
Layer 1
10
109.482239
20
109.201894
70
0
0
VERTEX
8
Layer 1
10
108.115936
20
110.232019
70
0
0
VERTEX
8
Layer 1
10
106.638116
20
111.187383
70
0
0
VERTEX
8
Layer 1
10
105.052473
20
112.066458
70
0
0
VERTEX
8
Layer 1
10
103.362971
20
112.867837
70
0
0
VERTEX
8
Layer 1
10
101.573832
20
113.590238
70
0
0
VERTEX
8
Layer 1
10
99.689528
20
114.232505
70
0
0
VERTEX
8
Layer 1
10
97.714768
20
114.793611
70
0
0
VERTEX
8
Layer 1
10
95.654489
20
115.272659
70
0
0
VERTEX
8
Layer 1
10
93.513841
20
115.668881
70
0
0
VERTEX
8
Layer 1
10
91.298174
20
115.981645
70
0
0
VERTEX
8
Layer 1
10
89.013025
20
116.210449
70
0
0
VERTEX
8
Layer 1
10
86.664107
20
116.354928
70
0
0
VERTEX
8
Layer 1
10
84.257290
20
116.414850
70
0
0
VERTEX
8
Layer 1
10
81.798591
20
116.390121
70
0
0
VERTEX
8
Layer 1
10
79.294155
20
116.280778
70
0
0
VERTEX
8
Layer 1
10
76.750241
20
116.086997
70
0
0
VERTEX
8
Layer 1
10
74.173208
20
115.809089
70
0
0
VERTEX
8
Layer 1
10
71.569498
20
115.447497
70
0
0
VERTEX
8
Layer 1
10
68.945618
20
115.002801
70
0
0
VERTEX
8
Layer 1
10
66.308127
20
114.475711
70
0
0
VERTEX
8
Layer 1
10
63.663616
20
113.867071
70
0
0
VERTEX
8
Layer 1
10
61.018696
20
113.177855
70
0
0
VERTEX
8
Layer 1
10
58.379979
20
112.409164
70
0
0
VERTEX
8
Layer 1
10
55.754058
20
111.562230
70
0
0
VERTEX
8
Layer 1
10
53.147498
20
110.638407
70
0
0
VERTEX
8
Layer 1
10
50.566813
20
109.639172
70
0
0
VERTEX
8
Layer 1
10
48.018455
20
108.566124
70
0
0
VERTEX
8
Layer 1
10
45.508792
20
107.420981
70
0
0
VERTEX
8
Layer 1
10
43.044098
20
106.205573
70
0
0
VERTEX
8
Layer 1
10
40.630533
20
104.921846
70
0
0
VERTEX
8
Layer 1
10
38.274129
20
103.571853
70
0
0
VERTEX
8
Layer 1
10
35.980776
20
102.157753
70
0
0
VERTEX
8
Layer 1
10
33.756207
20
100.681809
70
0
0
VERTEX
8
Layer 1
10
31.605982
20
99.146383
70
0
0
VERTEX
8
Layer 1
10
29.535475
20
97.553930
70
0
0
VERTEX
8
Layer 1
10
27.549862
20
95.906998
70
0
0
VERTEX
8
Layer 1
10
25.654104
20
94.208222
70
0
0
VERTEX
8
Layer 1
10
23.852942
20
92.460320
70
0
0
VERTEX
8
Layer 1
10
22.150877
20
90.666087
70
0
0
VERTEX
8
Layer 1
10
20.552162
20
88.828395
70
0
0
VERTEX
8
Layer 1
10
19.060795
20
86.950182
70
0
0
VERTEX
8
Layer 1
10
17.680502
20
85.034455
70
0
0
VERTEX
8
Layer 1
10
16.414734
20
83.084277
70
0
0
VERTEX
8
Layer 1
10
15.266655
20
81.102768
70
0
0
VERTEX
8
Layer 1
10
14.239133
20
79.093099
70
0
0
VERTEX
8
Layer 1
10
13.334738
20
77.058485
70
0
0
VERTEX
8
Layer 1
10
12.555729
20
75.002180
70
0
0
VERTEX
8
Layer 1
10
11.904055
20
72.927474
70
0
0
VERTEX
8
Layer 1
10
11.381343
20
70.837686
70
0
0
VERTEX
8
Layer 1
10
10.988901
20
68.736159
70
0
0
VERTEX
8
Layer 1
10
10.727709
20
66.626256
70
0
0
VERTEX
8
Layer 1
10
10.598420
20
64.511352
70
0
0
VERTEX
8
Layer 1
10
10.601357
20
62.394830
70
0
0
VERTEX
8
Layer 1
10
10.736513
20
60.280076
70
0
0
VERTEX
8
Layer 1
10
11.003550
20
58.170474
70
0
0
VERTEX
8
Layer 1
10
11.401800
20
56.069397
70
0
0
VERTEX
8
Layer 1
10
11.930269
20
53.980208
70
0
0
VERTEX
8
Layer 1
10
12.587635
20
51.906249
70
0
0
VERTEX
8
Layer 1
10
13.372255
20
49.850838
70
0
0
VERTEX
8
Layer 1
10
14.282168
20
47.817262
70
0
0
VERTEX
8
Layer 1
10
15.315100
20
45.808776
70
0
0
VERTEX
8
Layer 1
10
16.468469
20
43.828592
70
0
0
VERTEX
8
Layer 1
10
17.739392
20
41.879878
70
0
0
VERTEX
8
Layer 1
10
19.124693
20
39.965752
70
0
0
VERTEX
8
Layer 1
10
20.620909
20
38.089276
70
0
0
VERTEX
8
Layer 1
10
22.224299
20
36.253451
70
0
0
VERTEX
8
Layer 1
10
23.930858
20
34.461216
70
0
0
VERTEX
8
Layer 1
10
25.736318
20
32.715436
70
0
0
VERTEX
8
Layer 1
10
27.636168
20
31.018905
70
0
0
VERTEX
8
Layer 1
10
29.625658
20
29.374338
70
0
0
VERTEX
8
Layer 1
10
31.699816
20
27.784364
70
0
0
VERTEX
8
Layer 1
10
33.853459
20
26.251527
70
0
0
VERTEX
8
Layer 1
10
36.081201
20
24.778281
70
0
0
VERTEX
8
Layer 1
10
38.377477
20
23.366981
70
0
0
VERTEX
8
Layer 1
10
40.736545
20
22.019885
70
0
0
VERTEX
8
Layer 1
10
43.152510
20
20.739149
70
0
0
VERTEX
8
Layer 1
10
45.619333
20
19.526821
70
0
0
VERTEX
8
Layer 1
10
48.130848
20
18.384841
70
0
0
VERTEX
8
Layer 1
10
50.680778
20
17.315036
70
0
0
VERTEX
8
Layer 1
10
53.262748
20
16.319117
70
0
0
VERTEX
8
Layer 1
10
55.870307
20
15.398677
70
0
0
VERTEX
8
Layer 1
10
58.496935
20
14.555190
70
0
0
VERTEX
8
Layer 1
10
61.136069
20
13.790004
70
0
0
VERTEX
8
Layer 1
10
63.781111
20
13.104343
70
0
0
VERTEX
8
Layer 1
10
66.425450
20
12.499305
70
0
0
VERTEX
8
Layer 1
10
69.062476
20
11.975857
70
0
0
VERTEX
8
Layer 1
10
71.685599
20
11.534837
70
0
0
VERTEX
8
Layer 1
10
74.288263
20
11.176950
70
0
0
VERTEX
8
Layer 1
10
76.863961
20
10.902770
70
0
0
VERTEX
8
Layer 1
10
79.406255
20
10.712733
70
0
0
VERTEX
8
Layer 1
10
81.908793
20
10.607145
70
0
0
VERTEX
8
Layer 1
10
84.365317
20
10.586175
70
0
0
VERTEX
8
Layer 1
10
86.769689
20
10.649855
70
0
0
VERTEX
8
Layer 1
10
89.115899
20
10.798085
70
0
0
VERTEX
8
Layer 1
10
91.398082
20
11.030626
70
0
0
VERTEX
8
Layer 1
10
93.610535
20
11.347107
70
0
0
VERTEX
8
Layer 1
10
95.747726
20
11.747022
70
0
0
VERTEX
8
Layer 1
10
97.804315
20
12.229731
70
0
0
VERTEX
8
Layer 1
10
99.775160
20
12.794462
70
0
0
VERTEX
8
Layer 1
10
101.655337
20
13.440311
70
0
0
VERTEX
8
Layer 1
10
103.440144
20
14.166244
70
0
0
VERTEX
8
Layer 1
10
105.125122
20
14.971101
70
0
0
VERTEX
8
Layer 1
10
106.706059
20
15.853595
70
0
0
VERTEX
8
Layer 1
10
108.179003
20
16.812312
70
0
0
VERTEX
8
Layer 1
10
109.540272
20
17.845720
70
0
0
VERTEX
8
Layer 1
10
110.786465
20
18.952165
70
0
0
VERTEX
8
Layer 1
10
111.914465
20
20.129878
70
0
0
VERTEX
8
Layer 1
10
112.921455
20
21.376973
70
0
0
VERTEX
8
Layer 1
10
113.804916
20
22.691456
70
0
0
VERTEX
8
Layer 1
10
114.562641
20
24.071225
70
0
0
VERTEX
8
Layer 1
10
115.192736
20
25.514071
70
0
0
VERTEX
8
Layer 1
10
115.693626
20
27.017687
70
0
0
VERTEX
8
Layer 1
10
116.064059
20
28.579667
70
0
0
VERTEX
8
Layer 1
10
116.303109
20
30.197512
70
0
0
VERTEX
8
Layer 1
10
116.410178
20
31.868634
70
0
0
VERTEX
8
Layer 1
10
116.384999
20
33.590359
70
0
0
VERTEX
8
Layer 1
10
116.227635
20
35.359934
70
0
0
VERTEX
8
Layer 1
10
115.938479
20
37.174527
70
0
0
VERTEX
8
Layer 1
10
115.518255
20
39.031235
70
0
0
VERTEX
8
Layer 1
10
114.968011
20
40.927089
70
0
0
VERTEX
8
Layer 1
10
114.289124
20
42.859054
70
0
0
VERTEX
8
Layer 1
10
113.483290
20
44.824040
70
0
0
VERTEX
8
Layer 1
10
112.552524
20
46.818904
70
0
0
VERTEX
8
Layer 1
10
111.499152
20
48.840455
70
0
0
VERTEX
8
Layer 1
10
110.325807
20
50.885457
70
0
0
VERTEX
8
Layer 1
10
109.035422
20
52.950641
70
0
0
VERTEX
8
Layer 1
10
107.631221
20
55.032701
70
0
0
VERTEX
8
Layer 1
10
106.116716
20
57.128307
70
0
0
VERTEX
8
Layer 1
10
104.495690
20
59.234107
70
0
0
VERTEX
8
Layer 1
10
102.772197
20
61.346731
70
0
0
VERTEX
8
Layer 1
10
100.950543
20
63.462800
70
0
0
VERTEX
8
Layer 1
10
99.035282
20
65.578929
70
0
0
VERTEX
8
Layer 1
10
97.031201
20
67.691733
70
0
0
VERTEX
8
Layer 1
10
94.943310
20
69.797830
70
0
0
VERTEX
8
Layer 1
10
92.776826
20
71.893852
70
0
0
VERTEX
8
Layer 1
10
90.537166
20
73.976446
70
0
0
VERTEX
8
Layer 1
10
88.229926
20
76.042281
70
0
0
VERTEX
8
Layer 1
10
85.860874
20
78.088050
70
0
0
VERTEX
8
Layer 1
10
83.435932
20
80.110482
70
0
0
VERTEX
8
Layer 1
10
80.961160
20
82.106340
70
0
0
VERTEX
8
Layer 1
10
78.442743
20
84.072433
70
0
0
VERTEX
8
Layer 1
10
75.886978
20
86.005614
70
0
0
VERTEX
8
Layer 1
10
73.300251
20
87.902791
70
0
0
VERTEX
8
Layer 1
10
70.689029
20
89.760929
70
0
0
VERTEX
8
Layer 1
10
68.059838
20
91.577055
70
0
0
VERTEX
8
Layer 1
10
65.419249
20
93.348264
70
0
0
VERTEX
8
Layer 1
10
62.773863
20
95.071723
70
0
0
VERTEX
8
Layer 1
10
60.130291
20
96.744673
70
0
0
VERTEX
8
Layer 1
10
57.495142
20
98.364439
70
0
0
VERTEX
8
Layer 1
10
54.875002
20
99.928430
70
0
0
VERTEX
8
Layer 1
10
52.276420
20
101.434143
70
0
0
VERTEX
8
Layer 1
10
49.705890
20
102.879170
70
0
0
VERTEX
8
Layer 1
10
47.169838
20
104.261198
70
0
0
VERTEX
8
Layer 1
10
44.674604
20
105.578018
70
0
0
VERTEX
8
Layer 1
10
42.226422
20
106.827521
70
0
0
VERTEX
8
Layer 1
10
39.831413
20
108.007710
70
0
0
VERTEX
8
Layer 1
10
37.495563
20
109.116697
70
0
0
VERTEX
8
Layer 1
10
35.224711
20
110.152706
70
0
0
VERTEX
8
Layer 1
10
33.024532
20
111.114081
70
0
0
VERTEX
8
Layer 1
10
30.900525
20
111.999284
70
0
0
VERTEX
8
Layer 1
10
28.858000
20
112.806899
70
0
0
VERTEX
8
Layer 1
10
26.902062
20
113.535633
70
0
0
VERTEX
8
Layer 1
10
25.037599
20
114.184321
70
0
0
VERTEX
8
Layer 1
10
23.269272
20
114.751925
70
0
0
VERTEX
8
Layer 1
10
21.601501
20
115.237537
70
0
0
VERTEX
8
Layer 1
10
20.038454
20
115.640380
70
0
0
VERTEX
8
Layer 1
10
18.584038
20
115.959810
70
0
0
VERTEX
8
Layer 1
10
17.241888
20
116.195315
70
0
0
VERTEX
8
Layer 1
10
16.015359
20
116.346519
70
0
0
VERTEX
8
Layer 1
10
14.907517
20
116.413180
70
0
0
VERTEX
8
Layer 1
10
13.921131
20
116.395192
70
0
0
VERTEX
8
Layer 1
10
13.058666
20
116.292583
70
0
0
VERTEX
8
Layer 1
10
12.322277
20
116.105516
70
0
0
VERTEX
8
Layer 1
10
11.713806
20
115.834293
70
0
0
VERTEX
8
Layer 1
10
11.234774
20
115.479346
70
0
0
VERTEX
8
Layer 1
10
10.886377
20
115.041243
70
0
0
VERTEX
8
Layer 1
10
10.669486
20
114.520685
70
0
0
VERTEX
8
Layer 1
10
10.584644
20
113.918505
70
0
0
VERTEX
8
Layer 1
10
10.632063
20
113.235667
70
0
0
VERTEX
8
Layer 1
10
10.811624
20
112.473262
70
0
0
VERTEX
8
Layer 1
10
11.122878
20
111.632510
70
0
0
VERTEX
8
Layer 1
10
11.565048
20
110.714757
70
0
0
VERTEX
8
Layer 1
10
12.137027
20
109.721470
70
0
0
VERTEX
8
Layer 1
10
12.837387
20
108.654239
70
0
0
VERTEX
8
Layer 1
10
13.664377
20
107.514771
70
0
0
VERTEX
8
Layer 1
10
14.615930
20
106.304889
70
0
0
VERTEX
8
Layer 1
10
15.689668
20
105.026529
70
0
0
VERTEX
8
Layer 1
10
16.882906
20
103.681734
70
0
0
VERTEX
8
Layer 1
10
18.192662
20
102.272658
70
0
0
VERTEX
8
Layer 1
10
19.615663
20
100.801554
70
0
0
VERTEX
8
Layer 1
10
21.148352
20
99.270776
70
0
0
VERTEX
8
Layer 1
10
22.786898
20
97.682772
70
0
0
VERTEX
8
Layer 1
10
24.527205
20
96.040083
70
0
0
VERTEX
8
Layer 1
10
26.364923
20
94.345337
70
0
0
VERTEX
8
Layer 1
10
28.295460
20
92.601245
70
0
0
VERTEX
8
Layer 1
10
30.313989
20
90.810598
70
0
0
VERTEX
8
Layer 1
10
32.415466
20
88.976259
70
0
0
VERTEX
8
Layer 1
10
34.594638
20
87.101164
70
0
0
VERTEX
8
Layer 1
10
36.846058
20
85.188312
70
0
0
VERTEX
8
Layer 1
10
39.164099
20
83.240764
70
0
0
VERTEX
8
Layer 1
10
41.542967
20
81.261635
70
0
0
VERTEX
8
Layer 1
10
43.976716
20
79.254091
70
0
0
VERTEX
8
Layer 1
10
46.459262
20
77.221345
70
0
0
VERTEX
8
Layer 1
10
48.984401
20
75.166647
70
0
0
VERTEX
8
Layer 1
10
51.545822
20
73.093285
70
0
0
VERTEX
8
Layer 1
10
54.137122
20
71.004576
70
0
0
VERTEX
8
Layer 1
10
56.751823
20
68.903861
70
0
0
VERTEX
8
Layer 1
10
59.383392
20
66.794502
70
0
0
VERTEX
8
Layer 1
10
62.025249
20
64.679872
70
0
0
VERTEX
8
Layer 1
10
64.670793
20
62.563354
70
0
0
VERTEX
8
Layer 1
10
67.313410
20
60.448336
70
0
0
VERTEX
8
Layer 1
10
69.946495
20
58.338199
70
0
0
VERTEX
8
Layer 1
10
72.563467
20
56.236320
70
0
0
VERTEX
8
Layer 1
10
75.157785
20
54.146062
70
0
0
VERTEX
8
Layer 1
10
77.722964
20
52.070768
70
0
0
VERTEX
8
Layer 1
10
80.252593
20
50.013759
70
0
0
VERTEX
8
Layer 1
10
82.740350
20
47.978325
70
0
0
VERTEX
8
Layer 1
10
85.180015
20
45.967722
70
0
0
VERTEX
8
Layer 1
10
87.565491
20
43.985168
70
0
0
VERTEX
8
Layer 1
10
89.890816
20
42.033833
70
0
0
VERTEX
8
Layer 1
10
92.150177
20
40.116839
70
0
0
VERTEX
8
Layer 1
10
94.337928
20
38.237254
70
0
0
VERTEX
8
Layer 1
10
96.448599
20
36.398084
70
0
0
VERTEX
8
Layer 1
10
98.476916
20
34.602271
70
0
0
VERTEX
8
Layer 1
10
100.417809
20
32.852689
70
0
0
VERTEX
8
Layer 1
10
102.266427
20
31.152136
70
0
0
VERTEX
8
Layer 1
10
104.018148
20
29.503332
70
0
0
VERTEX
8
Layer 1
10
105.668595
20
27.908917
70
0
0
VERTEX
8
Layer 1
10
107.213642
20
26.371439
70
0
0
VERTEX
8
Layer 1
10
108.649427
20
24.893360
70
0
0
VERTEX
8
Layer 1
10
109.972362
20
23.477043
70
0
0
VERTEX
8
Layer 1
10
111.179141
20
22.124754
70
0
0
VERTEX
8
Layer 1
10
112.266746
20
20.838657
70
0
0
VERTEX
8
Layer 1
10
113.232459
20
19.620809
70
0
0
VERTEX
8
Layer 1
10
114.073867
20
18.473159
70
0
0
VERTEX
8
Layer 1
10
114.788867
20
17.397542
70
0
0
VERTEX
8
Layer 1
10
115.375671
20
16.395679
70
0
0
VERTEX
8
Layer 1
10
115.832812
20
15.469173
70
0
0
VERTEX
8
Layer 1
10
116.159149
20
14.619507
70
0
0
VERTEX
8
Layer 1
10
116.353865
20
13.848039
70
0
0
VERTEX
8
Layer 1
10
116.416473
20
13.156003
70
0
0
VERTEX
8
Layer 1
10
116.346818
20
12.544508
70
0
0
VERTEX
8
Layer 1
10
116.145073
20
12.014530
70
0
0
VERTEX
8
Layer 1
10
115.811742
20
11.566919
70
0
0
VERTEX
8
Layer 1
10
115.347659
20
11.202389
70
0
0
VERTEX
8
Layer 1
10
114.753984
20
10.921525
70
0
0
VERTEX
8
Layer 1
10
114.032201
20
10.724775
70
0
0
VERTEX
8
Layer 1
10
113.184113
20
10.612454
70
0
0
VERTEX
8
Layer 1
10
112.211840
20
10.584742
70
0
0
VERTEX
8
Layer 1
10
111.117813
20
10.641683
70
0
0
VERTEX
8
Layer 1
10
109.904766
20
10.783187
70
0
0
VERTEX
8
Layer 1
10
108.575731
20
11.009026
70
0
0
VERTEX
8
Layer 1
10
107.134030
20
11.318840
70
0
0
VERTEX
8
Layer 1
10
105.583267
20
11.712133
70
0
0
VERTEX
8
Layer 1
10
103.927317
20
12.188275
70
0
0
VERTEX
8
Layer 1
10
102.170319
20
12.746506
70
0
0
VERTEX
8
Layer 1
10
100.316666
20
13.385931
70
0
0
VERTEX
8
Layer 1
10
98.370990
20
14.105528
70
0
0
VERTEX
8
Layer 1
10
96.338154
20
14.904146
70
0
0
VERTEX
8
Layer 1
10
94.223240
20
15.780507
70
0
0
VERTEX
8
Layer 1
10
92.031534
20
16.733209
70
0
0
VERTEX
8
Layer 1
10
89.768514
20
17.760728
70
0
0
VERTEX
8
Layer 1
10
87.439835
20
18.861420
70
0
0
VERTEX
8
Layer 1
10
85.051320
20
20.033525
70
0
0
VERTEX
8
Layer 1
10
82.608937
20
21.275167
70
0
0
VERTEX
8
Layer 1
10
80.118792
20
22.584360
70
0
0
VERTEX
8
Layer 1
10
77.587108
20
23.959009
70
0
0
VERTEX
8
Layer 1
10
75.020213
20
25.396915
70
0
0
VERTEX
8
Layer 1
10
72.424524
20
26.895779
70
0
0
VERTEX
8
Layer 1
10
69.806528
20
28.453201
70
0
0
VERTEX
8
Layer 1
10
67.172768
20
30.066691
70
0
0
VERTEX
8
Layer 1
10
64.529829
20
31.733668
70
0
0
VERTEX
8
Layer 1
10
61.884315
20
33.451463
70
0
0
VERTEX
8
Layer 1
10
59.242839
20
35.217331
70
0
0
VERTEX
8
Layer 1
10
56.612004
20
37.028444
70
0
0
VERTEX
8
Layer 1
10
53.998385
20
38.881907
70
0
0
VERTEX
8
Layer 1
10
51.408515
20
40.774753
70
0
0
VERTEX
8
Layer 1
10
48.848867
20
42.703955
70
0
0
VERTEX
8
Layer 1
10
46.325839
20
44.666426
70
0
0
VERTEX
8
Layer 1
10
43.845737
20
46.659028
70
0
0
VERTEX
8
Layer 1
10
41.414761
20
48.678571
70
0
0
VERTEX
8
Layer 1
10
39.038986
20
50.721825
70
0
0
VERTEX
8
Layer 1
10
36.724350
20
52.785522
70
0
0
VERTEX
8
Layer 1
10
34.476640
20
54.866360
70
0
0
VERTEX
8
Layer 1
10
32.301473
20
56.961010
70
0
0
VERTEX
8
Layer 1
10
30.204285
20
59.066122
70
0
0
VERTEX
8
Layer 1
10
28.190319
20
61.178326
70
0
0
VERTEX
8
Layer 1
10
26.264609
20
63.294245
70
0
0
VERTEX
8
Layer 1
10
24.431968
20
65.410494
70
0
0
VERTEX
8
Layer 1
10
22.696976
20
67.523686
70
0
0
VERTEX
8
Layer 1
10
21.063971
20
69.630441
70
0
0
VERTEX
8
Layer 1
10
19.537033
20
71.727388
70
0
0
VERTEX
8
Layer 1
10
18.119979
20
73.811174
70
0
0
VERTEX
8
Layer 1
10
16.816352
20
75.878465
70
0
0
VERTEX
8
Layer 1
10
15.629409
20
77.925952
70
0
0
VERTEX
8
Layer 1
10
14.562118
20
79.950361
70
0
0
VERTEX
8
Layer 1
10
13.617146
20
81.948454
70
0
0
VERTEX
8
Layer 1
10
12.796854
20
83.917032
70
0
0
VERTEX
8
Layer 1
10
12.103294
20
85.852949
70
0
0
VERTEX
8
Layer 1
10
11.538199
20
87.753105
70
0
0
VERTEX
8
Layer 1
10
11.102981
20
89.614461
70
0
0
VERTEX
8
Layer 1
10
10.798728
20
91.434040
70
0
0
VERTEX
8
Layer 1
10
10.626200
20
93.208931
70
0
0
VERTEX
8
Layer 1
10
10.585830
20
94.936294
70
0
0
VERTEX
8
Layer 1
10
10.677717
20
96.613366
70
0
0
VERTEX
8
Layer 1
10
10.901632
20
98.237463
70
0
0
VERTEX
8
Layer 1
10
11.257015
20
99.805988
70
0
0
VERTEX
8
Layer 1
10
11.742978
20
101.316432
70
0
0
VERTEX
8
Layer 1
10
12.358307
20
102.766377
70
0
0
VERTEX
8
Layer 1
10
13.101463
20
104.153505
70
0
0
VERTEX
8
Layer 1
10
13.970589
20
105.475595
70
0
0
VERTEX
8
Layer 1
10
14.963513
20
106.730534
70
0
0
VERTEX
8
Layer 1
10
16.077752
20
107.916314
70
0
0
VERTEX
8
Layer 1
10
17.310522
20
109.031037
70
0
0
VERTEX
8
Layer 1
10
18.658742
20
110.072920
70
0
0
VERTEX
8
Layer 1
10
20.119041
20
111.040296
70
0
0
VERTEX
8
Layer 1
10
21.687769
20
111.931618
70
0
0
VERTEX
8
Layer 1
10
23.361007
20
112.745461
70
0
0
VERTEX
8
Layer 1
10
25.134570
20
113.480521
70
0
0
VERTEX
8
Layer 1
10
27.004027
20
114.135623
70
0
0
VERTEX
8
Layer 1
10
28.964705
20
114.709719
70
0
0
VERTEX
8
Layer 1
10
31.011703
20
115.201890
70
0
0
VERTEX
8
Layer 1
10
33.139905
20
115.611350
70
0
0
VERTEX
8
Layer 1
10
35.343990
20
115.937442
70
0
0
VERTEX
8
Layer 1
10
37.618451
20
116.179646
70
0
0
VERTEX
8
Layer 1
10
39.957602
20
116.337574
70
0
0
VERTEX
8
Layer 1
10
42.355597
20
116.410974
70
0
0
VERTEX
8
Layer 1
10
44.806441
20
116.399727
70
0
0
VERTEX
8
Layer 1
10
47.304009
20
116.303852
70
0
0
VERTEX
8
Layer 1
10
49.842059
20
116.123502
70
0
0
VERTEX
8
Layer 1
10
52.414246
20
115.858966
70
0
0
VERTEX
8
Layer 1
10
55.014142
20
115.510667
70
0
0
VERTEX
8
Layer 1
10
57.635247
20
115.079162
70
0
0
VERTEX
8
Layer 1
10
60.271012
20
114.565141
70
0
0
VERTEX
8
Layer 1
10
62.914847
20
113.969428
70
0
0
VERTEX
8
Layer 1
10
65.560144
20
113.292974
70
0
0
VERTEX
8
Layer 1
10
68.200292
20
112.536862
70
0
0
VERTEX
8
Layer 1
10
70.828691
20
111.702302
70
0
0
VERTEX
8
Layer 1
10
73.438772
20
110.790628
70
0
0
VERTEX
8
Layer 1
10
76.024011
20
109.803300
70
0
0
VERTEX
8
Layer 1
10
78.577947
20
108.741896
70
0
0
VERTEX
8
Layer 1
10
81.094195
20
107.608115
70
0
0
VERTEX
8
Layer 1
10
83.566467
20
106.403771
70
0
0
VERTEX
8
Layer 1
10
85.988583
20
105.130790
70
0
0
VERTEX
8
Layer 1
10
88.354488
20
103.791209
70
0
0
VERTEX
8
Layer 1
10
90.658271
20
102.387170
70
0
0
VERTEX
8
Layer 1
10
92.894172
20
100.920921
70
0
0
VERTEX
8
Layer 1
10
95.056602
20
99.394806
70
0
0
VERTEX
8
Layer 1
10
97.140157
20
97.811267
70
0
0
VERTEX
8
Layer 1
10
99.139629
20
96.172837
70
0
0
VERTEX
8
Layer 1
10
101.050020
20
94.482139
70
0
0
VERTEX
8
Layer 1
10
102.866556
20
92.741875
70
0
0
VERTEX
8
Layer 1
10
104.584696
20
90.954831
70
0
0
VERTEX
8
Layer 1
10
106.200145
20
89.123865
70
0
0
VERTEX
8
Layer 1
10
107.708865
20
87.251907
70
0
0
VERTEX
8
Layer 1
10
109.107087
20
85.341950
70
0
0
VERTEX
8
Layer 1
10
110.391314
20
83.397051
70
0
0
VERTEX
8
Layer 1
10
111.558337
20
81.420322
70
0
0
VERTEX
8
Layer 1
10
112.605239
20
79.414924
70
0
0
VERTEX
8
Layer 1
10
113.529403
20
77.384065
70
0
0
VERTEX
8
Layer 1
10
114.328520
20
75.330995
70
0
0
VERTEX
8
Layer 1
10
115.000592
20
73.258998
70
0
0
VERTEX
8
Layer 1
10
115.543938
20
71.171389
70
0
0
VERTEX
8
Layer 1
10
115.957202
20
69.071508
70
0
0
VERTEX
8
Layer 1
10
116.239350
20
66.962713
70
0
0
VERTEX
8
Layer 1
10
116.389677
20
64.848379
70
0
0
VERTEX
8
Layer 1
10
116.407807
20
62.731888
70
0
0
VERTEX
8
Layer 1
10
116.293695
20
60.616626
70
0
0
VERTEX
8
Layer 1
10
116.047626
20
58.505977
70
0
0
VERTEX
8
Layer 1
10
115.670215
20
56.403317
70
0
0
VERTEX
8
Layer 1
10
115.162406
20
54.312010
70
0
0
VERTEX
8
Layer 1
10
114.525467
20
52.235403
70
0
0
VERTEX
8
Layer 1
10
113.760991
20
50.176817
70
0
0
VERTEX
8
Layer 1
10
112.870888
20
48.139545
70
0
0
VERTEX
8
Layer 1
10
111.857384
20
46.126846
70
0
0
VERTEX
8
Layer 1
10
110.723011
20
44.141941
70
0
0
VERTEX
8
Layer 1
10
109.470605
20
42.188005
70
0
0
VERTEX
8
Layer 1
10
108.103296
20
40.268164
70
0
0
VERTEX
8
Layer 1
10
106.624502
20
38.385489
70
0
0
VERTEX
8
Layer 1
10
105.037919
20
36.542991
70
0
0
VERTEX
8
Layer 1
10
103.347513
20
34.743620
70
0
0
VERTEX
8
Layer 1
10
101.557508
20
32.990252
70
0
0
VERTEX
8
Layer 1
10
99.672380
20
31.285694
70
0
0
VERTEX
8
Layer 1
10
97.696839
20
29.632672
70
0
0
VERTEX
8
Layer 1
10
95.635823
20
28.033831
70
0
0
VERTEX
8
Layer 1
10
93.494485
20
26.491728
70
0
0
VERTEX
8
Layer 1
10
91.278175
20
25.008830
70
0
0
VERTEX
8
Layer 1
10
88.992435
20
23.587511
70
0
0
VERTEX
8
Layer 1
10
86.642976
20
22.230042
70
0
0
VERTEX
8
Layer 1
10
84.235672
20
20.938598
70
0
0
VERTEX
8
Layer 1
10
81.776540
20
19.715242
70
0
0
VERTEX
8
Layer 1
10
79.271725
20
18.561933
70
0
0
VERTEX
8
Layer 1
10
76.727489
20
17.480515
70
0
0
VERTEX
8
Layer 1
10
74.150191
20
16.472719
70
0
0
VERTEX
8
Layer 1
10
71.546273
20
15.540156
70
0
0
VERTEX
8
Layer 1
10
68.922243
20
14.684319
70
0
0
VERTEX
8
Layer 1
10
66.284660
20
13.906577
70
0
0
VERTEX
8
Layer 1
10
63.640117
20
13.208174
70
0
0
VERTEX
8
Layer 1
10
60.995223
20
12.590228
70
0
0
VERTEX
8
Layer 1
10
58.356590
20
12.053726
70
0
0
VERTEX
8
Layer 1
10
55.730813
20
11.599527
70
0
0
VERTEX
8
Layer 1
10
53.124454
20
11.228359
70
0
0
VERTEX
8
Layer 1
10
50.544028
20
10.940813
70
0
0
VERTEX
8
Layer 1
10
47.995986
20
10.737352
70
0
0
VERTEX
8
Layer 1
10
45.486695
20
10.618299
70
0
0
VERTEX
8
Layer 1
10
43.022428
20
10.583846
70
0
0
VERTEX
8
Layer 1
10
40.609344
20
10.634048
70
0
0
VERTEX
8
Layer 1
10
38.253474
20
10.768824
70
0
0
VERTEX
8
Layer 1
10
35.960707
20
10.987959
70
0
0
VERTEX
8
Layer 1
10
33.736775
20
11.291102
70
0
0
VERTEX
8
Layer 1
10
31.587234
20
11.677769
70
0
0
VERTEX
8
Layer 1
10
29.517459
20
12.147340
70
0
0
VERTEX
8
Layer 1
10
27.532622
20
12.699064
70
0
0
VERTEX
8
Layer 1
10
25.637684
20
13.332059
70
0
0
VERTEX
8
Layer 1
10
23.837382
20
14.045313
70
0
0
VERTEX
8
Layer 1
10
22.136217
20
14.837683
70
0
0
VERTEX
8
Layer 1
10
20.538438
20
15.707903
70
0
0
VERTEX
8
Layer 1
10
19.048042
20
16.654580
70
0
0
VERTEX
8
Layer 1
10
17.668751
20
17.676200
70
0
0
VERTEX
8
Layer 1
10
16.404015
20
18.771128
70
0
0
VERTEX
8
Layer 1
10
15.256994
20
19.937614
70
0
0
VERTEX
8
Layer 1
10
14.230555
20
21.173789
70
0
0
VERTEX
8
Layer 1
10
13.327264
20
22.477678
70
0
0
VERTEX
8
Layer 1
10
12.549378
20
23.847194
70
0
0
VERTEX
8
Layer 1
10
11.898843
20
25.280146
70
0
0
VERTEX
8
Layer 1
10
11.377283
20
26.774242
70
0
0
VERTEX
8
Layer 1
10
10.986002
20
28.327092
70
0
0
VERTEX
8
Layer 1
10
10.725979
20
29.936210
70
0
0
VERTEX
8
Layer 1
10
10.597864
20
31.599024
70
0
0
VERTEX
8
Layer 1
10
10.601975
20
33.312872
70
0
0
VERTEX
8
Layer 1
10
10.738305
20
35.075014
70
0
0
VERTEX
8
Layer 1
10
11.006510
20
36.882630
70
0
0
VERTEX
8
Layer 1
10
11.405922
20
38.732828
70
0
0
VERTEX
8
Layer 1
10
11.935542
20
40.622648
70
0
0
VERTEX
8
Layer 1
10
12.594046
20
42.549067
70
0
0
VERTEX
8
Layer 1
10
13.379788
20
44.509004
70
0
0
VERTEX
8
Layer 1
10
14.290805
20
46.499322
70
0
0
VERTEX
8
Layer 1
10
15.324818
20
48.516837
70
0
0
VERTEX
8
Layer 1
10
16.479244
20
50.558323
70
0
0
VERTEX
8
Layer 1
10
17.751198
20
52.620513
70
0
0
VERTEX
8
Layer 1
10
19.137499
20
54.700107
70
0
0
VERTEX
8
Layer 1
10
20.634683
20
56.793780
70
0
0
VERTEX
8
Layer 1
10
22.239008
20
58.898182
70
0
0
VERTEX
8
Layer 1
10
23.946464
20
61.009945
70
0
0
VERTEX
8
Layer 1
10
25.752783
20
63.125692
70
0
0
VERTEX
8
Layer 1
10
27.653450
20
65.242038
70
0
0
VERTEX
8
Layer 1
10
29.643715
20
67.355598
70
0
0
VERTEX
8
Layer 1
10
31.718602
20
69.462989
70
0
0
VERTEX
8
Layer 1
10
33.872926
20
71.560841
70
0
0
VERTEX
8
Layer 1
10
36.101303
20
73.645798
70
0
0
VERTEX
8
Layer 1
10
38.398161
20
75.714523
70
0
0
VERTEX
8
Layer 1
10
40.757761
20
77.763708
70
0
0
VERTEX
8
Layer 1
10
43.174204
20
79.790074
70
0
0
VERTEX
8
Layer 1
10
45.641452
20
81.790380
70
0
0
VERTEX
8
Layer 1
10
48.153336
20
83.761425
70
0
0
VERTEX
8
Layer 1
10
50.703578
20
85.700056
70
0
0
VERTEX
8
Layer 1
10
53.285805
20
87.603172
70
0
0
VERTEX
8
Layer 1
10
55.893561
20
89.467729
70
0
0
VERTEX
8
Layer 1
10
58.520330
20
91.290742
70
0
0
VERTEX
8
Layer 1
10
61.159545
20
93.069297
70
0
0
VERTEX
8
Layer 1
10
63.804609
20
94.800547
70
0
0
VERTEX
8
Layer 1
10
66.448912
20
96.481722
70
0
0
VERTEX
8
Layer 1
10
69.085845
20
98.110135
70
0
0
VERTEX
8
Layer 1
10
71.708815
20
99.683178
70
0
0
VERTEX
8
Layer 1
10
74.311267
20
101.198337
70
0
0
VERTEX
8
Layer 1
10
76.886697
20
102.653186
70
0
0
VERTEX
8
Layer 1
10
79.428666
20
104.045399
70
0
0
VERTEX
8
Layer 1
10
81.930822
20
105.372747
70
0
0
VERTEX
8
Layer 1
10
84.386911
20
106.633109
70
0
0
VERTEX
8
Layer 1
10
86.790792
20
107.824467
70
0
0
VERTEX
8
Layer 1
10
89.136459
20
108.944915
70
0
0
VERTEX
8
Layer 1
10
91.418048
20
109.992661
70
0
0
VERTEX
8
Layer 1
10
93.629856
20
110.966029
70
0
0
VERTEX
8
Layer 1
10
95.766354
20
111.863461
70
0
0
VERTEX
8
Layer 1
10
97.822204
20
112.683523
70
0
0
VERTEX
8
Layer 1
10
99.792265
20
113.424901
70
0
0
VERTEX
8
Layer 1
10
101.671615
20
114.086411
70
0
0
VERTEX
8
Layer 1
10
103.455555
20
114.666993
70
0
0
VERTEX
8
Layer 1
10
105.139628
20
115.165719
70
0
0
VERTEX
8
Layer 1
10
106.719622
20
115.581790
70
0
0
VERTEX
8
Layer 1
10
108.191590
20
115.914543
70
0
0
VERTEX
8
Layer 1
10
109.551852
20
116.163443
70
0
0
VERTEX
8
Layer 1
10
110.797008
20
116.328093
70
0
0
VERTEX
8
Layer 1
10
111.923945
20
116.408230
70
0
0
VERTEX
8
Layer 1
10
112.929848
20
116.403725
70
0
0
VERTEX
8
Layer 1
10
113.812202
20
116.314585
70
0
0
VERTEX
8
Layer 1
10
114.568802
20
116.140953
70
0
0
VERTEX
8
Layer 1
10
115.197756
20
115.883107
70
0
0
VERTEX
8
Layer 1
10
115.697492
20
115.541460
70
0
0
VERTEX
8
Layer 1
10
116.066761
20
115.116557
70
0
0
VERTEX
8
Layer 1
10
116.304641
20
114.609079
70
0
0
VERTEX
8
Layer 1
10
116.410536
20
114.019838
70
0
0
VERTEX
8
Layer 1
10
116.384183
20
113.349776
70
0
0
VERTEX
8
Layer 1
10
116.225646
20
112.599965
70
0
0
VERTEX
8
Layer 1
10
115.935323
20
111.771604
70
0
0
VERTEX
8
Layer 1
10
115.513938
20
110.866020
70
0
0
VERTEX
8
Layer 1
10
114.962545
20
109.884660
70
0
0
VERTEX
8
Layer 1
10
114.282523
20
108.829094
70
0
0
VERTEX
8
Layer 1
10
113.475570
20
107.701012
70
0
0
VERTEX
8
Layer 1
10
112.543705
20
106.502218
70
0
0
VERTEX
8
Layer 1
10
111.489255
20
105.234629
70
0
0
VERTEX
8
Layer 1
10
110.314857
20
103.900274
70
0
0
VERTEX
8
Layer 1
10
109.023446
20
102.501288
70
0
0
VERTEX
8
Layer 1
10
107.618250
20
101.039907
70
0
0
VERTEX
8
Layer 1
10
106.102782
20
99.518471
70
0
0
VERTEX
8
Layer 1
10
104.480828
20
97.939414
70
0
0
VERTEX
8
Layer 1
10
102.756443
20
96.305261
70
0
0
VERTEX
8
Layer 1
10
100.933938
20
94.618626
70
0
0
VERTEX
8
Layer 1
10
99.017866
20
92.882208
70
0
0
VERTEX
8
Layer 1
10
97.013019
20
91.098786
70
0
0
VERTEX
8
Layer 1
10
94.924406
20
89.271211
70
0
0
VERTEX
8
Layer 1
10
92.757249
20
87.402408
70
0
0
VERTEX
8
Layer 1
10
90.516963
20
85.495366
70
0
0
VERTEX
8
Layer 1
10
88.209149
20
83.553137
70
0
0
VERTEX
8
Layer 1
10
85.839574
20
81.578827
70
0
0
VERTEX
8
Layer 1
10
83.414162
20
79.575595
70
0
0
VERTEX
8
Layer 1
10
80.938975
20
77.546645
70
0
0
VERTEX
8
Layer 1
10
78.420199
20
75.495224
70
0
0
VERTEX
8
Layer 1
10
75.864131
20
73.424613
70
0
0
VERTEX
8
Layer 1
10
73.277158
20
71.338125
70
0
0
VERTEX
8
Layer 1
10
70.665747
20
69.239098
70
0
0
VERTEX
8
Layer 1
10
68.036425
20
67.130890
70
0
0
VERTEX
8
Layer 1
10
65.395765
20
65.016873
70
0
0
VERTEX
8
Layer 1
10
62.750366
20
62.900429
70
0
0
VERTEX
8
Layer 1
10
60.106840
20
60.784945
70
0
0
VERTEX
8
Layer 1
10
57.471796
20
58.673805
70
0
0
VERTEX
8
Layer 1
10
54.851818
20
56.570386
70
0
0
VERTEX
8
Layer 1
10
52.253456
20
54.478052
70
0
0
VERTEX
8
Layer 1
10
49.683205
20
52.400152
70
0
0
VERTEX
8
Layer 1
10
47.147488
20
50.340010
70
0
0
VERTEX
8
Layer 1
10
44.652644
20
48.300920
70
0
0
VERTEX
8
Layer 1
10
42.204908
20
46.286146
70
0
0
VERTEX
8
Layer 1
10
39.810398
20
44.298911
70
0
0
VERTEX
8
Layer 1
10
37.475100
20
42.342394
70
0
0
VERTEX
8
Layer 1
10
35.204851
20
40.419724
70
0
0
VERTEX
8
Layer 1
10
33.005324
20
38.533978
70
0
0
VERTEX
8
Layer 1
10
30.882018
20
36.688173
70
0
0
VERTEX
8
Layer 1
10
28.840240
20
34.885260
70
0
0
VERTEX
8
Layer 1
10
26.885093
20
33.128126
70
0
0
VERTEX
8
Layer 1
10
25.021464
20
31.419580
70
0
0
VERTEX
8
Layer 1
10
23.254011
20
29.762356
70
0
0
VERTEX
8
Layer 1
10
21.587152
20
28.159105
70
0
0
VERTEX
8
Layer 1
10
20.025052
20
26.612392
70
0
0
VERTEX
8
Layer 1
10
18.571618
20
25.124692
70
0
0
VERTEX
8
Layer 1
10
17.230481
20
23.698384
70
0
0
VERTEX
8
Layer 1
10
16.004993
20
22.335750
70
0
0
VERTEX
8
Layer 1
10
14.898218
20
21.038970
70
0
0
VERTEX
8
Layer 1
10
13.912922
20
19.810119
70
0
0
VERTEX
8
Layer 1
10
13.051567
20
18.651163
70
0
0
VERTEX
8
Layer 1
10
12.316308
20
17.563955
70
0
0
VERTEX
8
Layer 1
10
11.708980
20
16.550236
70
0
0
VERTEX
8
Layer 1
10
11.231103
20
15.611626
70
0
0
VERTEX
8
Layer 1
10
10.883871
20
14.749627
70
0
0
VERTEX
8
Layer 1
10
10.668151
20
13.965619
70
0
0
VERTEX
8
Layer 1
10
10.584483
20
13.260856
70
0
0
VERTEX
8
Layer 1
10
10.633077
20
12.636464
70
0
0
VERTEX
8
Layer 1
10
10.813810
20
12.093443
70
0
0
VERTEX
8
Layer 1
10
11.126230
20
11.632662
70
0
0
VERTEX
8
Layer 1
10
11.569558
20
11.254858
70
0
0
VERTEX
8
Layer 1
10
12.142685
20
10.960635
70
0
0
VERTEX
8
Layer 1
10
12.844178
20
10.750464
70
0
0
VERTEX
8
Layer 1
10
13.672284
20
10.624681
70
0
0
VERTEX
8
Layer 1
10
14.624933
20
10.583488
70
0
0
VERTEX
8
Layer 1
10
15.699744
20
10.626949
70
0
0
VERTEX
8
Layer 1
10
16.894030
20
10.754997
70
0
0
VERTEX
8
Layer 1
10
18.204807
20
10.967425
70
0
0
VERTEX
8
Layer 1
10
19.628799
20
11.263894
70
0
0
VERTEX
8
Layer 1
10
21.162445
20
11.643930
70
0
0
VERTEX
8
Layer 1
10
22.801913
20
12.106925
70
0
0
VERTEX
8
Layer 1
10
24.543104
20
12.652138
70
0
0
VERTEX
8
Layer 1
10
26.381668
20
13.278697
70
0
0
VERTEX
8
Layer 1
10
28.313008
20
13.985599
70
0
0
VERTEX
8
Layer 1
10
30.332296
20
14.771714
70
0
0
VERTEX
8
Layer 1
10
32.434487
20
15.635784
70
0
0
VERTEX
8
Layer 1
10
34.614325
20
16.576427
70
0
0
VERTEX
8
Layer 1
10
36.866361
20
17.592137
70
0
0
VERTEX
8
Layer 1
10
39.184968
20
18.681290
70
0
0
VERTEX
8
Layer 1
10
41.564350
20
19.842144
70
0
0
VERTEX
8
Layer 1
10
43.998559
20
21.072841
70
0
0
VERTEX
8
Layer 1
10
46.481511
20
22.371413
70
0
0
VERTEX
8
Layer 1
10
49.007001
20
23.735782
70
0
0
VERTEX
8
Layer 1
10
51.568715
20
25.163765
70
0
0
VERTEX
8
Layer 1
10
54.160251
20
26.653078
70
0
0
VERTEX
8
Layer 1
10
56.775131
20
28.201339
70
0
0
VERTEX
8
Layer 1
10
59.406820
20
29.806070
70
0
0
VERTEX
8
Layer 1
10
62.048739
20
31.464704
70
0
0
VERTEX
8
Layer 1
10
64.694286
20
33.174588
70
0
0
VERTEX
8
Layer 1
10
67.336847
20
34.932986
70
0
0
VERTEX
8
Layer 1
10
69.969818
20
36.737085
70
0
0
VERTEX
8
Layer 1
10
72.586618
20
38.584000
70
0
0
VERTEX
8
Layer 1
10
75.180705
20
40.470775
70
0
0
VERTEX
8
Layer 1
10
77.745597
20
42.394392
70
0
0
VERTEX
8
Layer 1
10
80.274882
20
44.351774
70
0
0
VERTEX
8
Layer 1
10
82.762238
20
46.339788
70
0
0
VERTEX
8
Layer 1
10
85.201449
20
48.355256
70
0
0
VERTEX
8
Layer 1
10
87.586417
20
50.394952
70
0
0
VERTEX
8
Layer 1
10
89.911181
20
52.455614
70
0
0
VERTEX
8
Layer 1
10
92.169931
20
54.533944
70
0
0
VERTEX
8
Layer 1
10
94.357021
20
56.626618
70
0
0
VERTEX
8
Layer 1
10
96.466984
20
58.730288
70
0
0
VERTEX
8
Layer 1
10
98.494547
20
60.841589
70
0
0
VERTEX
8
Layer 1
10
100.434641
20
62.957143
70
0
0
VERTEX
8
Layer 1
10
102.282418
20
65.073566
70
0
0
VERTEX
8
Layer 1
10
104.033258
20
67.187471
70
0
0
VERTEX
8
Layer 1
10
105.682787
20
69.295477
70
0
0
VERTEX
8
Layer 1
10
107.226880
20
71.394212
70
0
0
VERTEX
8
Layer 1
10
108.661679
20
73.480318
70
0
0
VERTEX
8
Layer 1
10
109.983596
20
75.550457
70
0
0
VERTEX
8
Layer 1
10
111.189329
20
77.601319
70
0
0
VERTEX
8
Layer 1
10
112.275863
20
79.629622
70
0
0
VERTEX
8
Layer 1
10
113.240483
20
81.632121
70
0
0
VERTEX
8
Layer 1
10
114.080777
20
83.605612
70
0
0
VERTEX
8
Layer 1
10
114.794645
20
85.546939
70
0
0
VERTEX
8
Layer 1
10
115.380303
20
87.452995
70
0
0
VERTEX
8
Layer 1
10
115.836288
20
89.320732
70
0
0
VERTEX
8
Layer 1
10
116.161458
20
91.147162
70
0
0
VERTEX
8
Layer 1
10
116.355003
20
92.929362
70
0
0
VERTEX
8
Layer 1
10
116.416437
20
94.664481
70
0
0
VERTEX
8
Layer 1
10
116.345607
20
96.349745
70
0
0
VERTEX
8
Layer 1
10
116.142690
20
97.982455
70
0
0
VERTEX
8
Layer 1
10
115.808194
20
99.560001
70
0
0
VERTEX
8
Layer 1
10
115.342955
20
101.079859
70
0
0
VERTEX
8
Layer 1
10
114.748135
20
102.539598
70
0
0
VERTEX
8
Layer 1
10
114.025221
20
103.936881
70
0
0
VERTEX
8
Layer 1
10
113.176021
20
105.269474
70
0
0
VERTEX
8
Layer 1
10
112.202655
20
106.535246
70
0
0
VERTEX
8
Layer 1
10
111.107559
20
107.732170
70
0
0
VERTEX
8
Layer 1
10
109.893468
20
108.858332
70
0
0
VERTEX
8
Layer 1
10
108.563417
20
109.911930
70
0
0
VERTEX
8
Layer 1
10
107.120731
20
110.891280
70
0
0
VERTEX
8
Layer 1
10
105.569016
20
111.794814
70
0
0
VERTEX
8
Layer 1
10
103.912150
20
112.621086
70
0
0
VERTEX
8
Layer 1
10
102.154274
20
113.368775
70
0
0
VERTEX
8
Layer 1
10
100.299783
20
114.036685
70
0
0
VERTEX
8
Layer 1
10
98.353311
20
114.623748
70
0
0
VERTEX
8
Layer 1
10
96.319724
20
115.129023
70
0
0
VERTEX
8
Layer 1
10
94.204105
20
115.551703
70
0
0
VERTEX
8
Layer 1
10
92.011741
20
115.891111
70
0
0
VERTEX
8
Layer 1
10
89.748112
20
116.146705
70
0
0
VERTEX
8
Layer 1
10
87.418876
20
116.318076
70
0
0
VERTEX
8
Layer 1
10
85.029856
20
116.404949
70
0
0
VERTEX
8
Layer 1
10
82.587022
20
116.407186
70
0
0
VERTEX
8
Layer 1
10
80.096480
20
116.324782
70
0
0
VERTEX
8
Layer 1
10
77.564455
20
116.157871
70
0
0
VERTEX
8
Layer 1
10
74.997276
20
115.906718
70
0
0
VERTEX
8
Layer 1
10
72.401360
20
115.571725
70
0
0
VERTEX
8
Layer 1
10
69.783195
20
115.153429
70
0
0
VERTEX
8
Layer 1
10
67.149325
20
114.652499
70
0
0
VERTEX
8
Layer 1
10
64.506334
20
114.069736
70
0
0
VERTEX
8
Layer 1
10
61.860827
20
113.406072
70
0
0
VERTEX
8
Layer 1
10
59.219416
20
112.662569
70
0
0
VERTEX
8
Layer 1
10
56.588705
20
111.840417
70
0
0
VERTEX
8
Layer 1
10
53.975268
20
110.940930
70
0
0
VERTEX
8
Layer 1
10
51.385638
20
109.965549
70
0
0
VERTEX
8
Layer 1
10
48.826288
20
108.915832
70
0
0
VERTEX
8
Layer 1
10
46.303613
20
107.793460
70
0
0
VERTEX
8
Layer 1
10
43.823921
20
106.600228
70
0
0
VERTEX
8
Layer 1
10
41.393408
20
105.338045
70
0
0
VERTEX
8
Layer 1
10
39.018150
20
104.008930
70
0
0
VERTEX
8
Layer 1
10
36.704084
20
102.615009
70
0
0
VERTEX
8
Layer 1
10
34.456994
20
101.158513
70
0
0
VERTEX
8
Layer 1
10
32.282495
20
99.641772
70
0
0
VERTEX
8
Layer 1
10
30.186024
20
98.067211
70
0
0
VERTEX
8
Layer 1
10
28.172820
20
96.437351
70
0
0
VERTEX
8
Layer 1
10
26.247916
20
94.754798
70
0
0
VERTEX
8
Layer 1
10
24.416122
20
93.022244
70
0
0
VERTEX
8
Layer 1
10
22.682018
20
91.242461
70
0
0
VERTEX
8
Layer 1
10
21.049936
20
89.418296
70
0
0
VERTEX
8
Layer 1
10
19.523958
20
87.552667
70
0
0
VERTEX
8
Layer 1
10
18.107897
20
85.648559
70
0
0
VERTEX
8
Layer 1
10
16.805292
20
83.709019
70
0
0
VERTEX
8
Layer 1
10
15.619399
20
81.737148
70
0
0
VERTEX
8
Layer 1
10
14.553183
20
79.736102
70
0
0
VERTEX
8
Layer 1
10
13.609308
20
77.709082
70
0
0
VERTEX
8
Layer 1
10
12.790134
20
75.659331
70
0
0
VERTEX
8
Layer 1
10
12.097708
20
73.590127
70
0
0
VERTEX
8
Layer 1
10
11.533760
20
71.504781
70
0
0
VERTEX
8
Layer 1
10
11.099701
20
69.406630
70
0
0
VERTEX
8
Layer 1
10
10.796615
20
67.299029
70
0
0
VERTEX
8
Layer 1
10
10.625260
20
65.185351
70
0
0
VERTEX
8
Layer 1
10
10.586064
20
63.068977
70
0
0
VERTEX
8
Layer 1
10
10.679125
20
60.953292
70
0
0
VERTEX
8
Layer 1
10
10.904211
20
58.841682
70
0
0
VERTEX
8
Layer 1
10
11.260758
20
56.737524
70
0
0
VERTEX
8
Layer 1
10
11.747876
20
54.644185
70
0
0
VERTEX
8
Layer 1
10
12.364347
20
52.565014
70
0
0
VERTEX
8
Layer 1
10
13.108631
20
50.503336
70
0
0
VERTEX
8
Layer 1
10
13.978867
20
48.462450
70
0
0
VERTEX
8
Layer 1
10
14.972879
20
46.445621
70
0
0
VERTEX
8
Layer 1
10
16.088184
20
44.456076
70
0
0
VERTEX
8
Layer 1
10
17.321993
20
42.496997
70
0
0
VERTEX
8
Layer 1
10
18.671223
20
40.571519
70
0
0
VERTEX
8
Layer 1
10
20.132502
20
38.682721
70
0
0
VERTEX
8
Layer 1
10
21.702176
20
36.833626
70
0
0
VERTEX
8
Layer 1
10
23.376324
20
35.027191
70
0
0
VERTEX
8
Layer 1
10
25.150759
20
33.266307
70
0
0
VERTEX
8
Layer 1
10
27.021047
20
31.553791
70
0
0
VERTEX
8
Layer 1
10
28.982513
20
29.892381
70
0
0
VERTEX
8
Layer 1
10
31.030255
20
28.284737
70
0
0
VERTEX
8
Layer 1
10
33.159154
20
26.733430
70
0
0
VERTEX
8
Layer 1
10
35.363890
20
25.240942
70
0
0
VERTEX
8
Layer 1
10
37.638950
20
23.809660
70
0
0
VERTEX
8
Layer 1
10
39.978650
20
22.441875
70
0
0
VERTEX
8
Layer 1
10
42.377140
20
21.139774
70
0
0
VERTEX
8
Layer 1
10
44.828427
20
19.905440
70
0
0
VERTEX
8
Layer 1
10
47.326382
20
18.740848
70
0
0
VERTEX
8
Layer 1
10
49.864763
20
17.647862
70
0
0
VERTEX
8
Layer 1
10
52.437225
20
16.628229
70
0
0
VERTEX
8
Layer 1
10
55.037338
20
15.683582
70
0
0
VERTEX
8
Layer 1
10
57.658602
20
14.815430
70
0
0
VERTEX
8
Layer 1
10
60.294467
20
14.025164
70
0
0
VERTEX
8
Layer 1
10
62.938344
20
13.314047
70
0
0
VERTEX
8
Layer 1
10
65.583625
20
12.683217
70
0
0
VERTEX
8
Layer 1
10
68.223697
20
12.133683
70
0
0
VERTEX
8
Layer 1
10
70.851963
20
11.666324
70
0
0
VERTEX
8
Layer 1
10
73.461852
20
11.281888
70
0
0
VERTEX
8
Layer 1
10
76.046841
20
10.980990
70
0
0
VERTEX
8
Layer 1
10
78.600470
20
10.764112
70
0
0
VERTEX
8
Layer 1
10
81.116355
20
10.631600
70
0
0
VERTEX
8
Layer 1
10
83.588209
20
10.583666
70
0
0
VERTEX
8
Layer 1
10
86.009852
20
10.620387
70
0
0
VERTEX
8
Layer 1
10
88.375232
20
10.741704
70
0
0
VERTEX
8
Layer 1
10
90.678436
20
10.947424
70
0
0
VERTEX
8
Layer 1
10
92.913709
20
11.237216
70
0
0
VERTEX
8
Layer 1
10
95.075462
20
11.610618
70
0
0
VERTEX
8
Layer 1
10
97.158293
20
12.067032
70
0
0
VERTEX
8
Layer 1
10
99.156996
20
12.605728
70
0
0
VERTEX
8
Layer 1
10
101.066574
20
13.225844
70
0
0
VERTEX
8
Layer 1
10
102.882255
20
13.926388
70
0
0
VERTEX
8
Layer 1
10
104.599501
20
14.706240
70
0
0
VERTEX
8
Layer 1
10
106.214020
20
15.564151
70
0
0
VERTEX
8
Layer 1
10
107.721775
20
16.498749
70
0
0
VERTEX
8
Layer 1
10
109.118999
20
17.508540
70
0
0
VERTEX
8
Layer 1
10
110.402199
20
18.591907
70
0
0
VERTEX
8
Layer 1
10
111.568168
20
19.747117
70
0
0
VERTEX
8
Layer 1
10
112.613991
20
20.972324
70
0
0
VERTEX
8
Layer 1
10
113.537054
20
22.265565
70
0
0
VERTEX
8
Layer 1
10
114.335051
20
23.624773
70
0
0
VERTEX
8
Layer 1
10
115.005986
20
25.047773
70
0
0
VERTEX
8
Layer 1
10
115.548183
20
26.532288
70
0
0
VERTEX
8
Layer 1
10
115.960287
20
28.075944
70
0
0
VERTEX
8
Layer 1
10
116.241266
20
29.676271
70
0
0
VERTEX
8
Layer 1
10
116.390420
20
31.330709
70
0
0
VERTEX
8
Layer 1
10
116.407376
20
33.036611
70
0
0
VERTEX
8
Layer 1
10
116.292090
20
34.791248
70
0
0
VERTEX
8
Layer 1
10
116.044851
20
36.591813
70
0
0
VERTEX
8
Layer 1
10
115.666277
20
38.435425
70
0
0
VERTEX
8
Layer 1
10
115.157315
20
40.319136
70
0
0
VERTEX
8
Layer 1
10
114.519236
20
42.239931
70
0
0
VERTEX
8
Layer 1
10
113.753635
20
44.194738
70
0
0
VERTEX
8
Layer 1
10
112.862426
20
46.180429
70
0
0
VERTEX
8
Layer 1
10
111.847837
20
48.193828
70
0
0
VERTEX
8
Layer 1
10
110.712402
20
50.231714
70
0
0
VERTEX
8
Layer 1
10
109.458962
20
52.290826
70
0
0
VERTEX
8
Layer 1
10
108.090647
20
54.367871
70
0
0
VERTEX
8
Layer 1
10
106.610879
20
56.459526
70
0
0
VERTEX
8
Layer 1
10
105.023357
20
58.562443
70
0
0
VERTEX
8
Layer 1
10
103.332047
20
60.673260
70
0
0
VERTEX
8
Layer 1
10
101.541177
20
62.788599
70
0
0
VERTEX
8
Layer 1
10
99.655224
20
64.905077
70
0
0
VERTEX
8
Layer 1
10
97.678902
20
67.019307
70
0
0
VERTEX
8
Layer 1
10
95.617150
20
69.127906
70
0
0
VERTEX
8
Layer 1
10
93.475122
20
71.227503
70
0
0
VERTEX
8
Layer 1
10
91.258172
20
73.314737
70
0
0
VERTEX
8
Layer 1
10
88.971840
20
75.386270
70
0
0
VERTEX
8
Layer 1
10
86.621842
20
77.438787
70
0
0
VERTEX
8
Layer 1
10
84.214050
20
79.469006
70
0
0
VERTEX
8
Layer 1
10
81.754485
20
81.473677
70
0
0
VERTEX
8
Layer 1
10
79.249292
20
83.449595
70
0
0
VERTEX
8
Layer 1
10
76.704735
20
85.393598
70
0
0
VERTEX
8
Layer 1
10
74.127172
20
87.302575
70
0
0
VERTEX
8
Layer 1
10
71.523046
20
89.173474
70
0
0
VERTEX
8
Layer 1
10
68.898867
20
91.003301
70
0
0
VERTEX
8
Layer 1
10
66.261193
20
92.789129
70
0
0
VERTEX
8
Layer 1
10
63.616618
20
94.528100
70
0
0
VERTEX
8
Layer 1
10
60.971751
20
96.217433
70
0
0
VERTEX
8
Layer 1
10
58.333203
20
97.854426
70
0
0
VERTEX
8
Layer 1
10
55.707569
20
99.436458
70
0
0
VERTEX
8
Layer 1
10
53.101412
20
100.961001
70
0
0
VERTEX
8
Layer 1
10
50.521246
20
102.425613
70
0
0
VERTEX
8
Layer 1
10
47.973519
20
103.827954
70
0
0
VERTEX
8
Layer 1
10
45.464601
20
105.165778
70
0
0
VERTEX
8
Layer 1
10
43.000761
20
106.436946
70
0
0
VERTEX
8
Layer 1
10
40.588159
20
107.639424
70
0
0
VERTEX
8
Layer 1
10
38.232824
20
108.771289
70
0
0
VERTEX
8
Layer 1
10
35.940644
20
109.830729
70
0
0
VERTEX
8
Layer 1
10
33.717348
20
110.816050
70
0
0
VERTEX
8
Layer 1
10
31.568492
20
111.725676
70
0
0
VERTEX
8
Layer 1
10
29.499449
20
112.558151
70
0
0
VERTEX
8
Layer 1
10
27.515389
20
113.312143
70
0
0
VERTEX
8
Layer 1
10
25.621271
20
113.986447
70
0
0
VERTEX
8
Layer 1
10
23.821831
20
114.579984
70
0
0
VERTEX
8
Layer 1
10
22.121565
20
115.091803
70
0
0
VERTEX
8
Layer 1
10
20.524723
20
115.521087
70
0
0
VERTEX
8
Layer 1
10
19.035297
20
115.867148
70
0
0
VERTEX
8
Layer 1
10
17.657009
20
116.129434
70
0
0
VERTEX
8
Layer 1
10
16.393305
20
116.307523
70
0
0
VERTEX
8
Layer 1
10
15.247343
20
116.401132
70
0
0
VERTEX
8
Layer 1
10
14.221987
20
116.410110
70
0
0
VERTEX
8
Layer 1
10
13.319800
20
116.334444
70
0
0
VERTEX
8
Layer 1
10
12.543037
20
116.174254
70
0
0
VERTEX
8
Layer 1
10
11.893641
20
115.929796
70
0
0
VERTEX
8
Layer 1
10
11.373232
20
115.601462
70
0
0
VERTEX
8
Layer 1
10
10.983114
20
115.189777
70
0
0
VERTEX
8
Layer 1
10
10.724260
20
114.695400
70
0
0
VERTEX
8
Layer 1
10
10.597318
20
114.119121
70
0
0
VERTEX
8
Layer 1
10
10.602605
20
113.461862
70
0
0
VERTEX
8
Layer 1
10
10.740107
20
112.724675
70
0
0
VERTEX
8
Layer 1
10
11.009482
20
111.908739
70
0
0
VERTEX
8
Layer 1
10
11.410055
20
111.015360
70
0
0
VERTEX
8
Layer 1
10
11.940826
20
110.045966
70
0
0
VERTEX
8
Layer 1
10
12.600467
20
109.002109
70
0
0
VERTEX
8
Layer 1
10
13.387331
20
107.885458
70
0
0
VERTEX
8
Layer 1
10
14.299451
20
106.697801
70
0
0
VERTEX
8
Layer 1
10
15.334545
20
105.441036
70
0
0
VERTEX
8
Layer 1
10
16.490028
20
104.117174
70
0
0
VERTEX
8
Layer 1
10
17.763012
20
102.728334
70
0
0
VERTEX
8
Layer 1
10
19.150314
20
101.276737
70
0
0
VERTEX
8
Layer 1
10
20.648466
20
99.764705
70
0
0
VERTEX
8
Layer 1
10
22.253725
20
98.194658
70
0
0
VERTEX
8
Layer 1
10
23.962078
20
96.569107
70
0
0
VERTEX
8
Layer 1
10
25.769256
20
94.890652
70
0
0
VERTEX
8
Layer 1
10
27.670740
20
93.161979
70
0
0
VERTEX
8
Layer 1
10
29.661778
20
91.385854
70
0
0
VERTEX
8
Layer 1
10
31.737394
20
89.565117
70
0
0
VERTEX
8
Layer 1
10
33.892400
20
87.702682
70
0
0
VERTEX
8
Layer 1
10
36.121409
20
85.801527
70
0
0
VERTEX
8
Layer 1
10
38.418851
20
83.864695
70
0
0
VERTEX
8
Layer 1
10
40.778981
20
81.895285
70
0
0
VERTEX
8
Layer 1
10
43.195903
20
79.896445
70
0
0
VERTEX
8
Layer 1
10
45.663574
20
77.871375
70
0
0
VERTEX
8
Layer 1
10
48.175826
20
75.823314
70
0
0
VERTEX
8
Layer 1
10
50.726381
20
73.755539
70
0
0
VERTEX
8
Layer 1
10
53.308863
20
71.671356
70
0
0
VERTEX
8
Layer 1
10
55.916817
20
69.574102
70
0
0
VERTEX
8
Layer 1
10
58.543725
20
67.467131
70
0
0
VERTEX
8
Layer 1
10
61.183021
20
65.353813
70
0
0
VERTEX
8
Layer 1
10
63.828108
20
63.237529
70
0
0
VERTEX
8
Layer 1
10
66.472375
20
61.121665
70
0
0
VERTEX
8
Layer 1
10
69.109212
20
59.009607
70
0
0
VERTEX
8
Layer 1
10
71.732029
20
56.904732
70
0
0
VERTEX
8
Layer 1
10
74.334269
20
54.810408
70
0
0
VERTEX
8
Layer 1
10
76.909430
20
52.729986
70
0
0
VERTEX
8
Layer 1
10
79.451074
20
50.666794
70
0
0
VERTEX
8
Layer 1
10
81.952848
20
48.624133
70
0
0
VERTEX
8
Layer 1
10
84.408500
20
46.605269
70
0
0
VERTEX
8
Layer 1
10
86.811890
20
44.613434
70
0
0
VERTEX
8
Layer 1
10
89.157014
20
42.651813
70
0
0
VERTEX
8
Layer 1
10
91.438007
20
40.723546
70
0
0
VERTEX
8
Layer 1
10
93.649171
20
38.831715
70
0
0
VERTEX
8
Layer 1
10
95.784976
20
36.979349
70
0
0
VERTEX
8
Layer 1
10
97.840086
20
35.169411
70
0
0
VERTEX
8
Layer 1
10
99.809363
20
33.404795
70
0
0
VERTEX
8
Layer 1
10
101.687886
20
31.688326
70
0
0
VERTEX
8
Layer 1
10
103.470959
20
30.022748
70
0
0
VERTEX
8
Layer 1
10
105.154124
20
28.410727
70
0
0
VERTEX
8
Layer 1
10
106.733177
20
26.854842
70
0
0
VERTEX
8
Layer 1
10
108.204168
20
25.357581
70
0
0
VERTEX
8
Layer 1
10
109.563422
20
23.921340
70
0
0
VERTEX
8
Layer 1
10
110.807541
20
22.548416
70
0
0
VERTEX
8
Layer 1
10
111.933416
20
21.241007
70
0
0
VERTEX
8
Layer 1
10
112.938232
20
20.001203
70
0
0
VERTEX
8
Layer 1
10
113.819479
20
18.830988
70
0
0
VERTEX
8
Layer 1
10
114.574952
20
17.732234
70
0
0
VERTEX
8
Layer 1
10
115.202765
20
16.706698
70
0
0
VERTEX
8
Layer 1
10
115.701347
20
15.756022
70
0
0
VERTEX
8
Layer 1
10
116.069454
20
14.881727
70
0
0
VERTEX
8
Layer 1
10
116.306163
20
14.085210
70
0
0
VERTEX
8
Layer 1
10
116.410885
20
13.367747
70
0
0
VERTEX
8
Layer 1
10
116.383356
20
12.730485
70
0
0
VERTEX
8
Layer 1
10
116.223647
20
12.174443
70
0
0
VERTEX
8
Layer 1
10
115.932156
20
11.700511
70
0
0
VERTEX
8
Layer 1
10
115.509611
20
11.309448
70
0
0
VERTEX
8
Layer 1
10
114.957069
20
11.001878
70
0
0
VERTEX
8
Layer 1
10
114.275912
20
10.778294
70
0
0
VERTEX
8
Layer 1
10
113.467840
20
10.639054
70
0
0
VERTEX
8
Layer 1
10
112.534875
20
10.584381
70
0
0
VERTEX
8
Layer 1
10
111.479348
20
10.614361
70
0
0
VERTEX
8
Layer 1
10
110.303898
20
10.728947
70
0
0
VERTEX
8
Layer 1
10
109.011462
20
10.927956
70
0
0
VERTEX
8
Layer 1
10
107.605271
20
11.211068
70
0
0
VERTEX
8
Layer 1
10
106.088839
20
11.577832
70
0
0
VERTEX
8
Layer 1
10
104.465957
20
12.027661
70
0
0
VERTEX
8
Layer 1
10
102.740682
20
12.559834
70
0
0
VERTEX
8
Layer 1
10
100.917325
20
13.173501
70
0
0
VERTEX
8
Layer 1
10
99.000444
20
13.867680
70
0
0
VERTEX
8
Layer 1
10
96.994830
20
14.641260
70
0
0
VERTEX
8
Layer 1
10
94.905496
20
15.493004
70
0
0
VERTEX
8
Layer 1
10
92.737665
20
16.421549
70
0
0
VERTEX
8
Layer 1
10
90.496755
20
17.425409
70
0
0
VERTEX
8
Layer 1
10
88.188366
20
18.502979
70
0
0
VERTEX
8
Layer 1
10
85.818270
20
19.652535
70
0
0
VERTEX
8
Layer 1
10
83.392389
20
20.872237
70
0
0
VERTEX
8
Layer 1
10
80.916787
20
22.160135
70
0
0
VERTEX
8
Layer 1
10
78.397652
20
23.514168
70
0
0
VERTEX
8
Layer 1
10
75.841281
20
24.932170
70
0
0
VERTEX
8
Layer 1
10
73.254062
20
26.411873
70
0
0
VERTEX
8
Layer 1
10
70.642464
20
27.950909
70
0
0
VERTEX
8
Layer 1
10
68.013012
20
29.546815
70
0
0
VERTEX
8
Layer 1
10
65.372281
20
31.197040
70
0
0
VERTEX
8
Layer 1
10
62.726869
20
32.898943
70
0
0
VERTEX
8
Layer 1
10
60.083390
20
34.649801
70
0
0
VERTEX
8
Layer 1
10
57.448450
20
36.446813
70
0
0
VERTEX
8
Layer 1
10
54.828636
20
38.287105
70
0
0
VERTEX
8
Layer 1
10
52.230495
20
40.167732
70
0
0
VERTEX
8
Layer 1
10
49.660522
20
42.085686
70
0
0
VERTEX
8
Layer 1
10
47.125141
20
44.037898
70
0
0
VERTEX
8
Layer 1
10
44.630687
20
46.021246
70
0
0
VERTEX
8
Layer 1
10
42.183397
20
48.032556
70
0
0
VERTEX
8
Layer 1
10
39.789388
20
50.068611
70
0
0
VERTEX
8
Layer 1
10
37.454642
20
52.126153
70
0
0
VERTEX
8
Layer 1
10
35.184996
20
54.201891
70
0
0
VERTEX
8
Layer 1
10
32.986122
20
56.292504
70
0
0
VERTEX
8
Layer 1
10
30.863517
20
58.394648
70
0
0
VERTEX
8
Layer 1
10
28.822486
20
60.504960
70
0
0
VERTEX
8
Layer 1
10
26.868131
20
62.620063
70
0
0
VERTEX
8
Layer 1
10
25.005336
20
64.736574
70
0
0
VERTEX
8
Layer 1
10
23.238757
20
66.851107
70
0
0
VERTEX
8
Layer 1
10
21.572811
20
68.960278
70
0
0
VERTEX
8
Layer 1
10
20.011660
20
71.060715
70
0
0
VERTEX
8
Layer 1
10
18.559207
20
73.149056
70
0
0
VERTEX
8
Layer 1
10
17.219083
20
75.221961
70
0
0
VERTEX
8
Layer 1
10
15.994636
20
77.276114
70
0
0
VERTEX
8
Layer 1
10
14.888928
20
79.308227
70
0
0
VERTEX
8
Layer 1
10
13.904723
20
81.315052
70
0
0
VERTEX
8
Layer 1
10
13.044479
20
83.293375
70
0
0
VERTEX
8
Layer 1
10
12.310348
20
85.240034
70
0
0
VERTEX
8
Layer 1
10
11.704164
20
87.151914
70
0
0
VERTEX
8
Layer 1
10
11.227442
20
89.025956
70
0
0
VERTEX
8
Layer 1
10
10.881375
20
90.859161
70
0
0
VERTEX
8
Layer 1
10
10.666826
20
92.648598
70
0
0
VERTEX
8
Layer 1
10
10.584333
20
94.391404
70
0
0
VERTEX
8
Layer 1
10
10.634101
20
96.084790
70
0
0
VERTEX
8
Layer 1
10
10.816006
20
97.726048
70
0
0
VERTEX
8
Layer 1
10
11.129593
20
99.312551
70
0
0
VERTEX
8
Layer 1
10
11.574079
20
100.841762
70
0
0
VERTEX
8
Layer 1
10
12.148353
20
102.311234
70
0
0
VERTEX
8
Layer 1
10
12.850978
20
103.718617
70
0
0
VERTEX
8
Layer 1
10
13.680200
20
105.061658
70
0
0
VERTEX
8
Layer 1
10
14.633945
20
106.338210
70
0
0
VERTEX
8
Layer 1
10
15.709829
20
107.546230
70
0
0
VERTEX
8
Layer 1
10
16.905164
20
108.683786
70
0
0
VERTEX
8
Layer 1
10
18.216961
20
109.749057
70
0
0
VERTEX
8
Layer 1
10
19.641943
20
110.740340
70
0
0
VERTEX
8
Layer 1
10
21.176546
20
111.656049
70
0
0
VERTEX
8
Layer 1
10
22.816936
20
112.494718
70
0
0
VERTEX
8
Layer 1
10
24.559012
20
113.255006
70
0
0
VERTEX
8
Layer 1
10
26.398420
20
113.935697
70
0
0
VERTEX
8
Layer 1
10
28.330562
20
114.535702
70
0
0
VERTEX
8
Layer 1
10
30.350610
20
115.054060
70
0
0
VERTEX
8
Layer 1
10
32.453513
20
115.489944
70
0
0
VERTEX
8
Layer 1
10
34.634017
20
115.842654
70
0
0
VERTEX
8
Layer 1
10
36.886670
20
116.111628
70
0
0
VERTEX
8
Layer 1
10
39.205842
20
116.296434
70
0
0
VERTEX
8
Layer 1
10
41.585737
20
116.396778
70
0
0
VERTEX
8
Layer 1
10
44.020406
20
116.412498
70
0
0
VERTEX
8
Layer 1
10
46.503763
20
116.343569
70
0
0
VERTEX
8
Layer 1
10
49.029603
20
116.190102
70
0
0
VERTEX
8
Layer 1
10
51.591610
20
115.952343
70
0
0
VERTEX
8
Layer 1
10
54.183382
20
115.630671
70
0
0
VERTEX
8
Layer 1
10
56.798440
20
115.225601
70
0
0
VERTEX
8
Layer 1
10
59.430249
20
114.737781
70
0
0
VERTEX
8
Layer 1
10
62.072230
20
114.167992
70
0
0
VERTEX
8
Layer 1
10
64.717779
20
113.517145
70
0
0
VERTEX
8
Layer 1
10
67.360284
20
112.786281
70
0
0
VERTEX
8
Layer 1
10
69.993140
20
111.976570
70
0
0
VERTEX
8
Layer 1
10
72.609767
20
111.089307
70
0
0
VERTEX
8
Layer 1
10
75.203624
20
110.125912
70
0
0
VERTEX
8
Layer 1
10
77.768227
20
109.087925
70
0
0
VERTEX
8
Layer 1
10
80.297168
20
107.977007
70
0
0
VERTEX
8
Layer 1
10
82.784123
20
106.794935
70
0
0
VERTEX
8
Layer 1
10
85.222879
20
105.543601
70
0
0
VERTEX
8
Layer 1
10
87.607338
20
104.225007
70
0
0
VERTEX
8
Layer 1
10
89.931542
20
102.841261
70
0
0
VERTEX
8
Layer 1
10
92.189680
20
101.394577
70
0
0
VERTEX
8
Layer 1
10
94.376108
20
99.887271
70
0
0
VERTEX
8
Layer 1
10
96.485362
20
98.321753
70
0
0
VERTEX
8
Layer 1
10
98.512170
20
96.700527
70
0
0
VERTEX
8
Layer 1
10
100.451465
20
95.026188
70
0
0
VERTEX
8
Layer 1
10
102.298401
20
93.301414
70
0
0
VERTEX
8
Layer 1
10
104.048361
20
91.528964
70
0
0
VERTEX
8
Layer 1
10
105.696971
20
89.711674
70
0
0
VERTEX
8
Layer 1
10
107.240110
20
87.852451
70
0
0
VERTEX
8
Layer 1
10
108.673921
20
85.954269
70
0
0
VERTEX
8
Layer 1
10
109.994821
20
84.020166
70
0
0
VERTEX
8
Layer 1
10
111.199508
20
82.053234
70
0
0
VERTEX
8
Layer 1
10
112.284971
20
80.056622
70
0
0
VERTEX
8
Layer 1
10
113.248497
20
78.033522
70
0
0
VERTEX
8
Layer 1
10
114.087677
20
75.987173
70
0
0
VERTEX
8
Layer 1
10
114.800414
20
73.920846
70
0
0
VERTEX
8
Layer 1
10
115.384926
20
71.837849
70
0
0
VERTEX
8
Layer 1
10
115.839753
20
69.741513
70
0
0
VERTEX
8
Layer 1
10
116.163758
20
67.635191
70
0
0
VERTEX
8
Layer 1
10
116.356130
20
65.522255
70
0
0
VERTEX
8
Layer 1
10
116.416390
20
63.406084
70
0
0
VERTEX
8
Layer 1
10
116.344385
20
61.290062
70
0
0
VERTEX
8
Layer 1
10
116.140298
20
59.177577
70
0
0
VERTEX
8
Layer 1
10
115.804636
20
57.072007
70
0
0
VERTEX
8
Layer 1
10
115.338240
20
54.976720
70
0
0
VERTEX
8
Layer 1
10
114.742276
20
52.895068
70
0
0
VERTEX
8
Layer 1
10
114.018232
20
50.830383
70
0
0
VERTEX
8
Layer 1
10
113.167919
20
48.785966
70
0
0
VERTEX
8
Layer 1
10
112.193461
20
46.765089
70
0
0
VERTEX
8
Layer 1
10
111.097295
20
44.770984
70
0
0
VERTEX
8
Layer 1
10
109.882161
20
42.806841
70
0
0
VERTEX
8
Layer 1
10
108.551095
20
40.875804
70
0
0
VERTEX
8
Layer 1
10
107.107424
20
38.980960
70
0
0
VERTEX
8
Layer 1
10
105.554757
20
37.125342
70
0
0
VERTEX
8
Layer 1
10
103.896976
20
35.311918
70
0
0
VERTEX
8
Layer 1
10
102.138222
20
33.543589
70
0
0
VERTEX
8
Layer 1
10
100.282893
20
31.823183
70
0
0
VERTEX
8
Layer 1
10
98.335626
20
30.153454
70
0
0
VERTEX
8
Layer 1
10
96.301288
20
28.537073
70
0
0
VERTEX
8
Layer 1
10
94.184963
20
26.976625
70
0
0
VERTEX
8
Layer 1
10
91.991941
20
25.474607
70
0
0
VERTEX
8
Layer 1
10
89.727705
20
24.033421
70
0
0
VERTEX
8
Layer 1
10
87.397912
20
22.655373
70
0
0
VERTEX
8
Layer 1
10
85.008388
20
21.342669
70
0
0
VERTEX
8
Layer 1
10
82.565103
20
20.097407
70
0
0
VERTEX
8
Layer 1
10
80.074165
20
18.921580
70
0
0
VERTEX
8
Layer 1
10
77.541800
20
17.817070
70
0
0
VERTEX
8
Layer 1
10
74.974338
20
16.785642
70
0
0
VERTEX
8
Layer 1
10
72.378195
20
15.828947
70
0
0
VERTEX
8
Layer 1
10
69.759862
20
14.948517
70
0
0
VERTEX
8
Layer 1
10
67.125882
20
14.145758
70
0
0
VERTEX
8
Layer 1
10
64.482839
20
13.421956
70
0
0
VERTEX
8
Layer 1
10
61.837339
20
12.778268
70
0
0
VERTEX
8
Layer 1
10
59.195995
20
12.215724
70
0
0
VERTEX
8
Layer 1
10
56.565408
20
11.735224
70
0
0
VERTEX
8
Layer 1
10
53.952154
20
11.337537
70
0
0
VERTEX
8
Layer 1
10
51.362765
20
11.023299
70
0
0
VERTEX
8
Layer 1
10
48.803712
20
10.793012
70
0
0
VERTEX
8
Layer 1
10
46.281391
20
10.647046
70
0
0
VERTEX
8
Layer 1
10
43.802109
20
10.585633
70
0
0
VERTEX
8
Layer 1
10
41.372060
20
10.608872
70
0
0
VERTEX
8
Layer 1
10
38.997320
20
10.716725
70
0
0
VERTEX
8
Layer 1
10
36.683823
20
10.909021
70
0
0
VERTEX
8
Layer 1
10
34.437353
20
11.185451
70
0
0
VERTEX
8
Layer 1
10
32.263524
20
11.545573
70
0
0
VERTEX
8
Layer 1
10
30.167770
20
11.988812
70
0
0
VERTEX
8
Layer 1
10
28.155328
20
12.514458
70
0
0
VERTEX
8
Layer 1
10
26.231230
20
13.121669
70
0
0
VERTEX
8
Layer 1
10
24.400284
20
13.809476
70
0
0
VERTEX
8
Layer 1
10
22.667067
20
14.576776
70
0
0
VERTEX
8
Layer 1
10
21.035910
20
15.422344
70
0
0
VERTEX
8
Layer 1
10
19.510892
20
16.344826
70
0
0
VERTEX
8
Layer 1
10
18.095823
20
17.342746
70
0
0
VERTEX
8
Layer 1
10
16.794241
20
18.414508
70
0
0
VERTEX
8
Layer 1
10
15.609399
20
19.558397
70
0
0
VERTEX
8
Layer 1
10
14.544258
20
20.772584
70
0
0
VERTEX
8
Layer 1
10
13.601481
20
22.055125
70
0
0
VERTEX
8
Layer 1
10
12.783423
20
23.403970
70
0
0
VERTEX
8
Layer 1
10
12.092131
20
24.816960
70
0
0
VERTEX
8
Layer 1
10
11.529331
20
26.291834
70
0
0
VERTEX
8
Layer 1
10
11.096431
20
27.826234
70
0
0
VERTEX
8
Layer 1
10
10.794512
20
29.417704
70
0
0
VERTEX
8
Layer 1
10
10.624330
20
31.063699
70
0
0
VERTEX
8
Layer 1
10
10.586308
20
32.761585
70
0
0
VERTEX
8
Layer 1
10
10.680544
20
34.508646
70
0
0
VERTEX
8
Layer 1
10
10.906800
20
36.302088
70
0
0
VERTEX
8
Layer 1
10
11.264511
20
38.139040
70
0
0
VERTEX
8
Layer 1
10
11.752784
20
40.016564
70
0
0
VERTEX
8
Layer 1
10
12.370398
20
41.931658
70
0
0
VERTEX
8
Layer 1
10
13.115809
20
43.881256
70
0
0
VERTEX
8
Layer 1
10
13.987154
20
45.862240
70
0
0
VERTEX
8
Layer 1
10
14.982255
20
47.871440
70
0
0
VERTEX
8
Layer 1
10
16.098625
20
49.905644
70
0
0
VERTEX
8
Layer 1
10
17.333473
20
51.961595
70
0
0
VERTEX
8
Layer 1
10
18.683714
20
54.036005
70
0
0
VERTEX
8
Layer 1
10
20.145972
20
56.125557
70
0
0
VERTEX
8
Layer 1
10
21.716592
20
58.226905
70
0
0
VERTEX
8
Layer 1
10
23.391648
20
60.336690
70
0
0
VERTEX
8
Layer 1
10
25.166955
20
62.451535
70
0
0
VERTEX
8
Layer 1
10
27.038074
20
64.568058
70
0
0
VERTEX
8
Layer 1
10
29.000328
20
66.682872
70
0
0
VERTEX
8
Layer 1
10
31.048814
20
68.792595
70
0
0
VERTEX
8
Layer 1
10
33.178410
20
70.893851
70
0
0
VERTEX
8
Layer 1
10
35.383794
20
72.983278
70
0
0
VERTEX
8
Layer 1
10
37.659454
20
75.057534
70
0
0
VERTEX
8
Layer 1
10
39.999702
20
77.113301
70
0
0
VERTEX
8
Layer 1
10
42.398688
20
79.147289
70
0
0
VERTEX
8
Layer 1
10
44.850416
20
81.156245
70
0
0
VERTEX
8
Layer 1
10
47.348759
20
83.136955
70
0
0
VERTEX
8
Layer 1
10
49.887470
20
85.086250
70
0
0
VERTEX
8
Layer 1
10
52.460206
20
87.001012
70
0
0
VERTEX
8
Layer 1
10
55.060535
20
88.878178
70
0
0
VERTEX
8
Layer 1
10
57.681958
20
90.714744
70
0
0
VERTEX
8
Layer 1
10
60.317924
20
92.507772
70
0
0
VERTEX
8
Layer 1
10
62.961842
20
94.254394
70
0
0
VERTEX
8
Layer 1
10
65.607106
20
95.951816
70
0
0
VERTEX
8
Layer 1
10
68.247102
20
97.597322
70
0
0
VERTEX
8
Layer 1
10
70.875233
20
99.188280
70
0
0
VERTEX
8
Layer 1
10
73.484930
20
100.722144
70
0
0
VERTEX
8
Layer 1
10
76.069669
20
102.196461
70
0
0
VERTEX
8
Layer 1
10
78.622991
20
103.608872
70
0
0
VERTEX
8
Layer 1
10
81.138512
20
104.957117
70
0
0
VERTEX
8
Layer 1
10
83.609947
20
106.239040
70
0
0
VERTEX
8
Layer 1
10
86.031117
20
107.452590
70
0
0
VERTEX
8
Layer 1
10
88.395970
20
108.595825
70
0
0
VERTEX
8
Layer 1
10
90.698597
20
109.666917
70
0
0
VERTEX
8
Layer 1
10
92.933240
20
110.664151
70
0
0
VERTEX
8
Layer 1
10
95.094316
20
111.585933
70
0
0
VERTEX
8
Layer 1
10
97.176423
20
112.430788
70
0
0
VERTEX
8
Layer 1
10
99.174355
20
113.197364
70
0
0
VERTEX
8
Layer 1
10
101.083120
20
113.884435
70
0
0
VERTEX
8
Layer 1
10
102.897947
20
114.490902
70
0
0
VERTEX
8
Layer 1
10
104.614299
20
115.015794
70
0
0
VERTEX
8
Layer 1
10
106.227887
20
115.458273
70
0
0
VERTEX
8
Layer 1
10
107.734677
20
115.817629
70
0
0
SEQEND
8
Layer 1
 0 
ENDSEC
 0 
EOF