<?xml version="1.0" standalone="no"?>
<svg xmlns="http://www.w3.org/2000/svg" version="1.1" viewBox="0 0 480 480" style="background-color: rgb(245, 245, 245);"><polyline stroke="#000000" fill="none" points="200,0 199.75005207899326,7.997866837326832 199.00083305560514,15.982938793834538 197.75421558720848,23.942441457783872 196.01331556824832,31.863641322849194 193.78248434212898,39.733866159012244 191.0672978251212,47.54052528542692 187.87454256947578,55.271129712822756 184.21219880057703,62.913312123223555 180.08942047053537,70.45484665501799 175.51651237807454,77.88366846173011 170.50490441190118,85.18789301319993 165.06712298193565,92.35583510829657 159.21675970981119,99.37602756874735 152.96843745689768,106.23723958417668 146.33777377476417,112.92849467900707 139.3413418694331,119.43908827247841 131.99662917699644,125.75860480369371 124.32199365413292,131.8769343942946 116.33661789277667,137.78428902211027 108.06046117362796,143.47121817990455 99.51420957834543,148.92862399417186 90.71922428511547,154.14777577979385 81.6974881768314,159.1203240072732 72.47155089533469,163.83831366019965 63.06447247905375,168.2941969615793 53.49976572491752,172.48084544866768 43.80133741860831,176.3915613769895 33.99342858004813,180.020088435301 24.10055387347329,183.36062175435336 14.147440333540596,186.40781719344525 4.158965560618542,189.1567998899078 -5.839904460257751,191.60317205784497 -15.82417776134685,193.74302002365306 -25.76889885910496,195.57292048706324 -35.649211129898404,197.08994599769204 -45.44041893861737,198.29166963833728 -55.118049364902575,199.176168907528 -64.65791337270073,199.7420287951166 -74.03616627025741,199.98834404599327 -83.22936730942847,199.91472060830102 -92.21453827534253,199.52127626383472 -100.96922091997149,198.8086404396152 -109.4715330960542,197.7779532009403 -117.70022345106916,196.4308634275237 -125.63472454454781,194.76952617563904 -133.25520425596486,192.79659923048962 -140.5426153547108,190.51523885431908 -147.4787431082491,187.929094737065 -154.04625080946147,185.04230415763365 -160.22872310938675,181.85948536513635 -166.01070704704452,178.38573019067593 -171.3777506737894,174.6265959015033 -176.3164391756572,170.58809631057522 -180.81442840341225,166.2766921557366 -184.86047572649272,161.699280763918 -188.44446813373168,156.86318501688396 -191.55744751061803,151.77614163618435 -194.1916330299181,146.4462888060503 -196.3404405996908,140.88215315403525 -197.99849932008908,135.0926361102302 -199.16166490781225,129.08699966687414 -199.8270300546559,122.87485156114235 -199.9929316942684,116.46612990481637 -199.65895515895062,109.87108728542532 -198.82593521610926,103.10027436429283 -197.49595398177294,96.16452299772965 -195.67233571638684,89.07492890837423 -193.3596385158922,81.84283393440346 -190.56364291886095,74.47980788501106 -187.29133745815926,66.99763003118093 -183.55090119325513,59.40827026136648 -179.35168326682944,51.723869932222165 -174.70417953678754,43.95672244502339 -169.6200063420816,36.11925357884658 -164.11187146791215,28.224001611973442 -158.19354238288327,20.28359726332037 -151.87981182750164,12.310743485982629 -145.18646084002796,4.318195145219192 -138.13021931210153,-3.6812613866107617 -130.7287241727224,-11.674828685516017 -123.0004753051149,-19.649718749021737 -114.96478930665386,-27.593173454245456 -106.64175120743089,-35.492484968172114 -98.05216426813989,-43.33501607747593 -89.21749798275857,-51.10822040536625 -80.1598344159951,-58.79966248311352 -70.90181300962624,-66.39703764414682 -61.46657399568388,-73.88819170889542 -51.87770055792523,-81.26114042888337 -42.159159886155955,-88.50408865897049 -32.335243270737315,-95.60544922706858 -22.43050538701081,-102.55386147114476 -12.469702921398342,-109.33820941385744 -2.4777326925781242,-115.94763954574863 7.520430577595298,-122.37157818854385 17.499796687889265,-128.59974841078176 27.43542242018162,-134.62218646871233 37.30247388451514,-140.42925774616108 47.07628859089022,-146.0116721678599 56.73243709264524,-151.36049906158564 66.24678404735073,-156.46718144533057 75.5955485425962,-161.3235497166481 84.75536353588564,-165.92183472227418 93.70333426007541,-170.2546801871149 102.41709544836812,-174.31515448271765 110.87486723583216,-178.0967617163977 119.05550959772135,-181.59345212328108 126.93857518852691,-184.7996317446376 134.50436044969317,-187.71017137702157 141.733954858252,-190.3204147779032 148.60928819328197,-192.62618611466334 155.11317570205,-194.6237966450348 161.22936105294315,-196.3100506183031 166.94255696783196,-197.68225038782612 172.23848343230418,-198.7382007266929 177.10390338826377,-199.47621233961866 181.5266558196827,-199.8951045654568 185.49568614880715,-199.9942072660049 189.00107386684547,-199.77336189808284 192.03405733007318,-199.23292176716814 194.58705565937947,-198.37375146218253 196.65368768851695,-197.19722547233408 198.2287879136938,-195.7052259882277 199.3084194046435,-193.90013989076175 199.88988364489987,-191.7848549326277 199.97172727668303,-189.3627551185218 199.5537457335368,-186.63771529145953 198.63698375163852,-183.61409493385338 197.22373275850248,-180.29673119327097 195.3175251456047,-176.69093114403063 192.92312543924368,-172.80246329701487 190.04651839170592,-168.63754837128334 186.69489402250235,-164.2028493422494 182.87662964706382,-159.50546078234083 178.60126893781535,-154.55289751119744 173.87949806996514,-149.35308257356246 168.72311901163192,-143.9143345641015 163.14502002507137,-138.24535431942527 157.1591434527321,-132.3552109986074 150.78045086866095,-126.25332757446417 144.02488568235896,-119.94946575880876 136.90933328856133,-113.45371038579373 129.45157886254472,-106.77645327832886 121.67026290645077,-99.92837662338049 113.58483465773898,-92.92043588275148 105.21550347622124,-85.76384226667918 96.58318833118757,-78.47004479829077 87.70946551487808,-71.05071199760853 78.616514712988,-63.51771321440697 69.32706356700518,-55.88309963978517 59.86433086694159,-48.15908502683184 50.251968516451164,-40.35802615122578 40.51400241538888,-32.49240304303084 30.67477240757271,-24.57479902131001 20.75887144385061,-16.61788056349928 10.79108411253014,-8.634377041745736 0.79632469081596,-0.637060358627598 -9.200425127907378,7.361275485165383 -19.17417867529973,15.347834858503784 -29.100006761722693,23.309840970098726 -38.95309998623226,31.234556308642382 -48.70883074715821,39.10930302010885 -58.34281479828529,46.92148318961616 -67.8309721967669,54.65859899540265 -77.14958749044435,62.30827270267574 -86.27536899412415,69.85826646534714 -95.18550700666192,77.29650190397587 -103.8577308233371,84.61107942859937 -112.27036440101428,91.79029727553805 -120.4023805369647,98.82267022772163 -128.23345342592037,105.69694798858616 -135.74400946400246,112.4021331801486 -142.9152761725384,118.92749893646572 -149.72932911947996,125.26260606433117 -156.1691367211498,131.3973197437578 -162.21860281233117,137.3218257415277 -167.86260687829673,143.02664611187157 -173.08704184822244,148.50265435916037 -177.87884935551642,153.74109003835116 -182.2260523769354,158.73357276983063 -186.1177851689057,163.47211564623458 -189.54432042622238,167.94913800979597 -192.49709359524746,172.15747757978033 -194.9687242808328,176.0904019106069 -196.95303469346473,179.74161916232538 -198.4450650905207,183.10528816621792 -199.44108617304238,186.17602776942272 -199.9386084070413,188.94892544363083 -199.93638824603696,191.41954514408346 -199.43443123927568,193.58393440629732 -198.4339920178602,195.4386306691646 -196.9375711588254,196.98066681431217 -194.9489089349979,198.20757591285795 -192.47297596626197,199.11739517197097 -189.51596079559866,199.708669074921 -186.08525442095066,199.98045170959503 -182.18943182157753,199.93230828175484 -177.8382305250722,199.56431581061486 -173.04252626861424,198.8770630056281 -167.81430581529048,197.87164932467635 -162.16663699342934,196.54968321517237 -156.11363603383677,194.913279540887 -149.67043228656934,192.96505619861816 -142.8531304054398,190.70812993011486 -135.67877009476908,188.14611133595463 -128.16528351899868,185.28309909935322 -120.3314504816204,182.1236734291461 -112.19685148544576,178.67288873243038 -103.78181879154822,174.93626552859305 -95.10738559919851,170.9197816176561 -86.19523347381943,166.62986251707318 -77.06763815436594,162.07337118227096 -67.74741387557629,157.25759702738586 -58.257856344268774,152.19024426375486 -48.62268451220601,146.87941957482266 -38.86598129106697,141.3336191471756 -29.01213335771239,135.56171507845735 -19.085770200190144,129.5729411839035 -9.111702556844397,123.37687822420895 0.8851395976101449,116.98343857835233 10.879769364042808,110.40285038590658 20.847205373139364,103.64564118419504 30.7625342258181,96.72262106648 40.60097276375041,89.64486538811698 50.337930014350874,82.42369704835131 59.94906865540297,75.07066837609221 69.41036584568764,67.59754264865352 78.69817326957816,60.01627527301665 87.78927624551109,52.33899465973252 96.66095175060117,44.577982820049186 105.2910252163656,36.7456557173166 113.65792595359471,28.854543404091455 121.74074106784374,20.917269976727052 129.51926773077545,12.946533379513179 136.97406367671064,4.955085090671553 144.08649579816773,-3.0442902772863487 150.83878671892558,-11.038795430214902 157.21405922820787,-19.01564086527219 163.19637846491892,-26.9620653313991 168.77079174649842,-34.86535624459593 173.9233659428411,-42.71287002534774 178.6412223018645,-50.49205232565161 182.9125686396835,-58.19045811329816 186.72672881492758,-65.79577158126543 190.0741694135347,-73.29582585038568 192.94652357732195,-80.67862243375392 195.3366119167728,-87.93235043175001 197.23846045577272,-95.04540542695597 198.6473155634377,-102.00640804875087 199.55965583571614,-108.80422217787395 199.973200897065,-115.42797276184223 199.88691710020095,-121.86706321271217 199.3010201096805,-128.11119235936235 198.2169743628506,-134.1503709271674 196.63748940951834,-139.97493751870874 194.56651313948709,-145.57557406994732 192.0092219148884,-150.9433207571402 188.97200763197216,-156.06959033064632 185.46246174469502,-160.94618185269343 181.48935629003924,-165.56529381713074 177.06262196248784,-169.91953663017273 172.19332329246132,-174.00194443217455 166.89363099075268,-177.80598624151983 161.17679152808995,-181.32557640279958 155.0570940258576,-184.5550843225613 148.54983454073388,-187.48934347705867 141.67127783251692,-190.12365967758603 134.43861671069362,-192.45381858018033 126.86992906137169,-194.47609242767118 118.9841326619784,-196.1872460132983 110.80093789666832,-197.5845418563511 102.34079849062981,-198.66574458155472 93.62486038642197,-199.429124495193 84.67490889013278,-199.8734603522499 75.51331421945868,-199.9980413101407 66.1629755898094,-199.8026680659086 56.647263978197536,-199.287653175067 46.98996370796463,-198.45382055157722 37.21521300036182,-197.3025041497621 27.34744364156673,-195.83554583026338 17.411319915940698,-194.05529241345803 7.431676958165292,-191.96459192504565 -2.5665413216633395,-189.5667890398153 -12.558344584816695,-186.86571973087956 -22.518758526767083,-183.86570513293515 -32.42288729994364,-180.57154462936998 -42.24597574038327,-176.98850817427277 -51.963471242751154,-173.1223278616316 -61.55108512906483,-168.9791887552052 -70.98485335774131,-164.56571899374177 -80.24119642121977,-159.88897918736916 -89.29697828245311,-154.95645112212674 -98.1295642029476,-149.77602579070194 -106.71687731782382,-144.35599076852702 -115.03745381648083,-138.70501695542447 -123.07049659094386,-132.83214470401902 -130.79592721780574,-126.7467693570998 -138.19443614382516,-120.45862621707822 -145.2475309497561,-113.97777497157877 -151.9375825717645,-107.31458360008699 -158.24786936490636,-100.47971178739164 -164.16261889853365,-93.4840938703654 -169.6670473791538,-86.33892134535601 -174.74739660221618,-79.05562496418194 -179.39096834045793,-71.6458564473654 -183.5861560828585,-64.12146984386764 -187.32247404487407,-56.49450256713672 -190.59058337743608,-48.77715613781649 -193.38231550921148,-40.98177666391412 -195.6906925637769,-33.12083508966188 -197.50994480067533,-25.20690724466786 -198.83552503676302,-17.25265372526877 -199.66412001179847,-9.270799640279444 -199.99365866986798,-1.274114253530427 -199.82331733594677,6.724609444227339 -199.15352177465772,14.712575201381533 -197.98594612608116,22.677003976728486 -196.32350872127688,30.605154383215865 -194.17036478797624,38.48434307144114 -191.53189606467683,46.30196502030779 -188.41469734909916,54.045513702367344 -184.82656001462578,61.70260109159814 -180.77645253592806,69.2609774816016 -176.2744980724471,76.70855108252199 -171.3319491657683,84.03340736532819 -165.96115961413003,91.22382812252098 -160.17555359435673,98.26831021476288 -153.98959210841412,105.1555839734496 -147.41873683842982,111.87463122977334 -140.47941150054245,118.41470294144489 -133.18896079416797,124.76533638886586 -125.56560704927693,130.91637191325052 -117.62840468006779,136.85796916991023 -109.39719255884744,142.58062287070774 -100.89254442918532,148.07517799048972 -92.13571748227282,153.33284441317326 -83.1485992250075,158.34521099405822 -73.9536527726343,163.1042590158626 -64.5738607026474,167.6023750169613 -55.03266761031905,171.83236297129915 -45.35392150942554,175.7874558004989 -35.56181422462279,179.46132619974148 -25.680820924494707,182.84809676010582 -15.735638946368397,185.94234937116744 -5.75112606583709,188.73913388882096 4.247761634728835,191.23397605445348 14.23603214340085,193.42288465280473 24.18871998569517,195.3023578970595 34.080948625267105,196.86938903096004 43.887992642292204,198.12147113897407 53.5853395341349,199.0566011568255 63.14875098384899,199.6732830759695 72.55432344333586,199.97053033688726 81.77854787977563,199.9478674073706 90.79836853596169,199.60533054327232 99.59124055768277,198.94346773050435 108.13518634412634,197.96333780837716 116.40885048042475,196.66650877568304 124.39155311507955,195.05505528223216 132.06334164881628,193.1315553098555 139.4050406056887,190.89908604818427 146.39829956178957,188.3612189718023 153.02563901174554,185.5220141266492 159.2704940583844,182.38601363481223 165.117255816348,178.95823442810084 170.55131042617444,175.24416022202493 175.5590755813416,171.24973274302099 180.12803447695384,166.98134222295593 184.24676709524067,162.44581717612084 187.90497874965132,157.65041347506326 191.09352581620854,152.6028027427403 193.80443858781004,147.31106007955708 196.03094119434218,141.78365114493027 197.76746853882912,136.0294186140371 199.00968020727578,130.05756803142336 199.754471317442,123.87765308409388 199.99998027943235,117.49956031765336 199.7455934487003,110.93349331994034 198.9919466598407,104.18995639746547 197.7409236373338,97.27973777075962 195.99565128721602,90.21389231552482 193.76049188144194,83.00372387718879 191.04103215447805,75.66076718716633 187.84406933937427,68.19676940974723 184.17759417822177,60.62367134914045 180.05077094946108,52.95358834673552 175.47391456195493,45.198790899138515 170.4584647730927,37.37168502799771 165.01695759535014,29.484792433012704 159.1629939627886,21.55073045988881 152.91120573580582,13.582191915272723 146.2772191290991,5.5919247609722955 139.2776156542737,-2.4072882800657154 131.92989067469267,-10.40265017338271 124.25240967618272,-18.38137004553633 116.26436236288744,-26.330683646766545 107.98571469299321,-34.23787377107522 99.43715897424076,-42.090290601040024 90.64006214392404,-49.87537194482663 81.61641236267808,-57.580663333013064 72.3887640555326,-65.1938379430864 62.980181537586525,-72.70271631972848 53.4141813652423,-80.09528585934397 43.71467355705289,-87.35972002766756 33.90590183113135,-94.48439727969323 24.01238300848571,-101.45791965166843 14.05884573372477,-108.26913099540221 4.0701686663362535,-114.90713482572615 -5.928681703015239,-121.36131175254366 -15.912713455708355,-127.62133646958948 -25.85697171194175,-133.67719427271766 -35.73660100494725,-139.51919708128943 -45.52690740670101,-145.1379989370392 -55.20342024989306,-150.52461095561148 -64.74195329184724,-155.6704157068597 -74.11866516752794,-160.567181000894 -83.31011898054578,-165.20707305783202 -92.29334088318217,-169.58266904017344 -101.04587749905343,-173.68696892775762 -109.54585204485396,-177.51340671630092 -117.77201901091807,-181.05586092160527 -125.70381726393786,-184.30866437262543 -133.3214214390792,-187.26661327773445 -140.60579149307694,-189.92497554967903 -147.53872029442365,-192.27949837591137 -154.1028791317135,-194.32641502218095 -160.28186102640302,-196.06245085850614 -166.06022174170522,-197.48482859788305 -171.4235183851449,-198.59127273935323 -176.358345508265,-199.3800132083192 -180.8523686132646,-199.84978818828628 -184.89435498282447,-199.9998461394998 -188.47420175604537,-199.82994700124843 -191.582961180343,-199.34036257591023 -194.21286297616766,-198.53187609412655 -196.35733375865527,-197.40578096180045 -198.01101346766913,-195.96387869092274 -199.16976876515594,-194.2084760175375 -199.83070336634032,-192.14238121145613 -199.99216527892742,-189.7688995836248 -199.65375093222346,-187.0918281983327 -198.8163061858523,-184.115449798718 -197.48192421554737,-180.84452595529322 -195.65394028130157,-177.28428944844768 -193.33692339095455,-173.44043589711626 -190.53666488005382,-169.31911464700252 -187.26016393652932,-164.92691893293826 -183.5156101063721,-160.27087533111384 -179.31236282403123,-155.35843251805665 -174.66092801870298,-150.19744935433522 -169.57293185498153,-144.79618231206055 -164.0610916734976,-139.1632722662909 -158.1391842041956,-133.30773067147712 -151.8220111316782,-127.23892514505482 -145.12536209870564,-120.96656448125682 -138.06597524031477,-114.50068311911237 -130.66149534719202,-107.85162508948758 -122.9304297628937,-101.03002746683923 -114.89210212511838,-94.04680335216699 -106.56660406667922,-86.9131244143787 -97.9747449968891,-79.64040301800573 -89.13800008886632,-72.24027396585049 -80.07845660279571,-64.72457588578644 -70.81875867927214,-57.10533229147824 -61.3820507407456,-49.39473234732418 -51.79191964252261,-41.60511136839599 -42.07233571790226,-33.74893108656211 -32.24759286483743,-25.83875971437772 -22.342247823832228,-17.887251838624373 -12.381058798883767,-9.907128175673483 -2.388923574870288,-1.9111552210494775 7.609182713954439,6.087875174236838 17.588270008778615,14.077166267922522 27.5233957883748,22.043936898547464 37.38972741240888,29.975441932590467 47.16260419010416,37.858992653961224 56.81759901913501,45.6819770632407 66.33057944065021,53.431880054187 75.6777679578618,61.096303435239754 84.8358014673997,68.66298576397908 93.78178965489914,76.11982196281912 102.49337220887446,83.45488268454729 110.9487747098428,90.65643339673899 119.12686305504143,97.7129531545036 127.00719628267456,104.61315303153988 134.57007766366908,111.34599418000752 141.79660393324713,117.90070549033243 148.66871253923483,124.26680082268189 155.16922678904325,130.43409578255205 161.28189878245112,136.39272401362712 166.99145002289117,142.13315298184247 172.28360960574074,147.6461992254091 177.14514988814466,152.9230430463911 181.5639195512389,157.95524262034192 185.52887397211703,162.73474750142108 189.0301028296341,167.25391150139257 192.05885487505202,171.5055049218934 194.60755980559995,175.4827261204093 196.6698471862919,179.17921239145056 198.24056237269477,182.58905014552553 199.31577939485481,185.70678436962098 199.8928107701791,188.52742735405977 199.97021422074133,191.04646667177133 199.54779627822612,193.259872397214 198.62661276749859,195.1641035533951 197.20896616759268,196.75611377667923 195.29839985671177,198.03335619031955 192.89968925562982,198.99378747891822 190.01882989162502,199.63587115729462 186.66302241278427,199.95858002853387 182.84065459013493,199.96139782728278 178.56128035258178,199.64432004566459 173.83559590706497,199.00785394049018 168.6754130036088,198.0530177217556 163.09362941209977,196.78133892372324 157.10419668458158,195.1948519611931 150.722085283635,193.2960948748727 143.96324716402492,191.0881052710535 136.84457590111455,188.57441546208878 129.3838644657278,185.75904681544807 121.59976075099186,182.64650332038585 113.51172096230849,179.24176438252036 105.13996098698199,175.55027685784623 96.50540586502127,171.5779463389283 87.62963748744056,167.3311277072112 78.5348406527755,162.81661496656602 69.24374761663155,158.04163037433264 59.77958127289399,153.01381288725048 50.16599710857832,147.74120594075458 40.427024077436066,142.23224458119648 30.587004540088746,136.49574197156858 20.67053342079383,130.5408752923253 10.70239673295405,124.37717105984916 0.7075096269823565,118.01448988605866 -9.289145884594321,111.46301070353168 -19.262583369151752,104.73321448138711 -29.187874427047205,97.83586745796647 -39.04021099962479,90.78200391715168 -48.79496737645218,83.58290853586412 -58.42776174676757,76.25009833098802 -67.91451714130477,68.79530423460312 -77.23152161218685,61.23045232699171 -86.35548750043607,53.567644757456975 -95.26360964300272,45.819140383464365 -103.93362237379196,37.99733515908755 -112.34385517622967,30.114742304122043 -120.47328684827671,22.183972285605673 -128.30159804447686,14.217712643759986 -135.80922206374643,6.2287076946352595 -142.97739375593326,-1.7702618580807752 -149.7881964249165,-9.766399369459602 -156.2246066110231,-17.74691272523542 -162.27053664080353,-25.699034806456282 -167.91087483784383,-33.61004391415519 -173.13152329408348,-41.46728412135175 -177.91943310724153,-49.258185519837 -182.26263699628166,-56.97028432934229 -186.15027921337688,-64.59124283693313 -189.57264267763009,-72.10886913471512 -192.5211732627134,-79.51113662428723 -194.98850117772838,-86.786203256731 -196.96845938784773,-93.92243047736663 -198.45609902868787,-100.90840184495504 -199.44770177589473,-107.7329412955692 -199.94078913901708,-114.38513102191277 -199.93412865644194,-120.85432893948055 -199.42773697590704,-127.13018571162704 -198.42287981289007,-133.20266130629477 -196.92206878697917,-139.0620410579252 -194.92905514413147,-144.698951208849 -192.44882038051318,-150.10437390530194 -189.48756379135142,-155.26966162406504 -186.05268697592726,-160.18655100665796 -182.15277533742963,-164.8471760789482 -177.79757662391938,-169.24408083503414 -172.9979765640379,-173.37023116526237 -167.76597165835014,-177.21902610930331 -162.11463919434635,-180.78430841627832 -156.0581045600287,-184.06037439504954 -149.61150593779985,-187.04198303890777 -142.79095646689348,-189.72436441006565 -135.6135039689115,-192.1032272705397 -128.09708833715578,-194.174765947217 -120.26049669623124,-195.93566642011967 -112.12331644402094,-197.38311162412987 -103.70588629339615,-198.51478595569273 -95.02924543601814,-199.32887897728892 -86.11508095532568,-199.8240883137478 -76.98567362011211,-199.99962173577006 -67.66384219421072,-199.85519842732552 -58.172886401472944,-199.39104943489914 -48.5365286885837,-198.60791729786555 -38.77885493130987,-197.5070548605848 -28.92425423234502,-196.09022326811817 -18.997357961258313,-194.35968914877267 -9.022978188902636,-192.31822098797815 0.9739543298505117,-189.96908469930196 10.968452470003225,-187.31603839968335 20.935535191240554,-184.36332639724918 30.850289977517146,-181.1156724013248 40.687935105368986,-177.57827196550775 50.42388158532576,-173.75678417588986 60.03379462156773,-169.65732259772795 69.49365443625165,-165.28644549504156 78.77981630644186,-160.65114533879094 87.86906966359987,-155.75883762041437 96.73869610792703,-150.61734898862545 105.36652619252212,-145.23490472844225 113.73099483546198,-139.62011560248746 121.8111952212715,-133.78196407560432 129.58693105707084,-127.72978994483097 137.03876705279762,-121.4732753977145 144.14807749930165,-115.02242952287843 150.89709282292498,-108.38757229761475 157.26894400017872,-101.57931807812442 163.24770472151386,-94.6085586188079 168.81843119880713,-87.48644564778407 173.967199517042,-80.22437302650347 178.68114043685043,-72.83395852199999 182.9484715609064,-65.32702522094445 186.75852678378166,-57.71558261522418 190.10178295165855,-50.01180738932054 192.9698836652505,-42.228023940209866 195.3556601664521,-34.376684660960194 197.25314925649894,-26.470350019554605 198.6576082008586,-18.52166846482457 199.56552658359857,-10.543356191628646 199.97463508159657,-2.5481767976561933 199.88391113666734,5.451079135610453 199.29358151142495,13.441614505094984 198.205121722495,21.41064615876357 196.62125235249053,29.34542534593834 194.54593224997384,37.23325811258314 191.9843486343952,45.061525608919254 188.94290413074611,52.817704276894574 185.4292007663329,60.48938588520214 181.4520209696643,68.0642973798075 177.02130561895783,75.53032051821422 172.1481291951178,82.87551125606815 166.84467210130188,90.08811885507785 161.12419021825895,97.15660468169318 155.0009817715257,104.06966066645474 148.49035159331535,110.81622739449352 141.6085728684009,117.38551179823608 134.37284645963555,123.76700442400785 126.80125791474683,129.95049624492069 118.91273226188865,135.92609499313565 110.7269867069307,141.68424098538256 102.26448135070416,147.21572241641178 93.54636804941443,152.51169009592053 84.59443754600787,157.56367160536792 75.43106500466642,162.3635848520377 66.07915408455386,166.90375099866128 56.56207969258678,171.17690674792163 46.90362955835125,175.17621596217788 37.12794477715792,178.89528059982794 27.259459469880166,182.32815095080915 17.322839710381164,185.46933515486683 7.342921873165316,188.31380798735808 -2.6553494446122388,190.85701889853962 -12.646983771657522,193.0948992934758 -22.6070072256969,195.02386904092407 -32.51052493517239,196.64084220078 -42.33278326346544,197.94323196092392 -52.049231680085775,198.92895477556763 -61.63558412422175,199.59643369848413 -71.06787970724022,199.94460090578474 -80.32254260242554,199.97289940420941 -89.37644097227762,199.68128392219734 -98.20694478604838,199.0702209823118 -106.79198238304221,198.14068815490353 -115.11009564026892,196.89417249420654 -123.14049360657273,195.33266815936864 -130.86310446919057,193.4586732242227 -138.25862572282168,191.27518568090062 -145.30857241584613,188.78569864368578 -151.9953233530736,185.9941947607753 -158.30216513955156,182.90513984289322 -164.21333395535544,179.52347571894472 -169.71405495692122,175.85461233014485 -174.79057920646596,171.90441907526628 -179.43021803716914,167.67921542085452 -183.62137476822994,163.1857607914276 -187.35357369053403,158.43124375584011 -190.6174862504663,153.42327052710556 -193.40495436644062,148.16985279408027 -195.70901081985158,142.67939490446724 -197.5238966694955,136.9606804196547 -198.84507564592272,131.02285806289035 -199.66924548974848,124.87542708327828 -199.99434620558281,118.52822205900333 -199.81956521094523,111.99139716410613 -199.1453393672982,105.27540992397024 -197.97335388812064,98.39100448551174 -196.30653812675257,91.34919442883856 -194.14905825453604,84.16124514786809 -191.50630684755848,76.83865582810242 -188.38488940801867,69.39314105038349 -184.7926078539122,61.836612050065185 -180.73844101830122,54.181157661573806 -176.23252220690435,46.439024978854434 -171.28611387011424,38.622599762631836 -165.91157945273255,30.74438662583825 -160.12235249179852,22.81698902889601 -153.93290303974496,14.853089116872262 -147.3587014967973,6.865427430750833 -140.4161799430368,-1.1332174747126813 -133.12269106675163,-9.130049473956824 -125.4964647917558,-17.112275341682647 -117.55656271207712,-25.067125219286527 -109.32283044789143,-32.98187304390703 -100.8158480418167,-40.843856907414946 -92.05687851951613,-48.64049931276244 -83.06781474321106,-56.359327295296644 -73.87112469093088,-63.98799237683962 -64.4897952982601,-71.51429032062336 -54.947275002981144,-78.92618065546237 -45.26741513618239,-86.21180593793987 -35.47441030635587,-93.35951072178838 -25.592737925480595,-100.35786020411483 -15.647097028230469,-107.19565851864972 -5.662346537261787,-113.8619666467423 4.336556871156978,-120.34611991745811 14.32462114583443,-126.63774506877508 24.276881327764357,-132.7267768425935 34.16846194953167,-138.6034740869994 43.97463921101475,-144.2584353400308 53.67090277601968,-149.68261387000922 63.23301703535177,-154.86733214838358 72.63708168321278,-159.80429573192274 81.85959145552798,-164.48560653205618 90.87749488085414,-168.9037754501292 99.66825189706262,-173.05173435836576 108.20989018975185,-176.92284740736338 116.4810601115869,-180.5109216420374 124.46108804530755,-183.81021690902668 132.13002807699544,-186.81545503971654 139.46871185047934,-189.5218282941811 146.45879647823904,-191.92500705254227 153.0828103890689,-194.02114674143706 159.32419699791348,-195.8068939845161 165.1673560887002,-197.2793919671295 170.59768280676144,-198.43628500662126 175.60160416336223,-199.2757223209189 180.1666129611015,-199.79636098938988 184.2812990553968,-199.99736810122835 187.93537787389837,-199.87842208793458 191.119716122568,-199.43971323775605 193.82635461415566,-198.68194339126683 196.04852816202168,-197.60632481857238 197.7806824895827,-196.2145782799359 199.0184881131078,-194.50893027292898 199.75885116317517,-192.492109470511 199.9999211177333,-190.1673423557335 199.74109542744247,-187.53834806005622 198.98302102173454,-184.6093324135298 197.72759269182654,-181.3849812163659 195.97794835472862,-177.87045274265475 193.73846121008614,-174.07136948822824 191.01472880945886,-169.99380917586524 187.81355906535526,-165.64429503223306 184.14295323499948,-161.0297853521143 180.01208592135242,-156.15766236662094 175.43128214138343,-151.0357204331985 170.41199151890726,-145.67215356631868 164.9667596664826,-140.07554232880148 159.1091968279202,-134.25484010474688 152.85394385975584,-128.21935877602974 146.21663563673633,-121.97875382527484 139.2138619727777,-115.54300888914635 131.8631261550639,-108.9224197866559 124.18280119495206,-102.12757804805044 116.19208390500553,-95.16935397062215 107.91094691696286,-88.05887922855425 99.36008876056373,-80.80752906461301 90.56088212799585,-73.42690409218852 81.53532045330495,-65.92881173678668 72.30596294025484,-58.32524734666972 62.89587817607032,-50.62837500285392 53.328586471987116,-42.85050805917754 43.62800107471353,-35.00408944355996 33.81836839577827,-27.101671751974223 23.924207408119365,-19.15589716696694 13.970248361425117,-11.179477232865969 3.981370969393421,-3.1851725200196497 -6.0174577766052595,4.814227789390761 -16.001246011992436,12.805926361318635 -25.94503946563747,20.777138182853655 -35.82398383253517,28.71511101551657 -45.61338689662024,36.6071457961176 -55.28878024845783,44.44061695255279 -64.82598044351306,52.202992602023215 -74.20114944817747,59.88185459937557 -83.39085422243438,67.4649184034826 -92.37212529025125,74.9400527298924 -101.12251415131664,82.295298958293 -109.62014939058982,89.51889026375449 -117.84379134545675,96.59927044113932 -125.77288519382132,103.52511239256303 -133.3876123304526,110.28533624833811 -140.66893990318445,116.86912709239947 -147.59866838512502,123.26595226386378 -154.15947706400337,129.46557820703995 -160.33496733492626,135.4580868429363 -166.1097036883478,141.23389143606687 -171.46925229081057,146.7837519311897 -176.40021706200594,152.0987897354197 -180.89027315800348,157.17050192208436 -184.92819777693973,161.99077483359255 -188.50389821017671,166.55189706155596 -191.60843706882116,170.84657178339728 -194.23405462253814,174.86792843571075 -196.374188194839,178.60953370569484 -198.02348856635322,182.06540182308495 -199.17783334509062,185.23000413610572 -199.8343372702758,188.0982779561355 -199.9913594239962,190.66563465692803 -199.64850733264325,192.9279670154356 -198.80663794789126,194.88165578248976 -197.46785550476525,196.5235754728279 -195.6355062621482,197.85109936520325 -193.31417013887818,198.86210370457752 -190.5096492663346,199.5549710996774 -187.22895348613216,199.92859311047454 -183.4802828291689,199.98237202145344 -179.27300701981625,199.71622179782878 -174.61764205649192,199.13056822318265 -169.5258239271364,198.22634821830175 -164.0102795253047,197.00500834230363 -158.0847948395629,195.46850247845174 -151.764180495691,193.61928870835757 -145.06423473783804,191.46032537957544 -138.00170394113357,188.99506637287706 -130.59424075447333,186.22745557677933 -122.8603599780938,183.1619205781638 -114.81939228620645,179.8033655790824 -106.49143591038832,176.15716355107938 -97.89730640446196,172.22914763958593 -89.05848461645479,168.02560183212785 -79.99706299766994,163.55325090528837 -70.73569038305465,158.8192496664998 -61.297515380918476,153.83117150787783 -51.70612851345891,148.5969962904096 -41.985503252745495,143.12509757787865 -32.15993609952901,137.42422924094885 -22.253985854633257,131.50351145283784 -12.292412234754115,125.37241609898962 -2.3001139860526294,119.04075162407202 7.6979333497392,112.51864734056187 17.676739861161455,105.81653722400478 27.61136372880037,98.94514322087994 37.476973566836136,91.91545809577319 47.24891048858535,84.73872784529851 56.902749740871386,77.42643370690121 66.41436175318307,69.99027379133244 75.75997244904411,62.442144368159624 84.91622266881215,54.79412083427814 93.86022655542206,47.058438395850835 102.56962875710572,39.24747249458829 111.02266030412542,31.373719009682 119.19819301986973,23.44977426706333 127.07579233028214,15.48831488796765 134.63576833966218,7.502077509050261 141.85922504514681,-0.49616159352375966 148.72810756687377,-8.493606943390304 155.22524727578565,-16.47746433402027 161.33440470625317,-24.434961296720726 167.04031014628882,-32.353367533860165 172.32870180387135,-40.22001528462907 177.18636145399648,-48.02231959075628 181.60114747736048,-55.747798429752024 185.56202520807983,-63.38409268348958 189.05909451461358,-70.91898591015216 192.08361454493433,-78.3404238879353 194.62802557410498,-85.6365338992302 196.685967899657,-92.79564372443923 198.25229773753153,-99.8063003150374 199.32310007886304,-106.6572881160067 199.89569847546133,-113.33764700833287 199.96866172953824,-119.83668984285305 199.54180747095708,-126.14401953742174 198.61620261306308,-132.24954571001953 197.1941606859552,-138.14350082121305 195.27923605386584,-143.81645580013443 192.87621503110225,-149.25933512898325 189.99110391875155,-154.46343136191902 186.63111399205857,-159.42041905511786 182.80464347599076,-164.12236808570322 178.5212565540503,-168.56175633825603 173.79165946279852,-172.7314817385912 168.62767373183559,-176.62487361556217 163.04220663613867,-180.23570337271173 157.0492189345912,-183.55819445269773 150.66368997535852,-186.58703157855248 143.9015802553213,-189.31736925699255 136.77979152713903,-191.7448395301724 129.31612455367835,-193.86555896348824 121.5292346153693,-195.67613485824268 113.43858488172256,-197.17367067923976 105.06439776354566,-198.35577068862315 96.42760436743927,-199.22054377854573 87.5497921789411,-199.76660649653869 78.45315110504596,-199.99308525874042 69.16041801099816,-199.89961774744424 59.69481988997363,-199.48635349072958 50.080015807684006,-198.7539536232489 40.34003776704461,-197.70358982855313 30.499230640673158,-196.33694246464816 20.582191321390884,-194.65619787578038 10.613707242804571,-192.66404489475218 0.6186944236217068,-190.36367054136326 -9.377864809408965,-187.75875492385825 -19.3509842643137,-184.85346535154034 -29.27573633635685,-181.65244966796274 -39.127314314066446,-178.16082881537227 -48.88109438310365,-174.3841886422937 -58.512697172963556,-170.32857096736365 -67.99804869271469,-166.00046391370975 -77.31344050343455,-161.40679152933754 -86.43558897695597,-156.55490271013 -95.34169349282082,-151.45255944318515 -104.00949342794648,-146.1079243892874 -112.41732379659936,-140.529547824395 -120.5441694015724,-134.7263539610216 -128.3697173612302,-128.7076266713999 -135.87440788114245,-122.48299463526662 -143.03948314337447,-116.06241593602891 -149.8470341912709,-109.45616212995513 -156.28004569251686,-102.67480181387478 -162.32243846860513,-95.729183717683 -167.95910968441444,-88.63041934867962 -173.17597059742536,-81.38986521553277 -177.95998177224476,-74.0191046602863 -182.2991856724011,-66.52992932748357 -186.18273654795644,-58.934320300051525 -189.6009275442372,-51.24442893212387 -192.54521496391115,-43.47255740946523 -195.0082396217849,-35.6311390686038 -196.9838452389324,-27.732718506136887 -198.4670938301858,-19.789931510057908 -199.45427804652826,-11.815484845189737 -199.94293044153432,-3.822135925071598 -199.93182963870183,4.177327597181144 -199.42100338425658,12.170108286394088 -198.41172847780172,20.14341939850152 -196.90652758098278,28.08450533660356 -194.90916291214887,35.98066205720864 -192.4246268427644,43.81925739398739 -189.4591294190811,51.58775126654547 -186.02008284025771,59.27371574187706 -182.11608293171955,66.86485491640664 -177.7568876600752,74.3490245868116 -172.95339274327824,81.71425167815701 -167.71760441700806,88.94875339826264 -162.06260942533603,96.0409560876518 -156.00254231067524,102.97951373494531 -149.5525500847921,109.75332612805424 -142.7287543691595,116.35155661215244 -135.54821109930134,122.76364942601286 -128.0288678938397,128.97934658897344 -120.18951919478778,134.9887043115182 -112.04975929124163,140.78210890321995 -103.62993334385398,146.35029215259036 -94.95108653253148,151.68434615424715 -86.03491145444882,156.77573755965858 -76.90369390384448,161.61632122868156 -67.5802571691514,166.19835326004838 -58.087904986653015,170.51450337995692 -48.45036329328277,174.5578666689449 -38.69172092414211,178.32197460828877 -28.836369402948424,181.8008054282511 -18.90894197593965,184.9887937416316 -8.934252041577647,187.88083944719685 1.0627688700212006,190.4723158887547 11.057133412922905,192.75907725681756 21.023860880737484,194.73746522101288 30.93803964536389,196.40431478263153 40.774889423096475,197.75695933795058 50.50982321242462,198.79323494423045 60.11850874872774,199.51148378156103 69.57692932227452,199.91055680502106 78.86144380747858,199.98981558290404 87.94884575340998,199.74913331807304 96.81642138783255,199.18889505080892 105.44200638980186,198.3099970428282 113.80404128893325,197.1138453434554 121.88162535284013,195.60235354024385 129.65456882808834,193.77793969764474 137.1034434040616,191.64352248861854 144.20963077361665,189.2025165253816 150.95536916916254,186.45882689675497 157.3237977578211,183.41684292085517 163.29899878473515,180.08143112312172 168.86603735916273,176.45792745091435 174.01099878392384,172.55212873713506 178.72102333490213,168.3702834265346 182.98433840365217,163.9190815795299 186.7902879227944,159.205644169537 190.12935900063158,154.2375116909323 192.99320569842274,149.02263209586977 195.3746698908868,143.5693480792532 197.26779915778445,137.88638373220397 198.66786166187148,131.9828305853763 199.5713579760263,125.86813306444648 199.97602982999496,119.55207338105096 199.88086575489172,113.0447558833279 199.28610361134386,106.35659089111995 198.19322999496416,99.49827804168218 196.60497652063572,92.48078917254503 194.52531299489834,85.31535076891463 191.95943749349803,78.01342600369146 188.91376336890687,70.5866963988377 185.39590322027954,63.04704313743923 181.41464986592092,55.40652805633942 176.9799543658213,47.67737434977841 172.10290114918496,39.8719470148885 166.79568030913464,32.00273307033649 161.0715571338226,24.082321579757565 154.94483895012056,16.123383511938965 148.43083936275627,8.13865146997155 141.54583997827098,0.1408993218066497 134.30704970948943,-7.857078235216224 126.73256176219354,-15.842486143150047 118.84130841153338,-23.802549452804964 110.65301368120247,-31.724533760941796 102.1881440436429,-39.59576558260072 93.46785726453207,-47.403652625973635 84.51394951937901,-55.135703937384896 75.34880091444029,-62.779549884153894 65.99531954811371,-70.32296194336325 56.476884252613516,-77.75387226489502 46.81728615907588,-85.06039297741108 37.04066923211186,-92.23083520641269 27.1714699224738,-99.25372777394618 17.23435608865895,-106.11783555004072 7.254165340100173,-112.81217742651944 -2.7441570439111547,-119.3260438844312 -12.735620464442068,-125.64901412699176 -22.69525146639621,-131.7709727506426 -32.59815615914143,-137.6821259275341 -42.41958243828174,-143.3730170735619 -52.13498185301644,-148.83454197688445 -61.72007096449228,-154.05796336271956 -71.15089204174984,-159.03492487112044 -80.40387294356994,-163.75746442536953 -89.45588603655999,-168.21802696959983 -98.28430600218219,-172.40947655527728 -106.86706638827607,-176.32510775719305 -115.18271476369276,-179.95865640071418 -123.21046633819725,-183.30430958312675 -130.93025591362783,-186.35671497304017 -138.3227880364324,-189.11098937297567 -145.36958522626136,-191.56272653144055 -152.0530341600421,-193.708004191991 -158.3564296961112,-195.5433903680042 -164.26401662837523,-197.06594883312707 -169.76102906611362,-198.2732438186106 -174.83372734102164,-199.16334391002053 -179.46943234922287,-199.73482513708854 -183.6565572424239,-199.98677325176072 -187.38463638900552,-199.91878519079978 -190.64435153264623,-199.53096972059973 -193.42755508311436,-198.82394726318347 -195.72729048099836,-197.79884890365943 -197.53780958548202,-196.45731458072692 -198.85458704170466,-194.8014904631238 -199.67433159178984,-192.83402551621467 -199.99499430127727,-190.5580672642111 -199.8157736803911,-187.97725675480442 -199.13711768734728,-185.0957227342656 -197.96072260869101,-181.91807504233404 -196.28952881946458,-178.44939723745435 -194.1277134338,-174.6952384641692 -191.48067986430934,-170.6616045756713 -188.35504431636863,-166.35494852571966 -184.75861925104735,-161.78216004528986 -180.7003938580278,-156.9505546204744 -176.19051158730917,-151.8678617892655 -171.2402447958662,-146.54221277594212 -165.86196657262983,-140.98212748284962 -160.06911981220347,-135.19650086036773 -153.8761836146335,-129.1945886768913 -147.2986370951943,-122.98599271157416 -140.3529206946634,-116.58064539353101 -133.05639508678496,-109.98879391206955 -125.42729778561947,-103.22098382337339 -117.48469756126498,-96.28804217986078 -109.24844677785508,-89.2010602092151 -100.73913177299056,-81.9713755707793 -91.97802140262044,-74.61055421772443 -82.98701387997004,-67.13037189399056 -73.78858204142236,-59.54279529560853 -64.40571717612181,-51.8599629265391 -54.861871559728705,-44.094165679655916 -45.180899835948026,-36.257827173937564 -35.38699939233386,-28.363483879332907 -25.504649879433284,-20.423765061075176 -15.558552024399022,-12.451372575557237 -5.573565892039604,-4.459060550069557 4.42535125239149,3.5403850210827157 14.413207323371404,11.534166731443113 24.365037882294743,19.50949623552421 34.25596853557879,27.45361470743236 44.06127710768882,35.353813252268814 53.75645543369777,43.197453237644815 63.31727061694464,50.9719865128058 72.71982559864489,58.664975482990165 81.9406188881016,66.26411300692907 90.95660330418873,73.75724208564705 99.74524358129742,81.13237531106718 108.28457269577277,88.37771404330657 116.55324677202276,95.48166728598476 124.53059843110026,102.4328702293401 132.19668844838307,109.22020243150874 139.5323555912483,115.83280560885416 146.51926451218245,122.2601010069061 153.13995157759305,128.49180632411085 159.37786851780476,134.51795216132047 165.2174237891122,140.32889797070465 170.64402154451702,145.91534747857168 175.64409811574973,151.2683635574193 180.20515591537037,156.3793825234382 184.31579467423362,161.2402278365754 187.9657399362221,165.84312318125484 191.1458687390345,170.18070490682368 193.84823241684387,174.24603380782244 196.0660764678186,178.03260622523345 197.79385743686254,181.53436445094786 199.02725677136425,184.74570641880698 199.76319161532896,187.66149466671087 199.99982251491448,190.27706455546513 199.73655801610678,192.58823173120624 198.97405614304745,194.59129881947567 197.7142227533156,196.28306134023043 195.96020677427737,197.6608128343274 193.716392332406,198.72234919328062 190.98838779525087,199.46597218536496 187.78301175343722,199.89049217242385 184.1082759777415,199.99523001303766 179.9733653938386,199.7800181490042 175.38861512476728,199.24520087339664 170.36548465850973,198.39163377976757 164.91652920523524,197.22068239338222 159.05536831581492,195.7342199866692 152.79665184004048,193.9346245823838 146.15602330962298,191.82477514928033 139.1500808375179,189.40804699637425 131.79633563128027,186.688306373169 124.11316822416809,183.6699042844814 116.1197825333851,180.35766952976184 107.8361578602812,176.75690097804548 99.28299895251315,172.8733590908921 90.48168425295017,168.7132567068764 81.45421246470379,164.28324910237077 72.22314756583074,159.5904233445262 62.81156241112992,154.64228695347157 53.242981062031966,149.44675589188654 43.541319988687476,144.01214190114877 33.73082829125097,138.34713920432097 23.83602708976352,132.46081059724858 13.881648234113186,126.36257295001978 3.8925724873016336,120.06218214198105 -6.106232663515609,113.56971745441578 -16.089775412739975,106.89556544583769 -26.03310210282413,100.05040333571739 -35.91135959543011,93.04518192320766 -45.69985739132066,85.891108068201 -55.37412934375857,78.5996267627444 -64.90999481112752,71.18240282149351 -74.28361909593913,63.6513022204963 -83.47157301917318,56.01837311416789 -92.45089148101286,48.29582656080575 -101.19913086164358,40.49601698750651 -109.69442511860994,32.6314224257168 -117.91554044053083,24.7146245490448 -125.84192832057788,16.758288545266385 -133.45377691703172,8.775142854726429 -140.7320605725765,0.7779588075495504 -147.65858736853116,-7.220469807765133 -154.21604459516928,-15.207347211670713 -160.3880420244838,-23.169896104098672 -166.15915287721384,-31.09537810540763 -171.5149523817649,-38.971114135074814 -176.44205382862276,-46.78450469552017 -180.92814203015365,-54.52305002861475 -184.96200410216466,-62.17437011262721 -188.5335574902693,-69.72622446761905 -191.633875171027,-77.16653173759593 -194.25520796485048,-84.48338901810814 -196.39100390491808,-91.66509089835317 -198.03592461368135,-98.70014818733732 -199.18585864602596,-105.57730629413038 -199.83793176574548,-112.28556323281033 -199.99051412963368,-118.81418722329376 -199.6432243612441,-125.15273385989583 -198.79693050413266,-131.29106282014692 -197.45374785220108,-137.21935408715206 -195.61703366256307,-142.9281236595188 -193.29137876415007,-148.40823872373718 -190.48259608303115,-153.65093226473337 -187.19770611312256,-158.64781709122337 -183.4449193686124,-163.39089925343006 -179.2336158619479,-167.8725908316983 -174.57432165869062,-172.08572207554437 -169.4786825678365,-176.0235528737324 -163.95943503335363,-179.67978353701108 -158.03037429971133,-183.04856487627336 -151.70631993094773,-186.12450756001152 -145.00307876947994,-188.9026907360977 -137.93740542723302,-191.37866990409756 -130.52696040782905,-193.54848402552304 -122.79026596453346,-195.4086618606492 -114.74665980426091,-196.95622752175592 -106.41624675338176,-198.1887052339155 -97.81984850613028,-199.1041232957031 -88.97895158120454,-199.70101723349856 -79.91565361666926,-199.97843214433203 -70.65260813736016,-199.93592422352486 -61.21296793287336,-199.5735614746825 -51.62032718765316,-198.89192360090294 -41.898662507809156,-197.8921010773762 -32.07227299209865,-196.57569340685575 -22.165719496824774,-194.94480656079574 -12.203763246490992,-193.00204961024588 -2.211303943639436,-190.75053055189437 7.7866824674478075,-188.1938513359361 17.76520622759085,-185.33610210372078 27.69932622410547,-182.18185464439873 37.56421233059146,-178.73615508103575 47.33520746931319,-175.00451579788933 56.987889241062504,-170.99290662177188 66.49813096842679,-166.7077452716009 75.84216199992717,-162.15588709141767 84.99662712426347,-157.34461408329915 93.93864494617551,-152.2816232577082 102.64586507802393,-146.9750143199186 111.09652400410921,-141.4332767122137 119.26949947813547,-135.66527603259345 127.14436331782213,-129.68023985170305 134.7014324647175,-123.48774295069236 141.92181818160205,-117.09769200360742 148.78747326448567,-110.52030972882542 155.2812371512263,-103.76611853488593 161.38687881399477,-96.845923686882 167.08913732838909,-89.77079602033965 172.3737600178038,-82.55205423024779 177.22753807769206,-75.20124676355321 181.63833959070374,-67.73013334411398 185.59513985015735,-60.150666159648715 189.08804891606596,-52.47497074078575 192.1083363348375,-44.71532656280094 194.64845296085855,-36.88414740107657 196.70204982543223,-28.99396147170753 198.2639940058896,-21.05739138903373 199.33038145522437,-13.087133972141391 199.89854676017714,-5.095939932666645 199.96706980337996,2.903406523624494 199.53577931291113,10.89810814883819 198.60575329038517,18.875375125819495 197.17931631651012,26.82244552913143 195.2600337408461,34.726605741413294 192.85270277029025,42.575210792457746 189.9633404785548,50.355704588460114 186.59916876661828,58.05563999909833 182.7685963117338,65.66269877028068 178.48119755011365,73.16471123072591 173.74768874583026,80.54967576084128 168.57990120572944,87.8057779927537 162.9907517073297,94.92140971077801 156.99421021360428,101.88518742208707 150.60526495534714,108.68597056786702 143.83988496840922,115.3128793458422 136.7149801794143,121.75531211563299 129.2483591397562,128.00296235912012 121.45868451349293,134.04583516867496 113.36542643040377,139.87426323687964 104.98881382081365,145.47892232215673 96.3497838537888,150.8508461655676 87.46992960512692,155.9814408349101 78.37144608591099,160.86249847318282 69.07707476654042,165.48621042940127 59.610046734898624,169.84517975077472 49.99402463072906,173.93243301625293 40.253043501370115,177.74143149251194 30.411450726637568,181.26608159453275 20.4938451630658,184.50074463403737 10.525015659574615,187.44024584018774 0.5298790982538469,190.07988263811316 -9.466581884854017,192.4154321720299 -19.439381343350288,194.4431580609078 -29.363592472322285,196.159816375883 -39.21440991237683,197.56266082985252 -48.96721175012309,198.64944717094747 -58.59762106012217,199.41843677285758 -68.08156683452208,199.86839941626212 -77.3953441480303,199.9986152569184 -86.5156734078845,199.80887597725945 -95.41975854071325,199.2994851196571 -104.08534397083729,198.4712576008193 -112.49077024763352,197.32551840809705 -120.61502818287133,195.8641004797874 -128.43781136274438,194.0893417728231 -135.9395669033318,192.0040815225399 -143.10154432261666,189.61165570050719 -149.9058424069386,186.91589167768294 -156.3354539546968,183.921102101438 -162.37430828549876,180.63207799624004 -168.00731140849365,177.05408109903624 -173.22038374948207,173.19283544159688 -178.00049534252878,169.0545181932854 -182.33569839808519,164.6457497789051 -186.21515716624245,159.9735832874311 -189.62917502046423,155.04549318857573 -192.56921869409913,149.86936337522647 -195.0279396091092,144.4534745509026 -196.99919224368412,138.80649098239502 -198.47804949284586,132.93744663878775 -199.46081498364578,126.85573073903458 -199.94503231417065,120.57107273121153 -199.92949119327002,114.09352672747445 -199.4142304656525,107.43345541962883 -198.40053801479453,100.60151350102666 -196.89094754390192,93.60863062133447 -194.88923224297326,86.46599390142433 -192.40039535778735,79.18503003636684 -189.4306576843959,71.77738701515666 -185.98744202037295,64.25491548641482 -182.07935461168535,56.62964979987759 -177.7161636415644,48.91378875400957 -172.90877481512845,41.119676080520236 -167.6692041008039,33.259780697031786 -162.01054769666086,25.346676759469567 -155.94694929673665,17.393023546094852 -149.4935647391735,9.411545205360193 -142.66652412450597,1.4150103999861874 -135.48289149881666,-6.583788120175009 -127.96062220250626,-14.572053983811903 -120.11851799129116,-22.537007669612336 -111.97618004161494,-30.465906950779942 -103.55395995790192,-38.34606727987317 -94.87290890415403,-46.16488208137667 -85.9547249870016,-53.9098429195329 -76.82169902173447,-61.56855950917103 -67.49665881688307,-69.12877953752002 -58.002912116569846,-76.57840826529674 -48.36418834329791,-83.90552787570351 -38.60457928675013,-91.09841654040046 -28.74847888685891,-98.14556717192518 -18.82052226167171,-105.03570583257917 -8.84552413236886,-111.75780977032326 1.1515832006049938,-118.30112505282939 11.145812175310272,-124.65518377147838 21.11218242420688,-130.8098207877817 31.02578321205219,-136.75518999543027 40.86183569978293,-142.4817800719708 50.59575487869687,-147.9804296948882 60.20321102017386,-153.24234219776844 69.6601904873293,-158.25909964308843 78.94305575658962,-163.0226762891202 88.02860449920718,-167.5254514294055 96.89412757498772,-171.76022158426073 105.517465793317,-175.72021202480826 113.87706529959922,-179.3990876110947 121.95203144865923,-182.79096292696767 129.72218103048786,-185.89041169548318 137.16809271774616,-188.69247545979218 144.2711556089739,-191.19267151561343 151.01361574614253,-193.38700008260435 157.37862049031662,-195.27195070315622 163.3502606444661,-196.84450785837774 168.91361021817568,-198.102155792281 174.0547637348489,-199.04288253645598 178.76087098815222,-199.6651831287896 183.02016916084713,-199.9680620210846 186.8220122257015,-199.95103467172396 190.15689755501487,-199.6141283208344 193.0164896722393,-198.95788194670777 195.3936410863269,-197.98334540355074 197.2824101567399,-196.69207774194263 198.6780759444542,-195.08614471468618 199.57715001184917,-193.16811547204424 199.9773851419851,-190.9410584516472 199.87778095547483,-188.4085364696476 199.278586410912,-185.5746010209741 198.1812991826035,-182.44378579780388 196.588661917164,-179.0210994366224 194.50465537832693,-175.31201750547274 191.93448849711098,-171.32247374421743 188.88458535220158,-167.05885057181658 185.3625691131022,-162.52796887582159 181.37724298618,-157.7370771004095 176.93856821123316,-152.69383965041857 172.0576391635845,-147.40632462993548 166.74665562391323,-141.88299093505 161.01889228516174,-136.13267472142454 154.8886655727154,-130.16457526833426 148.37129786079313,-123.9882402617764 141.48307917449893,-117.61355052021365 134.24122647323173,-111.0507041873712 126.66384061726079,-104.31020041738238 118.76986112499975,-97.40282257838172 110.57901883407182,-90.33962100141628 102.11178658450078,-83.13189530227194 93.38932804725896,-75.79117630450374 84.43344482612088,-68.3292075925703 75.26652196500552,-60.75792672460897 65.9114719970219,-53.08944613488802 56.39167767507944,-45.336033756495745 46.730933527167295,-37.51009339526447 36.95338638243697,-29.62414488632727 27.083475016702145,-21.690804065052472 17.14586906822388,-13.722762584396921 7.165407376473867,-5.732767610974307 -2.8329641020453034,2.2663985677006693 -12.824254645688546,10.2619389921399 -22.78349123146028,18.241062503288603 -32.68578095456904,26.191004205651176 -42.506373247714215,34.09904588840095 -52.22072174463137,41.952536371804456 -61.80454563321312,49.73891174641156 -71.23389034489699,57.44571547262496 -80.4851874286142,65.06061830851453 -89.53531345963256,72.57143803396886 -98.36164783609172,79.96615893964993 -106.94212931871661,87.23295104956499 -115.25531117242905,94.3601890465045 -123.2804147720184,101.33647087006968 -130.99738153787433,108.15063595753813 -138.3869230720031,114.79178309837847 -145.43056936896818,121.24928787386912 -152.11071498128732,127.51281965389684 -158.410663023884,133.5723581237624 -164.31466690759768,139.41820931454666 -169.8079696974667,145.04102111139272 -174.87684099737317,150.43179821489488 -179.50861126888447,155.58191653165863 -183.69170349850228,160.48313697101136 -187.41566213416252,165.12761862578623 -190.6711792186774,169.5079313161064 -193.45011765477622,173.6170674760843 -195.74553154361186,177.44845336443288 -197.55168354589114,180.9959595810495 -198.8640592222331,184.25391087274855 -199.6793783169195,187.2170952124559 -199.9956029568236,189.88077213734067 -199.8119427450323,192.24068033254292 -199.12885673642634,194.29304444837103 -197.94805229028339,196.03458114005403 -196.27248080276755,197.4625043203932 -194.10633032997688,198.57452961690743 -191.45501511998398,199.36887802634163 -188.32516208003466,199.84427876069273 -184.72459421273456,199.99997128019913 -180.6623110626116,199.83570651004223 -176.14846622194494,199.35174723881303 -171.19434195207134,198.5488676981064 -165.8123209836058,197.4283523239156 -160.01585556607017,195.99199370180878 -153.8194338442661,194.24208969917453 -147.23854364546392,192.18143978912408 -140.28963376789935,189.81334057193172 -132.99007286734184,187.1415805011768 -125.35810604450913,184.17043382302847 -117.41280924180472,180.90465373836045 -109.17404156340487,177.3494647986456 -100.66239563783827,173.51055454778768 -91.8991461471368,169.39406442326415 -82.90619665122009,165.00657993113654 -73.70602484038791,160.3551201106455 -64.32162635281048,155.4471263052444 -54.7764572974065,150.2904502580408 -45.09437562578374,144.89334155067712 -35.2995814997961,139.26443440576338 -25.416556803725655,133.41273387396197 -15.470003952332798,127.34760142782757 -5.484784147681431,121.07873998544807 4.514144760921614,114.61617838784548 14.501790658540662,107.97025535496849 24.45318963189994,101.15160294595078 34.343468366154454,94.17112955007734 44.14790631522615,87.04000243569332 53.8419974902977,79.76962988495575 63.40151171201097,72.37164294301573 72.80255517331325,64.85787681082732 82.02163016152005,57.240351911350714 91.03569379036232,49.53125465943978 99.82221559520399,41.742917966176485 108.35923384746008,33.887801508849584 116.62541044749561,25.97847179812063 124.60008425875206,18.027582074293093 132.26332274983116,10.047852064825756 139.59597181544467,2.052047635482156 146.57970365169425,-5.9470396323314 153.19706256604854,-13.936612905367351 159.43150860747568,-21.903890570741655 165.26745890770874,-29.836126683782133 170.69032663030285,-37.72063135882946 175.68655743012334,-45.544791070341525 180.24366333215895,-53.29608883184495 184.35025394494943,-60.962124220443336 187.99606493063393,-68.5306332148486 191.1719836604507,-75.98950781519882 193.8700719915599,-83.32681541327645 196.08358610827196,-90.53081788213078 197.80699337807096,-97.58999035458484 199.03598618031558,-104.49303966055919 199.7674926730474,-111.22892239373626 199.9996844709954,-117.7868625786546 199.73198121558812,-124.15636890997104 198.96505202554698,-130.32725153631094 197.70081382443803,-136.289638361857 195.94242654936093,-142.03399083959732 193.69428525275404,-147.55111923096194 190.96200911704906,-152.8321973074504 187.75242740964333,-157.86877647071023 184.07356241328756,-162.65279926849306 179.93460937455552,-167.1766122848596 175.34591352052132,-171.43297838401227 170.31894420107233,-175.41508828816882 164.86626622151218,-179.11657147095463 159.0015084370899,-182.53150634888362 152.739329687958,-185.65442975463236 146.09538215971315,-188.48034567693978 139.08627226107328,-191.00473325316005 131.7295191165111,-193.2235540016786 124.04351077756506,-195.13325828262091 116.04745826228442,-196.7307909765194 107.7613475376983,-198.0135963718527 99.20588956529286,-198.97962225363855 90.40246853440274,-199.62732318654076 81.37308841287214,-199.95566298723554 72.14031794859194,-199.96411638208386 62.727234259394216,-199.65266984745728 53.15736515226009,-199.02182163137283 43.45463031606596,-198.07258095640245 33.64328153481566,-196.8064664051322 23.747842070807817,-195.2255034907538 13.79304536926284,-193.3322214166767 3.8037732375738766,-191.12964903034054 -6.195006346242214,-188.62130997770637 -16.178301640489636,-185.8112170661747 -26.12115960613528,-182.7038658449494 -35.9987282763997,-179.30422741311818 -45.786318873748414,-175.61774046695447 -55.459467518966676,-171.65030259916284 -64.99399637811987,-167.40826086399147 -74.36607409454943,-162.8984016232954 -83.55227535484264,-158.1279396898077 -92.52963943993262,-153.1045067849777 -101.27572761492746,-147.83613932984457 -109.76867921426438,-142.33126558847812 -117.98726628199098,-136.59869218455404 -125.91094663059073,-130.6475900126338 -133.5199151857674,-124.48747956669384 -140.79515348880733,-118.12821570935978 -147.71847723282374,-111.57997190623279 -154.27258171405575,-104.85322395051368 -160.44108508460815,-97.95873320396858 -166.20856929855097,-90.90752938104568 -171.560618648997,-83.71089290368509 -176.48385579986362,-76.3803368550487 -180.9659752222472,-68.92758856104837 -184.9957739518319,-61.36457082911838 -188.56317959047365,-53.70338287427208 -191.6592754819449,-45.956280962937605 -194.27632299893244,-38.135658805546186 -196.4077808855764,-30.25402772923922 -198.04832160720073,-22.32399666241384 -199.19384466637916,-14.358251963127227 -199.84148685204065,-6.369537123628587 -199.9896293960065,1.6293676165043243 -199.63790201906784,9.625665716030717 -198.7871838564911,17.606564803777296 -197.43960126063723,25.559297143704672 -195.59852248618847,33.47114006056138 -193.2685492712656,41.329436293450264 -190.45550533547848,49.12161424474581 -187.1664218236632,56.835208091969946 -183.40951973167702,64.45787773044333 -179.1941893581931,71.97742851482855 -174.53096683384354,79.38183076795586 -169.43150778637832,86.65923902574187 -163.90855820767212,93.79801098740505 -157.97592259537373,100.78672614066355 -151.648429448857,107.61420403211856 -144.94189420569353,114.26952215359583 -137.8730797112931,120.7420334158241 -130.4596543205283,127.02138318151381 -122.72014773603681,133.097525830563 -114.6739046936227,138.96074083090784 -106.34103661048965,144.60164828930024 -97.7423713171692,150.01122395713622 -88.89940099880124,155.18081366732847 -79.83422847584933,160.1021471791277 -70.56951195857029,164.76735140874433 -61.12840841328621,169.1689630245998 -51.53451568202586,173.29994038707 -41.811813500220126,177.15367481360312 -31.984603559835378,180.72400115120288 -22.077448767810584,184.00520763935813 -12.11511185157932,186.99204504764174 -2.1224934651445526,189.67973507335688 7.875430049577011,192.06397798580764 17.853669090619313,194.14095950494377 27.7872832569462,195.90735690340188 37.65144368646809,197.36034432215456 47.421495115269416,198.49759729128692 57.07301750291701,199.3172964486488 66.58188706986027,199.81813045044814 75.92433659430537,199.99929806912132 85.07701481789486,199.86050947512535 94.01704481169494,199.40198670060386 102.72208115659367,198.62446328418346 111.17036579522666,197.52918309746704 119.3407824157789,196.1178983551068 127.21290923176973,194.3928668116315 134.76707002588572,192.35684814952407 141.98438333026812,190.01309956431726 148.8468096203623,187.36537055377272 155.33719640432554,184.41789691949043 161.43932109532605,181.17539399052237 167.13793155956301,177.64304907986008 172.41878423865148,173.8265131858314 177.26867975111043,169.73189195171707 181.67549588393535,165.3657358980207 185.6282178918198,160.7350299430281 189.11696602828266,155.84718222843935 192.13302023988584,150.71001226790904 194.66884196183196,145.33173843750654 196.71809296044665,139.7209648280528 198.27565117546263,133.88666748042567 199.3376235225032,127.83818002579356 199.90135562376472,121.58517875381074 199.9654384425804,115.1376671326122 199.52971180527683,108.50595980539151 198.5952648015253,101.70066608918815 197.1644330621841,94.73267300222467 195.24079292143958,87.61312784701923 192.8291524778309,80.3534203770598 189.93553957650897,72.96516457564849 186.5671867427627,65.46018007598511 182.732513104471,57.85047325229377 178.44110334867233,50.14821801217757 173.70368376483222,42.36573632095511 168.53209543470982,34.51547848916363 162.93926463581928,26.610003254696064 156.93917053246614,18.661957691521746 150.54681023512353,10.684056977043484 143.77816131545632,2.6890640505458783 136.6501418707194,-5.310230804793359 129.1805682373239,-13.301030423636586 121.38811045927227,-21.27055123120099 113.29224562278053,-29.206043694273887 104.91320917369282,-37.0948127177235 96.27194433941402,-44.92423795396556 87.3900497817461,-52.681793992804806 78.28972561147937,-60.355070399441644 68.99371789968743,-67.93179156850103 59.525261824379974,-75.39983636239076 49.90802359466867,-82.74725750254387 40.16604129756695,-89.96230068249716 30.32366481528845,-97.03342337229493 20.405494963233874,-103.94931328405421 10.436322000747566,-110.69890646923226 0.44106366839082095,-117.27140501856444 -9.555297093435383,-123.65629433643468 -19.527774588833356,-129.84335996196913 -29.45144281762483,-135.82270391000182 -39.301497777387155,-141.5847605057454 -49.05331946053041,-147.12031168781587 -58.68253339149727,-152.4205017551804 -68.16507155026069,-157.47685153437433 -77.47723252982877,-162.28127194438505 -86.595740777435,-166.82607693744296 -95.49780477128765,-171.10399579506446 -104.16117398750741,-175.10818475965436 -112.56419451485155,-178.83223798304792 -120.68586317820544,-182.27019777451267 -128.5058800355964,-185.41656413177213 -136.00469911746697,-188.26630353984598 -143.163577281422,-190.81485702359117 -149.96462106032513,-193.05814744109804 -156.39083138664037,-194.99258600624063 -162.42614608125962,-196.61507802997247 -168.05548000057738,-197.9230278711699 -173.26476274149582,-198.91434308910044 -178.04097381010598,-199.58743779088547 -182.37217516613623,-199.94123516858753 -186.247541061844,-199.97516922187526 -189.65738510074155,-199.68918566350226 -192.59318444854406,-199.0837420061552 -195.04760113581744,-198.1598068305314 -197.01450039907758,-196.9188582358167 -198.48896601450846,-195.36288147504024 -199.46731258595833,-193.4943657790963 -199.9470947565116,-191.31630037450168 -199.9271133206076,-188.83216970127606 -199.40741822142988,-186.04594783857524 -198.3893084260745,-182.9620921470181 -196.87532867880856,-179.58553613785827 -194.8692631405348,-175.9216815804144 -192.37612593035936,-171.97638986040045 -189.40214859290836,-167.75597260294825 -185.9547645227073,-163.26718157536507 -182.0425903845688,-158.51719788573422 -177.6754045764173,-153.51362049468662 -172.86412278838532,-148.26445405867148 -167.62077071927857,-142.77809612422573 -161.95845401858355,-137.06332369368593 -155.89132552917445,-131.12927918385046 -149.43454991257533,-124.98545580007729 -142.604265745202,-118.64168234916367 -135.41754518033352,-112.10810751536944 -127.89235127660848,-105.39518362466902 -120.04749309974092,-98.51364992327579 -111.90257870964987,-91.47451539713228 -103.47796615051872,-84.28904115987336 -94.79471256629667,-76.96872243746438 -85.87452156879084,-69.52527017827123 -76.73968898994936,-61.970592318062124 -67.41304715389049,-54.3167747298294 -57.91790780798044,-46.5760618889923 -48.27800385561645,-38.76083728482667 -38.517430036311794,-30.883603609542927 -28.660582701406156,-22.956962756637445 -18.732098835889946,-14.993595660542718 -8.756794478769663,-7.006242009857113 1.2403973040943057,0.9923201334618551 11.234488739684467,8.989294776248116 21.200499804234056,16.97188846500916 31.113520660279924,24.927330752699806 40.94877391828621,32.842894628735905 50.68167656720318,40.705916879476526 60.28790141920909,48.50381834667301 69.74343791499909,56.224124051446964 79.02465213768195,63.854483151576005 88.10834588526643,71.38268870022846 96.97181465407465,78.79669717445266 105.59290438819254,86.08464774226591 113.9500668530615,93.23488123743692 122.02241349484548,100.23595881167276 129.789767650939,107.07668023434316 137.23271498110734,113.74610181044307 144.3326519932393,120.23355388818955 151.0718325423803,126.52865792816952 157.43341218685484,132.62134310680742 163.40149029060004,138.5018624275166 168.9611497664681,144.16080831383204 174.09849436118589,149.58912765951084 178.80068338874383,154.7781363115778 183.05596382542583,159.71953296312287 186.85369968624838,164.40541243360838 190.18439860937983,168.8282783154859 193.039735582108,172.98105496683564 195.41257374903182,176.8570988308969 197.29698225048423,180.4502090643296 198.68825104659288,183.7546374572522 199.58290268992545,186.7650976291417 199.9787010172997,189.47677348591952 199.87465673902497,191.88532692467672 199.27102991161172,193.98690477370687 198.16932928776532,195.77814495676574 196.57230854529143,197.25618187167004 194.48395940433366,198.41865097465467 191.90950165015323,199.26369256313444 188.85537008638386,199.7899547508336 185.32919845137295,199.99659563051551 181.33980033781535,199.88328462085352 176.89714716335564,199.45020299529133 172.01234324724092,198.69804359204426 166.69759805530478,197.62800970570493 160.96619568265956,196.24181316223047 154.83246165038352,194.54167158038334 148.31172709916876,192.53030482401735 141.42029046946053,190.21093065087493 134.17537676384217,187.587259564858 126.59509449349748,184.66348888001937 118.6983904163719,181.4442960057483 110.50500218013212,177.93483096392134 102.0354089883347,174.14070814995696 93.31078041308022,170.06799735099054 84.35292348210554,165.72321403549887 75.18422817258144,161.11330892995048 65.82761144781503,156.24565689912205 56.30645997678643,151.12804514788237 46.64457167965336,145.76866076333812 36.86609624534171,140.17607761722644 26.995474769911258,134.35924264956427 17.05737866652752,128.32746155543714 7.076647999788553,122.09038389788631 -2.92177060150285,115.65798767066065 -12.912886297922046,109.04056333554773 -22.871726503494784,102.24869735984659 -32.773399304173694,95.29325528025934 -42.59315567464859,88.1853643203698 -52.30645133802354,80.93639558943951 -61.88900811372942,73.55794589107894 -71.3168746003206,66.0618191708149 -80.56648604152132,58.46000763231398 -89.61472322583307,50.764672552407255 -98.43897027252592,42.98812482563317 -107.01717115956457,35.14280526945172 -115.32788485216723,27.24126472156831 -123.35033889424085,19.296143961293076 -131.06448132869357,11.320153486968115 -138.451030816887,3.3260531819041277 -145.49152483194317,-4.673368098733578 -152.16836580543887,-12.66531298734533 -158.46486511217398,-20.636996076963836 -164.3652847830351,-28.57566437518639 -169.85487684172423,-36.46861770622245 -174.91992016702034,-44.30322902848821 -179.54775478843086,-52.066964635157085 -183.72681352953344,-59.74740420543919 -187.44665091988705,-67.3322606744257 -190.6979693032697,-74.80939988977998 -193.4726420769775,-82.16686002380077 -195.76373400409625,-89.39287070977618 -197.56551854798664,-96.4758718720805 -198.8734921856402,-103.4045322198087 -199.68438566414227,-110.16776737444471 -199.9961721721018,-116.75475760248287 -199.80807240562396,-123.1549651247126 -199.12055651616464,-129.3581509744008 -197.9353429353962,-135.35439137746152 -196.25539408002317,-141.13409362838394 -194.0849089472829,-146.68801143649983 -191.42931261964168,-152.00725971809277 -188.29524270491015,-157.08332881062088 -184.69053274568319,-161.9080980863767 -180.62419263956212,-166.47384894374483 -176.10638611910196,-170.77327715533158 -171.14840534777824,-174.79950455315924 -165.7626426954516,-178.54609003227267 -159.96255976390188,-182.0070398551369 -153.76265373983315,-185.17681724032943 -147.178421159455,-188.0503512202194 -140.2263191752201,-190.62304475342478 -132.9237244215025,-192.89078207910632 -125.28888958206865,-194.84993530130006 -117.340897767872,-196.4973701927804 -109.09961481921155,-197.83045120915617 -100.58563965148646,-198.84704570517567 -91.82025276862115,-199.54552734650795 -82.82536307289755,-199.92477871152778 -73.62345310410697,-199.9841930789541 -64.23752284490664,-199.72367539847335 -54.691032232851875,-199.14364244279997 -45.00784252275398,-198.24502214092934 -35.21215664598049,-197.0292520936495 -25.32845871572874,-195.49827727368472 -15.381452829491145,-193.65454691415752 -5.396001321688428,-191.50101059033372 4.602937379235346,-189.04111350093638 14.59037113387448,-186.27879095655666 24.54133655919733,-183.21846208400353 34.430961424006,-179.86502275663554 44.23452681654992,-176.2238377620153 53.92752892894872,-172.30073221939094 63.48574030393931,-168.10198226074334 72.88527039090448,-163.63430499032373 82.10262525981004,-158.90484773870796 91.11476632378411,-153.9211766286049 99.89916792360177,-148.69126447066074 108.43387363009136,-143.22347800867482 116.69755112377548,-137.52656453458945 124.6695455145622,-131.60963789468244 132.32993096820442,-125.48216390937141 139.659560510522,-119.15394522990384 146.6401138848564,-112.63510565622337 153.2541433431737,-105.93607394103162 159.48511725634978,-99.06756710602714 165.31746143462667,-92.04057329693774 170.73659805498662,-84.8663342048483 175.72898209811055,-77.5563270818861 180.28213520387393,-70.12224638005763 184.38467686074983,-62.57598504263848 188.0263528511561,-54.92961547797995 191.19806088166612,-47.195370246252395 193.89187333399727,-39.385622489936765 196.1010570799291,-31.51286613945805 197.82009031061781,-23.58969592553964 199.044676338241,-15.628787230340425 199.77175433548223,-7.642875809538957 199.9995069860032,0.3552625821673928 199.72736502678902,8.352832629524745 198.95600867100853,16.337039926520287 197.68736590783706,24.29511144467988 195.92460768348602,32.21431596721149 193.67213997548953,40.081984456216446 190.93559278005506,47.88553032045599 187.72180604000403,55.612469551220556 184.03881254848054,63.25044069406122 179.89581787114668,70.7872246245018 175.30317733706588,78.21076409600974 170.2723701557723,85.50918302903983 164.8159707252239,92.67080551020709 158.94761720236227,99.68417447127803 152.68197741481362,106.53807001801792 146.03471219896466,113.22152737963607 139.02243625602625,119.72385445008682 131.66267662393088,126.03464889314195 123.97382886887422,132.1438147839281 115.97511110596739,138.04157876023484 107.68651596396595,143.71850565782688 99.128760614108,149.1655136046771 90.32323498797282,154.3738885500409 81.29194831380167,159.3352982050644 72.0574741048743,164.04180537267553 62.64289373749183,168.48588064541076 53.071738759554066,172.66041445084943 43.367932073941894,176.5587284254255 33.55572814373004,180.17458609837286 23.65965236864427,183.50220286875916 13.704439784345654,186.5362552596042 3.7149732377204447,189.27188943431165 -6.283778807281243,191.70472896177478 -16.266824677790627,193.830881817726 -26.209211958204065,195.6469466111524 -36.08608985821573,197.1500180257897 -45.87277132685416,198.33769146801367 -55.54479475725569,199.20806691367275 -65.07798512793124,199.75975194772465 -74.44851442774646,199.9918639918011 -83.63296121352913,199.90403171614625 -92.60836915148224,199.49639563366452 -101.35230439606543,198.76960787513045 -109.84291166291572,197.7248311459174 -118.05896885569133,196.363736865919 -125.97994011025015,194.68850249563104 -133.5860271236179,192.70180805268288 -140.85821863943667,190.40683182437624 -147.778337966197,187.80724528310833 -154.3290884095125,184.9072072127973 -160.4940965048398,181.71135705571183 -166.25795294261474,178.2248074903605 -171.60625108350274,174.45313625228783 -176.52562296748835,170.40237721089716 -181.00377272682258,166.07901071653598 -185.02950731928237,161.48995323332764 -188.59276450494863,156.64254627430034 -191.6846379965665,151.54454465652677 -194.2973997206217,146.20410409508327 -196.42451913350513,140.62976815563113 -198.06067954446692,134.83045458654922 -199.2017914045755,128.81544105242307 -199.84500252846033,122.594350291777 -199.98870522328914,116.17713472272848 -199.63254030716413,109.57406052125711 -198.77739800688843,102.79569119750704 -197.42541573286329,95.85287069641643 -195.57997273667434,88.7567060497359 -193.24568166472503,81.51854960712738 -190.42837702901946,74.1499808748465 -187.13510062392302,66.66278799098218 -183.37408392534326,59.068948866971304 -179.1547275163257,51.38061202547426 -174.48757759049698,43.61007716534908 -169.38429959206582,35.769775484749076 -163.85764905829248,27.872249793849154 -157.92143973728744,19.93013444904472 -151.59050906083334,11.956135140654256 -144.8806810585399,3.9630085665477135 -137.80872680600024,-4.036457975871407 -130.3923225058432,-12.02946704659424 -122.6500053064304,-20.00323153618913 -114.6011269686372,-27.944995122457417 -106.26580549653788,-35.84205267780798 -97.66487485285892,-43.681770594773624 -88.81983288493142,-51.4516069970656 -79.75278759126637,-59.13913180392246 -70.4864018630694,-66.7320466155656 -61.04383683882585,-74.21820438803722 -51.44869401350092,-81.58562886586047 -41.72495624710413,-88.82253374150167 -31.896927820026733,-95.91734151095565 -21.989173684995347,-102.8587019952645 -12.026458067494563,-109.63551049840288 -2.0336825680833304,-116.23692557240295 7.964176078626703,-122.65238636137784 17.942128432802892,-128.87162949661922 27.875234809979755,-134.88470551581625 37.738667617270494,-140.6819947800571 47.507773409436226,-146.25422286320614 57.1581345096485,-151.59247538901286 66.66563004096767,-156.6882122921987 76.00649621597604,-161.53328148075468 85.15738573385985,-166.11993187753532 94.09542613651818,-170.4408258203423 102.79827697778589,-174.48905080060698 111.24418566291689,-178.2581305219349 119.41204181874485,-181.74203526080206 127.28143005861283,-184.9351915128172 134.83268101022165,-187.8324909091497 142.04692047880783,-190.42929838882094 148.90611662280313,-192.72145961382134 155.39312502404968,-194.70530761515758 161.49173153990938,-196.37766865922728 167.18669283018727,-197.73586732511046" transform="translate(240 240)"></polyline></svg>